<svg width="40" height="38" viewBox="0 0 40 38" fill="none" xmlns="http://www.w3.org/2000/svg">
<path d="M38.2857 25.8516V31.0796C38.284 31.4536 38.1365 31.8119 37.8754 32.0764C37.6143 32.341 37.2607 32.4905 36.8914 32.4925H31.7312L38.2857 25.8516Z" fill="#9580B9"/>
<path d="M31.7322 5.49987H36.8923C37.2618 5.50184 37.6156 5.65147 37.8767 5.91621C38.1378 6.18094 38.2852 6.53937 38.2867 6.91354V12.1415L31.7322 5.49987Z" fill="#9580B9"/>
<path d="M1.60883 12.1415L1.60883 6.91354C1.61035 6.53937 1.75769 6.18094 2.0188 5.91621C2.27992 5.65147 2.63369 5.50184 3.00318 5.49987L8.16333 5.49987L1.60883 12.1415Z" fill="#9580B9"/>
<path d="M8.07281 32.4933H2.91266C2.54317 32.4913 2.1894 32.3417 1.92828 32.077C1.66717 31.8122 1.51983 31.4538 1.51831 31.0796V25.8516L8.07281 32.4933Z" fill="#9580B9"/>
<path d="M2.76028 32.5C2.40863 32.4814 2.07822 32.3227 1.84231 32.058C1.60639 31.7932 1.48395 31.4446 1.50169 31.0884V7.13732C1.48416 6.78143 1.60681 6.43334 1.84231 6.16857C2.0778 5.90381 2.40732 5.7444 2.75867 5.72498H37.2368C37.5885 5.74421 37.9184 5.90328 38.1548 6.16776C38.3911 6.43224 38.5148 6.78021 38.4986 7.1365V31.086C38.5139 31.4421 38.3901 31.7903 38.1539 32.0547C37.9178 32.3191 37.5882 32.4788 37.2368 32.4991L2.76028 32.5Z" fill="#DED2FF" stroke="#492D84" stroke-width="1.5" stroke-linecap="round"/>
<path d="M6.29248 13.6279H20.5872" stroke="#492D84" stroke-width="1.5" stroke-linecap="round"/>
<path d="M6.29248 16.3835H21.284" stroke="#492D84" stroke-width="1.5" stroke-linecap="round"/>
<path d="M6.29248 19.209H21.6319" stroke="#492D84" stroke-width="1.5" stroke-linecap="round"/>
<path d="M6.29248 21.9654H19.8896" stroke="#492D84" stroke-width="1.5" stroke-linecap="round"/>
<path d="M6.29248 24.7911H23.1665" stroke="#492D84" stroke-width="1.5" stroke-linecap="round"/>
<path d="M27.3948 21.1104V24.8479L29.4653 22.7771L31.3115 25.1009V20.5802H27.3948V21.1104Z" fill="#D1D8FF"/>
<path d="M29.425 20.905C30.2019 20.8936 30.9656 20.7001 31.6563 20.3397V25.1444C31.6548 25.2018 31.6353 25.2573 31.6006 25.3028C31.5658 25.3482 31.5176 25.3812 31.463 25.397C31.4084 25.4127 31.3503 25.4104 31.2971 25.3903C31.2439 25.3703 31.1984 25.3336 31.1673 25.2855L29.6336 23.0953C29.4942 22.9541 29.2848 22.9541 29.2147 23.0953L27.6818 25.2855C27.6507 25.3336 27.6052 25.3703 27.552 25.3903C27.4988 25.4104 27.4407 25.4127 27.3861 25.397C27.3315 25.3812 27.2833 25.3482 27.2486 25.3028C27.2138 25.2573 27.1943 25.2018 27.1929 25.1444V20.4107C27.8944 20.7314 28.6545 20.9 29.4242 20.9059L29.425 20.905Z" fill="#6C49CF" stroke="#492D84" stroke-width="1.5" stroke-linecap="round"/>
<path d="M29.4529 20.9317C31.5391 20.9317 33.2302 19.2191 33.2302 17.1065C33.2302 14.9939 31.5391 13.2813 29.4529 13.2813C27.3667 13.2813 25.6755 14.9939 25.6755 17.1065C25.6755 19.2191 27.3667 20.9317 29.4529 20.9317Z" fill="#6C49CF"/>
<path d="M31.1688 17.0907C31.1687 17.44 31.0663 17.7813 30.8745 18.0716C30.6828 18.362 30.4104 18.5882 30.0917 18.7217C29.773 18.8553 29.4224 18.8901 29.0841 18.8219C28.7459 18.7536 28.4352 18.5854 28.1914 18.3384C27.9476 18.0913 27.7816 17.7767 27.7144 17.4341C27.6471 17.0915 27.6817 16.7365 27.8137 16.4138C27.9458 16.0912 28.1693 15.8154 28.4561 15.6214C28.7428 15.4274 29.08 15.3238 29.4249 15.3238C29.6546 15.3215 29.8825 15.3656 30.0952 15.4536C30.3079 15.5415 30.5011 15.6716 30.6635 15.8361C30.8259 16.0007 30.9543 16.1964 31.041 16.4118C31.1278 16.6273 31.1713 16.8581 31.1688 17.0907Z" fill="#391257"/>
<path d="M29.4249 12.6384C28.842 12.6383 28.2648 12.7558 27.7271 12.9839C27.1894 13.212 26.7019 13.5463 26.293 13.9671C25.8842 14.388 25.5622 14.887 25.3458 15.4352C25.1293 15.9834 25.0228 16.5697 25.0325 17.16C25.0397 17.9481 25.2491 18.7207 25.6403 19.4021C26.0315 20.0834 26.591 20.65 27.2637 21.0461C27.9421 21.4469 28.7099 21.6665 29.495 21.6841C30.2848 21.7004 31.0616 21.4784 31.7263 21.0461C32.3991 20.65 32.9585 20.0834 33.3497 19.4021C33.7409 18.7207 33.9504 17.9481 33.9576 17.16C33.9223 15.9603 33.4313 14.8207 32.587 13.9784C31.7426 13.1362 30.61 12.6562 29.4249 12.6384ZM29.4249 20.1961C28.8175 20.1969 28.2235 20.0153 27.7181 19.6741C27.2127 19.3329 26.8186 18.8476 26.5857 18.2795C26.3527 17.7115 26.2914 17.0862 26.4096 16.4828C26.5277 15.8795 26.8199 15.3252 27.2492 14.89C27.6785 14.4549 28.2257 14.1586 28.8214 14.0385C29.4171 13.9184 30.0346 13.9799 30.5958 14.2153C31.157 14.4508 31.6365 14.8495 31.9738 15.361C32.3111 15.8726 32.491 16.4739 32.4907 17.089C32.4907 17.9126 32.1678 18.7026 31.5929 19.2852C31.018 19.8678 30.2383 20.1954 29.4249 20.1961Z" fill="#391257"/>
</svg>
