<svg width="150" height="150" viewBox="0 0 150 150" fill="none" xmlns="http://www.w3.org/2000/svg">
<path d="M28.637 68.2095L109.261 26.6666L104.072 19.3722L130.404 17L118.543 38.32L112.998 31.411L31.3353 76.2749L28.637 68.2095Z" fill="#4B71A4"/>
<path d="M42.6028 97.7135H24.0405V133.474H42.6028V97.7135Z" fill="#263238"/>
<path d="M37.5623 97.7134H19V133.474H37.5623V97.7134Z" fill="#455A64"/>
<path d="M71.6028 85.7933H53.0405V133.504H71.6028V85.7933Z" fill="#263238"/>
<path d="M65.9691 85.7933H47.4067V133.504H65.9691V85.7933Z" fill="#455A64"/>
<path d="M101.403 70.6707H82.8411V133.474H101.403V70.6707Z" fill="#263238"/>
<path d="M95.7994 70.6707H77.2371V133.474H95.7994V70.6707Z" fill="#455A64"/>
<path d="M131.323 57.4457H112.76V133.474H131.323V57.4457Z" fill="#263238"/>
<path d="M123.91 57.4457H105.348V133.474H123.91V57.4457Z" fill="#455A64"/>
<path d="M29.1414 92.0499L30.8613 90.6266L28.2222 87.3649L25.6721 89.4109L25.8204 89.6184C26.5024 90.5673 29.349 94.3628 30.0013 94.8076C30.7427 95.3413 29.1414 92.0499 29.1414 92.0499Z" fill="#4B71A4"/>
<g opacity="0.5">
<g opacity="0.5">
<path opacity="0.5" d="M26.6496 90.597C26.8868 90.3301 27.0054 89.9743 27.0054 89.6184C27.0054 89.2626 26.8571 88.9364 26.6199 88.6696L25.7007 89.4109L26.6496 90.597Z" fill="white"/>
</g>
</g>
<g opacity="0.4">
<g opacity="0.4">
<path opacity="0.4" d="M29.8823 93.6807C29.8823 93.6807 30.3863 94.8668 30.1195 94.8964C29.8526 94.8964 26.8577 91.1899 25.6716 89.4107L25.7606 89.3514L29.2299 93.74C29.2299 93.74 29.7043 93.5028 29.8823 93.6807Z" fill="white"/>
</g>
</g>
<path d="M25.7017 89.3218C25.7017 89.3218 25.7017 89.3514 25.7313 89.3811C25.761 89.4404 25.8203 89.4997 25.8499 89.559C25.9685 89.7369 26.1168 89.9445 26.2947 90.1817C26.6802 90.6858 27.2139 91.3974 27.8366 92.1684C28.4593 92.9393 29.0227 93.6213 29.4675 94.0958C29.6751 94.333 29.8233 94.5109 29.9716 94.6592C30.0309 94.7185 30.0605 94.7778 30.1198 94.8074C30.1495 94.8371 30.1792 94.8667 30.1792 94.8667C30.1792 94.8667 30.1792 94.8371 30.1495 94.8074C30.1198 94.7481 30.0605 94.7185 30.0309 94.6592C29.8826 94.5109 29.7344 94.3034 29.5268 94.0661C29.1117 93.5621 28.5483 92.88 27.9256 92.1387C27.3029 91.3678 26.7691 90.6858 26.354 90.152C26.1761 89.9148 26.0278 89.7073 25.8796 89.559C25.8203 89.4997 25.7906 89.4404 25.761 89.3811C25.7313 89.3514 25.7017 89.3218 25.7017 89.3218Z" fill="#263238"/>
<path d="M29.1707 93.7993C29.1707 93.7993 29.3189 93.7104 29.5561 93.6807C29.7637 93.6511 29.9416 93.7104 29.9416 93.7104C29.9416 93.7104 29.7637 93.6214 29.5561 93.6511C29.3189 93.6511 29.1707 93.7697 29.1707 93.7993Z" fill="#263238"/>
<path d="M28.8743 92.4354C28.8743 92.4354 28.9632 92.4354 29.0818 92.4354C29.2004 92.4354 29.2894 92.4058 29.2894 92.3761C29.2894 92.3761 29.2004 92.3761 29.0818 92.3761C28.9632 92.4058 28.8743 92.4058 28.8743 92.4354Z" fill="#263238"/>
<path d="M28.8149 92.0499C28.8149 92.0499 28.8742 92.0796 28.9929 92.1092C29.0818 92.1389 29.1708 92.1389 29.1708 92.1092C29.1708 92.1092 29.1115 92.0796 28.9929 92.0499C28.8742 92.0499 28.8149 92.0499 28.8149 92.0499Z" fill="#263238"/>
<path d="M28.9631 91.6348C28.9631 91.6348 28.9928 91.7237 29.0817 91.8127C29.1707 91.9016 29.23 91.9906 29.23 91.9609C29.23 91.9609 29.2004 91.872 29.1114 91.783C29.0521 91.6941 28.9928 91.6348 28.9631 91.6348Z" fill="#263238"/>
<path d="M29.1414 91.3975C29.1414 91.3975 29.171 91.5161 29.2303 91.6347C29.3193 91.7533 29.4082 91.8126 29.4082 91.8126C29.4082 91.8126 29.3489 91.7236 29.26 91.605C29.2007 91.4864 29.171 91.3975 29.1414 91.3975Z" fill="#263238"/>
<path d="M29.2596 92.3167C29.2596 92.3167 29.3189 92.4056 29.4375 92.5242C29.4969 92.5835 29.5858 92.6428 29.6748 92.7021C29.7341 92.7318 29.7637 92.7614 29.823 92.7911C29.8527 92.7911 29.8823 92.8207 29.9416 92.7911C29.9713 92.7614 30.0009 92.7318 30.0009 92.7021C29.9416 92.4056 29.6748 92.3167 29.4969 92.3167C29.4079 92.3167 29.3486 92.3463 29.2893 92.376C29.2596 92.4056 29.23 92.4056 29.23 92.4056C29.23 92.4056 29.3189 92.3463 29.4969 92.3463C29.5858 92.3463 29.6748 92.376 29.7637 92.4353C29.8527 92.4946 29.9416 92.5835 29.9416 92.7021C29.9416 92.7614 29.8823 92.7614 29.8527 92.7614C29.7934 92.7318 29.7637 92.7021 29.7044 92.6725C29.6155 92.6132 29.5265 92.5539 29.4672 92.4946C29.3189 92.376 29.2596 92.3167 29.2596 92.3167Z" fill="#263238"/>
<path d="M29.2891 92.3759C29.2891 92.3759 29.378 92.3759 29.467 92.287C29.4967 92.2573 29.556 92.1684 29.5856 92.1091C29.6153 92.0201 29.6153 91.9311 29.556 91.8422C29.4967 91.8125 29.4373 91.8125 29.4077 91.8422C29.378 91.8718 29.3484 91.9311 29.3484 91.9608C29.3187 92.0201 29.3187 92.109 29.2891 92.1684C29.2594 92.287 29.2594 92.3463 29.2891 92.3759C29.2891 92.3463 29.2891 92.287 29.2891 92.1684C29.2891 92.109 29.3187 92.0498 29.3484 91.9904C29.378 91.9311 29.4373 91.8422 29.4967 91.8718C29.556 91.9311 29.5263 92.0201 29.5263 92.0794C29.4967 92.1387 29.467 92.198 29.4373 92.2573C29.3484 92.3463 29.2891 92.3759 29.2891 92.3759Z" fill="#263238"/>
<path d="M26.6501 88.6696C26.6501 88.6696 26.7391 88.7585 26.8281 88.9068C26.917 89.055 27.0356 89.3219 27.0356 89.6184C27.0356 89.915 26.9467 90.1522 26.8281 90.3301C26.7391 90.4783 26.6501 90.5673 26.6501 90.5673C26.6501 90.5673 26.6798 90.5377 26.7095 90.508C26.7391 90.4783 26.7984 90.419 26.8577 90.3301C26.9763 90.1818 27.0653 89.915 27.0653 89.6184C27.0653 89.3219 26.9467 89.055 26.8281 88.9068C26.7688 88.8178 26.7095 88.7585 26.6798 88.7289C26.6798 88.6696 26.6501 88.6696 26.6501 88.6696Z" fill="#263238"/>
<path d="M28.281 87.8984C28.281 87.8984 27.9548 88.106 27.599 88.4025C27.2135 88.6991 26.917 88.9363 26.9466 88.9659C26.9466 88.9659 27.2728 88.7584 27.6286 88.4618C27.9845 88.1653 28.281 87.9281 28.281 87.8984Z" fill="#263238"/>
<path d="M27.3027 90.7451C27.3027 90.7451 27.4213 90.9823 27.6289 91.2492C27.8365 91.5161 28.044 91.694 28.044 91.694C28.044 91.694 27.8661 91.4864 27.6586 91.2196C27.4806 90.9527 27.3027 90.7451 27.3027 90.7451Z" fill="#263238"/>
<path d="M26.7688 90.0928C26.7688 90.0928 26.7391 90.1521 26.7095 90.2114C26.6798 90.2707 26.6501 90.33 26.6501 90.33C26.6501 90.33 26.7095 90.3003 26.7391 90.241C26.7984 90.1817 26.7984 90.0928 26.7688 90.0928Z" fill="#263238"/>
<path d="M26.8868 89.6184C26.8868 89.6184 26.8572 89.6777 26.8572 89.737C26.8572 89.7963 26.8572 89.8556 26.8572 89.8556C26.8572 89.8556 26.8868 89.7963 26.8868 89.737C26.9165 89.6777 26.8868 89.6184 26.8868 89.6184Z" fill="#263238"/>
<path d="M26.7393 89.1735C26.7393 89.1735 26.7689 89.2328 26.7986 89.2921C26.8282 89.3514 26.8282 89.4107 26.8282 89.4107C26.8282 89.4107 26.8579 89.3514 26.8282 89.2624C26.7986 89.1735 26.7393 89.1438 26.7393 89.1735Z" fill="#263238"/>
<path d="M26.6206 88.8771C26.6206 88.8771 26.5909 88.9068 26.6206 88.9364C26.6206 88.9661 26.6503 88.9957 26.6799 88.9957C26.6799 88.9957 26.7096 88.9661 26.6799 88.9364C26.6503 88.8771 26.6206 88.8475 26.6206 88.8771Z" fill="#263238"/>
<path d="M62.0858 84.6367L62.1452 82.3831L57.9642 82.2349L57.8159 85.4966L58.0828 85.5263C59.2392 85.6449 63.9539 86.0007 64.7546 85.7931C65.6441 85.5856 62.0858 84.6367 62.0858 84.6367Z" fill="#4B71A4"/>
<g opacity="0.5">
<g opacity="0.5">
<path opacity="0.5" d="M59.3566 85.5263C59.2973 85.1704 59.1194 84.8443 58.8525 84.607C58.5857 84.3698 58.2298 84.2512 57.874 84.2512L57.8147 85.4373L59.3566 85.5263Z" fill="white"/>
</g>
</g>
<g opacity="0.4">
<g opacity="0.4">
<path opacity="0.4" d="M63.8345 85.1705C63.8345 85.1705 65.0799 85.5857 64.902 85.7932C64.7241 86.0008 59.95 85.7932 57.8447 85.5264V85.4374L63.4194 85.7043C63.4194 85.6746 63.5676 85.1705 63.8345 85.1705Z" fill="white"/>
</g>
</g>
<path d="M57.7854 85.4077C57.7854 85.4077 57.8151 85.4077 57.8447 85.4077C57.904 85.4077 57.9633 85.4077 58.0523 85.4374C58.2598 85.467 58.5267 85.467 58.8232 85.4967C59.4756 85.556 60.3651 85.5856 61.3437 85.6449C62.3222 85.6746 63.2118 85.7042 63.8641 85.7042C64.1606 85.7042 64.4275 85.7042 64.6351 85.7042C64.724 85.7042 64.7833 85.7042 64.8426 85.7042C64.9019 85.7042 64.9019 85.7042 64.9019 85.7042C64.9019 85.7042 64.8723 85.7042 64.8426 85.7042C64.7833 85.7042 64.724 85.7042 64.6351 85.7042C64.4275 85.7042 64.1606 85.7042 63.8641 85.7042C63.2118 85.7042 62.3222 85.6746 61.3437 85.6449C60.3651 85.6153 59.4756 85.556 58.8232 85.5263C58.5267 85.4967 58.2598 85.4967 58.0523 85.467C57.9633 85.467 57.904 85.467 57.8447 85.467C57.8151 85.4077 57.7854 85.4077 57.7854 85.4077Z" fill="#263238"/>
<path d="M63.4194 85.7634C63.4491 85.7634 63.4491 85.5855 63.5677 85.4076C63.6863 85.2297 63.8346 85.1407 63.8346 85.1407C63.8346 85.1407 63.6567 85.2 63.5084 85.4076C63.4194 85.5559 63.4194 85.7634 63.4194 85.7634Z" fill="#263238"/>
<path d="M62.2036 85.0815C62.2036 85.0815 62.2629 85.0222 62.3519 84.9333C62.4112 84.8443 62.4705 84.7554 62.4408 84.7554C62.4408 84.7554 62.3815 84.8147 62.2926 84.9036C62.2333 84.9926 62.2036 85.0519 62.2036 85.0815Z" fill="#263238"/>
<path d="M61.8772 84.8738C61.8772 84.8738 61.9662 84.8442 62.0255 84.7849C62.1144 84.7256 62.1441 84.6663 62.1441 84.6663C62.1441 84.6663 62.0551 84.6959 61.9958 84.7552C61.9365 84.8145 61.8772 84.8738 61.8772 84.8738Z" fill="#263238"/>
<path d="M61.6697 84.4884C61.6697 84.4884 61.7586 84.5181 61.8772 84.5181C61.9959 84.5181 62.0848 84.5181 62.0848 84.5181C62.0848 84.5181 61.9959 84.4884 61.8772 84.4884C61.7883 84.4588 61.6697 84.4588 61.6697 84.4884Z" fill="#263238"/>
<path d="M61.6104 84.1919C61.6104 84.1919 61.6993 84.2512 61.8476 84.2809C61.9958 84.3105 62.1144 84.2809 62.1144 84.2512C62.1144 84.2512 61.9958 84.2512 61.8772 84.2215C61.729 84.2215 61.6104 84.1919 61.6104 84.1919Z" fill="#263238"/>
<path d="M62.3816 84.7256C62.3816 84.7256 62.4705 84.7553 62.6485 84.7256C62.7374 84.7256 62.8264 84.696 62.945 84.6663C63.0043 84.6367 63.0636 84.6367 63.1229 84.607C63.1526 84.5774 63.1822 84.5774 63.1822 84.5181C63.1822 84.4884 63.1822 84.4291 63.1525 84.3995C62.8857 84.2512 62.6485 84.3995 62.5299 84.5181C62.4705 84.5774 62.4409 84.6367 62.4409 84.696C62.4409 84.7553 62.4409 84.7553 62.4409 84.7553C62.4409 84.7553 62.4705 84.6367 62.5595 84.5181C62.6188 84.4588 62.7078 84.3995 62.7967 84.3698C62.8857 84.3402 63.0339 84.3402 63.1229 84.3995C63.1526 84.4291 63.1525 84.4884 63.0932 84.5181C63.0339 84.5477 63.0043 84.5477 62.945 84.5774C62.856 84.607 62.7374 84.6367 62.6781 84.6367C62.4705 84.696 62.3816 84.696 62.3816 84.7256Z" fill="#263238"/>
<path d="M62.4409 84.7256C62.4409 84.7256 62.5002 84.6663 62.4706 84.5477C62.4706 84.4884 62.4409 84.4291 62.4113 84.3402C62.352 84.2809 62.3223 84.1919 62.2037 84.1919C62.1444 84.1919 62.1147 84.2809 62.1147 84.3105C62.1147 84.3698 62.1444 84.3995 62.1444 84.4291C62.1741 84.4884 62.2334 84.5477 62.263 84.607C62.352 84.696 62.4113 84.7256 62.4409 84.7256C62.4113 84.7256 62.352 84.6663 62.2927 84.5774C62.263 84.5477 62.2334 84.4884 62.1741 84.3995C62.1444 84.3402 62.1147 84.2512 62.1741 84.2215C62.2334 84.2215 62.3223 84.2809 62.352 84.3402C62.3816 84.3995 62.4113 84.4588 62.4113 84.5181C62.4706 84.6663 62.4409 84.7256 62.4409 84.7256Z" fill="#263238"/>
<path d="M57.9041 84.2809C57.9041 84.2809 58.0227 84.2809 58.2006 84.3105C58.3785 84.3402 58.6454 84.4291 58.8529 84.607C59.0605 84.785 59.2088 85.0518 59.2384 85.2297C59.2977 85.4077 59.2977 85.5263 59.2977 85.5263C59.2977 85.5263 59.2977 85.4966 59.2977 85.4373C59.2977 85.378 59.2977 85.3187 59.2681 85.2001C59.2088 85.0222 59.0901 84.7553 58.8826 84.5477C58.6454 84.3402 58.3785 84.2512 58.2006 84.2512C58.1116 84.2512 58.0227 84.2512 57.9634 84.2512C57.9337 84.2512 57.9041 84.2809 57.9041 84.2809Z" fill="#263238"/>
<path d="M58.4078 82.5315C58.4078 82.5315 58.3485 82.917 58.3485 83.3914C58.3188 83.8658 58.3188 84.2513 58.3188 84.2513C58.3188 84.2513 58.3782 83.8658 58.3782 83.3914C58.4078 82.917 58.4375 82.5315 58.4078 82.5315Z" fill="#263238"/>
<path d="M59.8909 85.1407C59.8909 85.1407 60.1577 85.2 60.5136 85.2297C60.8397 85.2594 61.1363 85.2297 61.1363 85.2001C61.1363 85.2001 60.8694 85.2 60.5136 85.1704C60.1874 85.1704 59.9205 85.1407 59.8909 85.1407Z" fill="#263238"/>
<path d="M59.0901 85.1111C59.0901 85.1111 59.1197 85.1704 59.1494 85.2297C59.179 85.289 59.179 85.3483 59.2087 85.3483C59.2087 85.3483 59.2384 85.289 59.2087 85.2C59.1494 85.1407 59.0901 85.1111 59.0901 85.1111Z" fill="#263238"/>
<path d="M58.7937 84.7255C58.7937 84.7255 58.8234 84.7848 58.853 84.8145C58.8827 84.8738 58.942 84.9034 58.942 84.8738C58.942 84.8738 58.9123 84.8145 58.8827 84.7848C58.853 84.7255 58.7937 84.6958 58.7937 84.7255Z" fill="#263238"/>
<path d="M58.3486 84.5181C58.3486 84.5181 58.4079 84.5477 58.4672 84.5477C58.5265 84.5774 58.5859 84.607 58.5859 84.607C58.5859 84.607 58.5562 84.5477 58.4969 84.5181C58.4079 84.4884 58.3486 84.5181 58.3486 84.5181Z" fill="#263238"/>
<path d="M58.0522 84.4291C58.0522 84.4291 58.0819 84.4587 58.1115 84.4884C58.1412 84.518 58.1709 84.518 58.1709 84.4884C58.1709 84.4884 58.1412 84.4587 58.1115 84.4291C58.0819 84.4291 58.0522 84.4291 58.0522 84.4291Z" fill="#263238"/>
<path d="M64.0122 28.4458C63.6267 28.3271 63.004 30.3731 62.8854 29.8394C62.7668 29.3353 63.9529 27.4672 63.5378 27.3486C63.0337 27.23 62.411 29.365 62.322 29.5132C62.2627 29.6911 61.9958 29.6022 62.0551 29.4539C62.1441 29.2167 63.1226 26.8445 62.6185 26.7259C62.3517 26.6666 62.2627 27.1707 62.2627 27.1707C62.2627 27.1707 61.5214 29.4539 61.2842 29.3946C61.047 29.3353 61.4324 27.9713 61.6104 27.5265C61.7586 27.0817 61.64 26.8149 61.3731 26.9038C61.1952 26.9631 60.6615 28.3271 60.5132 28.7719C60.365 29.2167 59.9498 30.4621 59.6533 29.6911C59.3568 28.9202 58.823 28.4458 58.6155 28.4161C58.3783 28.3864 58.2597 28.683 58.4376 28.8609C58.5858 29.0091 58.7637 29.3353 58.8823 29.5725C58.9713 29.7801 59.0603 29.9877 59.0899 30.2249C59.2085 31.0848 59.1492 31.5592 59.1492 31.5592L55.0869 39.9805L47.6441 37.6676L46.9028 41.8782C46.9028 41.8782 56.7177 45.5255 57.2811 45.14C58.5858 44.3394 62.1144 32.2116 62.1144 32.2116C62.7075 31.322 63.4191 30.1952 63.7157 29.6022C64.2494 28.5347 64.1605 28.4754 64.0122 28.4458Z" fill="#B78876"/>
<path d="M25.9387 56.9119C25.7607 56.7933 25.5532 56.4968 25.4049 56.2892C25.2863 56.1113 25.1677 55.9038 25.1381 55.6962C25.0194 55.2811 24.9601 54.9549 24.9305 54.7177C24.9305 54.7177 27.4806 47.097 28.1626 45.911C28.8446 44.7249 38.1554 41.3742 38.1554 41.3742L36.999 36.7188C36.999 36.7188 28.4591 40.1584 25.1974 42.7085C23.1217 44.3394 21.6391 54.5101 21.6391 54.5101C21.224 55.3997 20.7792 56.3782 20.6013 56.9119C20.2158 58.0684 20.3344 58.1277 20.4826 58.1277C20.8681 58.187 21.224 56.0817 21.4019 56.5858C21.5798 57.0899 20.6902 59.0766 21.0757 59.1359C21.6094 59.1952 21.9356 57.0009 21.9653 56.823C21.9949 56.6451 22.2618 56.7044 22.2321 56.8526C22.1728 57.0899 21.5205 59.5806 22.0542 59.64C22.3507 59.6696 22.3507 59.1359 22.3507 59.1359C22.3507 59.1359 22.7659 56.7637 23.0327 56.7933C23.27 56.823 23.092 58.2166 22.9734 58.6911C22.8845 59.1655 23.0624 59.4027 23.2996 59.2545C23.4775 59.1655 23.8037 57.7422 23.8927 57.2678C23.9816 56.7933 24.2188 55.5183 24.6043 56.2299C25.0194 56.9416 25.5828 57.3567 25.8201 57.3567C26.0573 57.3864 26.1462 57.0602 25.9387 56.9119Z" fill="#B78876"/>
<path d="M26.3538 87.869L30.5644 92.5837L43.8486 79.1512C45.4795 77.4907 46.458 75.326 46.5766 73.0132L47.14 62.5163L38.5112 57.2382L39.1932 71.9457C39.2821 73.5469 38.6891 75.0888 37.5623 76.2453L26.3538 87.869Z" fill="#263238"/>
<path d="M36.7915 57.6235C36.7025 57.7422 36.406 64.4139 41.773 65.2442C42.0992 65.3035 44.0266 65.4814 44.0266 65.4814C50.1053 65.4221 58.2893 65.2145 58.2893 65.2145L56.9253 83.8658L63.3599 83.8955L65.3169 63.9691C65.7617 58.4538 61.0767 57.5049 58.5266 57.4456L46.1912 57.327L36.7915 57.6235Z" fill="#263238"/>
<path d="M43.0779 57.6237C43.1076 57.6237 43.0779 57.8609 42.9297 58.2167C42.7814 58.5725 42.4256 59.0173 41.8918 59.3138C41.3581 59.5807 40.7947 59.6104 40.4092 59.5511C40.0237 59.4917 39.8162 59.3435 39.8162 59.3435C39.8162 59.3138 40.0534 59.4028 40.4092 59.4324C40.765 59.4621 41.2988 59.4324 41.8029 59.1656C42.307 58.8987 42.6331 58.4836 42.811 58.1574C42.989 57.8609 43.0483 57.6237 43.0779 57.6237Z" fill="#455A64"/>
<path d="M59.9502 63.999C59.9799 64.0286 59.6241 64.3251 59.1793 64.6513C58.7345 64.9775 58.349 65.2147 58.3194 65.185C58.2897 65.1554 58.6455 64.8589 59.0903 64.5327C59.5351 64.1769 59.9206 63.9396 59.9502 63.999Z" fill="#455A64"/>
<path d="M60.2171 65.0959C60.2171 65.1256 59.8019 65.2145 59.2385 65.2738C58.7048 65.3331 58.26 65.3331 58.26 65.3035C58.26 65.2738 58.6751 65.1849 59.2385 65.1256C59.7723 65.0663 60.2171 65.0366 60.2171 65.0959Z" fill="#455A64"/>
<path d="M39.8159 38.2606C41.0909 38.2606 42.1288 37.2228 42.0695 35.9477C42.0398 34.732 41.9805 33.4866 41.9805 33.4866C41.9805 33.4866 43.819 33.1901 43.819 31.3516C43.819 29.5132 43.4631 25.2729 43.4631 25.2729C41.3282 24.3833 38.867 24.7095 37.0286 26.1625L36.7617 26.37L37.5623 36.1849C37.6809 37.3414 38.6298 38.2309 39.8159 38.2606Z" fill="#B78876"/>
<path d="M42.8106 28.5347C42.692 28.4457 42.692 28.2678 42.7809 28.1492C42.8699 28.0306 43.0478 28.0306 43.1664 28.1196C43.285 28.2085 43.285 28.3864 43.1961 28.505C43.1071 28.6236 42.9292 28.6237 42.8106 28.5347Z" fill="#263238"/>
<path d="M43.5226 28.1789C43.4929 28.2085 43.315 28.0602 43.0482 28.0899C42.7813 28.0899 42.6034 28.2382 42.5737 28.1789C42.5737 28.1789 42.5737 28.1196 42.6627 28.0306C42.7516 27.9713 42.8703 27.912 43.0482 27.912C43.1964 27.912 43.3447 27.9713 43.4336 28.0306C43.493 28.0899 43.5226 28.1492 43.5226 28.1789Z" fill="#263238"/>
<path d="M40.4087 28.3568C40.5273 28.4458 40.5866 28.594 40.4976 28.7126C40.4087 28.8312 40.2604 28.8905 40.1418 28.8016C40.0232 28.7126 39.9639 28.5644 40.0528 28.4458C40.1121 28.3271 40.2604 28.2678 40.4087 28.3568Z" fill="#263238"/>
<path d="M40.7645 28.4162C40.7349 28.4458 40.557 28.2976 40.2901 28.3272C40.0232 28.3272 39.8453 28.4755 39.8157 28.4162C39.8157 28.4162 39.8157 28.3569 39.9046 28.2679C39.9936 28.2086 40.1122 28.1493 40.2901 28.1493C40.4384 28.1493 40.5866 28.2086 40.6756 28.2679C40.7349 28.3569 40.7645 28.4162 40.7645 28.4162Z" fill="#263238"/>
<path d="M41.8025 30.3139C41.8025 30.2842 41.9507 30.2546 42.2176 30.2249C42.2769 30.2249 42.3362 30.1953 42.3362 30.1656C42.3362 30.136 42.3065 30.047 42.2769 29.9877C42.2176 29.8098 42.1286 29.6615 42.0693 29.4836C41.7728 28.7423 41.5949 28.1493 41.6245 28.1196C41.6542 28.1196 41.9211 28.683 42.2176 29.4243C42.2769 29.6022 42.3362 29.7802 42.4252 29.9284C42.4548 30.0174 42.4845 30.1063 42.4548 30.1953C42.4252 30.2546 42.3955 30.2842 42.3362 30.3139C42.3065 30.3139 42.2472 30.3139 42.2176 30.3436C41.9507 30.3436 41.8025 30.3435 41.8025 30.3139Z" fill="#263238"/>
<path d="M40.9727 30.6104C41.1209 30.6697 41.714 30.9958 42.2181 30.9662C42.2181 30.9662 41.9215 31.4406 41.3878 31.2627C40.854 31.0551 40.9727 30.6104 40.9727 30.6104Z" fill="white"/>
<path d="M41.9804 33.4273C41.9804 33.4273 40.824 33.5459 39.5786 32.7749C39.5786 32.7749 40.1717 34.1093 42.0101 33.9017L41.9804 33.4273Z" fill="#A36957"/>
<path d="M36.5542 28.001C36.6728 27.6452 36.5839 27.2597 36.4949 26.9039C36.406 26.5481 36.2874 26.1922 36.2874 25.8364C36.317 25.4806 36.4949 25.0951 36.8507 24.9765C37.088 24.8875 37.3845 24.9468 37.6217 24.8875C37.8886 24.8282 38.0665 24.6207 38.2741 24.4131C39.0154 23.7311 39.9346 23.2567 40.9131 23.0787C41.2096 23.0194 41.5062 22.9898 41.773 23.138C42.0399 23.2567 42.2475 23.5828 42.1288 23.8497C42.4847 23.6421 42.8702 23.4346 43.3149 23.3753C43.7301 23.316 44.2045 23.4346 44.4417 23.82C44.6789 24.1759 44.5307 24.7689 44.1155 24.8579C44.59 24.9172 44.9162 25.4806 44.7976 25.955C44.6789 26.4294 44.2342 26.7853 43.7597 26.8742C43.2853 26.9632 42.7812 26.8742 42.3364 26.6963C41.8916 26.5184 41.4468 26.2812 41.0021 26.1033C40.7352 26.5184 40.1718 26.6963 39.6677 26.6963C39.1636 26.6667 38.6892 26.4591 38.2148 26.2812C38.2444 26.8149 38.3037 27.3783 38.0961 27.8528C38.0072 28.0603 37.8886 28.2382 37.8293 28.4458C37.7403 28.7423 37.7996 29.0388 37.77 29.3354C37.7403 29.6319 37.5921 29.9581 37.2955 29.9877C37.0287 30.0174 36.7914 29.8098 36.7025 29.5726C36.6135 29.3354 36.6432 29.0388 36.6432 28.772C36.6728 28.4458 36.4356 28.2382 36.5542 28.001Z" fill="#263238"/>
<path d="M37.0284 28.594C37.0284 28.4458 36.8801 28.3271 36.7319 28.3271C36.376 28.3568 35.8423 28.5051 35.8423 29.4539C35.8719 30.8179 37.147 30.3732 37.147 30.3435C37.1766 30.3139 37.058 29.0981 37.0284 28.594Z" fill="#B78876"/>
<path d="M36.8205 29.8395C36.8205 29.8395 36.7908 29.8691 36.7611 29.8691C36.7315 29.8988 36.6425 29.8988 36.5832 29.8691C36.435 29.8098 36.3164 29.6022 36.3164 29.3354C36.3164 29.2168 36.346 29.0981 36.3757 29.0092C36.4053 28.9202 36.4646 28.8313 36.5536 28.8313C36.6129 28.8016 36.6722 28.8609 36.7018 28.8906C36.7315 28.9202 36.7018 28.9499 36.7315 28.9499C36.7315 28.9499 36.7611 28.9202 36.7611 28.8609C36.7611 28.8313 36.7315 28.8016 36.7018 28.772C36.6425 28.8016 36.5832 28.772 36.5239 28.772C36.4053 28.772 36.3164 28.8906 36.2867 28.9795C36.2274 29.0981 36.1978 29.2168 36.1978 29.365C36.1978 29.6319 36.346 29.8988 36.5536 29.9581C36.6425 29.9877 36.7315 29.9581 36.7611 29.9284C36.8205 29.8691 36.8205 29.8395 36.8205 29.8395Z" fill="#A36957"/>
<path d="M40.7054 27.4376C40.7054 27.4672 40.4089 27.4672 40.0827 27.5562C39.7565 27.6451 39.4897 27.7934 39.46 27.7341C39.4304 27.7044 39.6676 27.4969 40.0234 27.4079C40.4089 27.3189 40.7351 27.4079 40.7054 27.4376Z" fill="#263238"/>
<path d="M41.4468 32.6267C41.4171 32.6267 41.3875 32.4487 41.3875 32.2115C41.3875 31.9743 41.4468 31.7964 41.4764 31.7964C41.5061 31.7964 41.5357 31.9743 41.5357 32.2115C41.5357 32.4487 41.5061 32.6267 41.4468 32.6267Z" fill="#263238"/>
<path d="M41.8321 32.4785C41.8025 32.4785 41.7432 32.3302 41.7432 32.1227C41.7432 31.9151 41.7728 31.7668 41.8321 31.7668C41.8618 31.7668 41.9211 31.9151 41.9211 32.1227C41.8914 32.3302 41.8618 32.4785 41.8321 32.4785Z" fill="#263238"/>
<path d="M42.2179 32.3895C42.1882 32.3895 42.1289 32.2709 42.1289 32.093C42.1289 31.9151 42.1289 31.7668 42.1882 31.7668C42.2179 31.7668 42.2772 31.8855 42.2772 32.0634C42.3068 32.2413 42.2772 32.3895 42.2179 32.3895Z" fill="#263238"/>
<path d="M52.1512 38.8539C50.0756 37.9643 48.593 37.4602 47.4662 36.8375C43.9079 34.9101 43.048 35.4439 42.2177 35.4142C40.6758 36.0073 39.1339 36.1259 37.5327 35.7404C35.457 35.9776 34.2709 36.9561 31.958 37.8753L27.3323 40.3661L30.6533 44.9919L34.9233 43.5686C35.2791 45.3477 35.368 46.771 35.6053 48.9356L36.05 57.6534L48.9784 57.4458L47.6737 49.1432L46.9028 42.5901L50.6983 44.1616L52.1512 38.8539Z" fill="#4B71A4"/>
<g opacity="0.4">
<path opacity="0.4" d="M47.644 36.8969C47.644 36.8969 47.644 36.8969 47.6736 36.9265C47.7033 36.9562 47.7329 36.9858 47.7626 37.0451C47.8219 37.1637 47.8219 37.3713 47.7329 37.5789C47.6143 37.7864 47.4067 38.0236 47.1102 38.1422C46.784 38.2609 46.3986 38.2609 46.0131 38.2905C45.8055 38.3202 45.598 38.3202 45.3904 38.3795C45.1828 38.4388 44.9753 38.5574 44.7973 38.676C44.4119 38.9429 44.0857 39.358 43.6706 39.7138C43.463 39.8917 43.2258 40.0696 42.9589 40.1883C42.692 40.3069 42.3659 40.3365 42.0693 40.2772C41.4466 40.1586 40.9425 39.8028 40.3792 39.5359C39.8158 39.269 39.1931 39.2394 38.6297 39.2987C38.0366 39.358 37.5029 39.5062 36.9691 39.6249C36.4354 39.7435 35.9313 39.8324 35.4272 39.8324C34.9231 39.8324 34.4784 39.7435 34.0929 39.5656C33.7074 39.358 33.4405 39.0615 33.2923 38.7946C33.144 38.4981 33.0847 38.2015 33.1143 37.9643C33.144 37.7271 33.233 37.5492 33.2923 37.4602C33.3812 37.3713 33.4109 37.312 33.4109 37.312C33.4405 37.312 33.2033 37.4899 33.1737 37.9643C33.1737 38.2015 33.233 38.4684 33.3812 38.7353C33.5295 39.0022 33.7963 39.2987 34.1522 39.4766C34.508 39.6545 34.9528 39.7138 35.4272 39.7138C35.9017 39.7138 36.4057 39.5952 36.9395 39.4766C37.4732 39.358 38.0366 39.2097 38.6297 39.1504C39.2227 39.0911 39.8751 39.1208 40.4681 39.3876C41.0612 39.6545 41.5652 40.0103 42.1286 40.0993C42.3955 40.1586 42.692 40.1289 42.9292 40.0103C43.1961 39.9214 43.4037 39.7435 43.6112 39.5656C44.0264 39.2097 44.3526 38.8242 44.7677 38.5277C44.9753 38.3795 45.1828 38.2905 45.42 38.2016C45.6573 38.1422 45.8648 38.1126 46.0724 38.1126C46.4875 38.0829 46.8433 38.0829 47.1695 37.994C47.466 37.8754 47.6736 37.6678 47.7626 37.4899C47.8812 37.2823 47.8812 37.1044 47.8219 36.9858C47.6736 36.9562 47.644 36.8969 47.644 36.8969Z" fill="black"/>
</g>
<g opacity="0.4">
<path opacity="0.4" d="M46.6661 42.9757C46.6661 42.9757 46.6365 43.035 46.5475 43.1536C46.4585 43.2722 46.3103 43.4204 46.1027 43.5687C45.8951 43.717 45.5986 43.8652 45.2131 43.9542C44.8573 44.0431 44.3829 44.0728 43.9381 43.9245C43.4637 43.7763 43.0189 43.5094 42.5148 43.3908C41.981 43.2722 41.4177 43.4501 40.8543 43.7466C40.3205 44.0135 39.7275 44.399 39.0455 44.5472C38.3635 44.6955 37.6222 44.6658 36.9402 44.4583C36.5843 44.3397 36.2582 44.1914 35.9616 43.9838C35.6651 43.7763 35.3982 43.5687 35.1314 43.3611C34.8645 43.1536 34.5976 42.9756 34.3011 42.857C34.0046 42.7384 33.7081 42.6495 33.4115 42.6198C32.7888 42.5309 32.1958 42.5605 31.6621 42.5309C31.0987 42.5012 30.5649 42.4419 30.1201 42.264C29.6754 42.0861 29.2899 41.8192 29.0823 41.493C28.8747 41.1669 28.7561 40.8407 28.7561 40.5738C28.7265 40.3069 28.8154 40.0994 28.8747 39.9808C28.934 39.8622 28.9934 39.8029 28.9934 39.8029C28.9934 39.8029 28.9637 39.8622 28.9044 40.0104C28.8451 40.129 28.8154 40.3366 28.8154 40.6035C28.8451 40.8703 28.934 41.1669 29.1713 41.4634C29.3788 41.7599 29.7347 42.0268 30.1794 42.175C30.6242 42.3233 31.1283 42.3826 31.6917 42.4123C32.2551 42.4123 32.8481 42.3826 33.4708 42.4716C33.797 42.5012 34.0935 42.5902 34.4197 42.7088C34.7162 42.8274 35.0128 43.035 35.2796 43.2425C35.5465 43.4501 35.8134 43.6577 36.1099 43.8652C36.4064 44.0431 36.7029 44.221 37.0588 44.31C37.7408 44.5176 38.4524 44.5472 39.1048 44.399C39.7571 44.2507 40.3205 43.8949 40.8839 43.628C41.1508 43.4797 41.4473 43.3611 41.7438 43.3018C42.0403 43.2425 42.3369 43.2129 42.6334 43.3018C43.1968 43.4501 43.6416 43.717 44.0864 43.8652C44.5311 44.0135 44.9463 44.0135 45.3318 43.9245C45.6876 43.8356 45.9841 43.717 46.1917 43.5687C46.4882 43.2425 46.6365 42.9757 46.6661 42.9757Z" fill="black"/>
</g>
<g opacity="0.4">
<path opacity="0.4" d="M51.3807 41.0186C51.3807 41.0482 51.1435 41.0779 50.7877 41.2854C50.4318 41.4633 50.0167 41.8488 49.5423 42.2343C49.0678 42.6494 48.5341 42.9163 48.1189 42.9756C47.7038 43.0349 47.4369 42.946 47.4666 42.9163C47.4666 42.8866 47.7335 42.946 48.1189 42.857C48.5044 42.768 48.9789 42.5012 49.4533 42.086C49.9277 41.6709 50.3725 41.3151 50.758 41.1372C51.1138 41.0186 51.3807 41.0186 51.3807 41.0186Z" fill="black"/>
</g>
<g opacity="0.4">
<path opacity="0.4" d="M47.0807 48.2537C47.0807 48.2537 47.0807 48.313 47.0214 48.3723C46.9917 48.4613 46.9028 48.5502 46.7842 48.6392C46.5173 48.8468 46.0132 48.9654 45.4498 48.7875C44.8864 48.6392 44.2934 48.2537 43.5521 48.2241C42.8108 48.1648 42.0102 48.3427 41.1799 48.5799C40.3496 48.8171 39.5787 49.1136 38.8077 49.2026C38.0664 49.3212 37.3548 49.2322 36.821 48.995C36.2873 48.7578 35.9315 48.4316 35.7535 48.1648C35.6646 48.0461 35.6053 47.9275 35.5756 47.8386C35.546 47.7496 35.5163 47.72 35.546 47.72C35.5756 47.72 35.6349 47.8682 35.8128 48.1351C35.9908 48.3723 36.3466 48.6985 36.8803 48.9061C37.3844 49.1136 38.0664 49.2026 38.8077 49.084C39.549 48.9654 40.32 48.6985 41.1503 48.4613C41.9805 48.2241 42.8108 48.0461 43.5817 48.1054C43.9672 48.1351 44.323 48.2537 44.6196 48.3723C44.9161 48.4909 45.2126 48.6392 45.4795 48.6985C46.0132 48.8764 46.4877 48.7578 46.7545 48.6095C47.0214 48.4316 47.0807 48.2537 47.0807 48.2537Z" fill="black"/>
</g>
<g opacity="0.4">
<path opacity="0.4" d="M48.3856 53.5317C48.3856 53.5317 48.3856 53.591 48.3856 53.68C48.3559 53.7689 48.3263 53.9172 48.2077 54.0358C48.0001 54.3027 47.496 54.5992 46.8437 54.5399C46.5175 54.5102 46.1913 54.3916 45.8651 54.273C45.5093 54.1544 45.1535 54.0062 44.768 53.9765C43.9674 53.8579 43.1075 54.1544 42.2179 54.4509C41.7731 54.5992 41.3283 54.7771 40.9132 54.8661C40.4684 54.9847 40.0533 55.0143 39.6382 55.0143C38.8079 55.0143 38.0666 54.8068 37.5032 54.5399C36.9398 54.273 36.5247 53.9765 36.2578 53.7393C36.1392 53.6207 36.0206 53.5317 35.9613 53.4724C35.902 53.4131 35.8723 53.3835 35.8723 53.3538C35.902 53.3242 36.4061 53.9469 37.5328 54.4213C38.0962 54.6585 38.8079 54.8364 39.6085 54.8364C40.0236 54.8364 40.4388 54.7771 40.8539 54.6882C41.269 54.5695 41.7138 54.4213 42.1586 54.273C43.0482 53.9469 43.9377 53.68 44.768 53.7986C45.1831 53.8579 45.5686 54.0062 45.8948 54.1248C46.221 54.2434 46.5471 54.362 46.8437 54.3916C47.4367 54.4806 47.9408 54.2137 48.1484 53.9765C48.3856 53.7393 48.3559 53.5317 48.3856 53.5317Z" fill="black"/>
</g>
<g opacity="0.4">
<path opacity="0.4" d="M38.1853 42.7681C38.1557 42.7978 37.9185 42.4716 37.6219 42.1158C37.3254 41.7599 37.0585 41.4634 37.0882 41.4338C37.1178 41.4041 37.4144 41.6413 37.7405 42.0268C38.0667 42.3826 38.2446 42.7385 38.1853 42.7681Z" fill="black"/>
</g>
<g opacity="0.4">
<path opacity="0.4" d="M45.6573 40.8405C45.687 40.8702 45.4498 41.1963 45.0939 41.5522C44.7677 41.908 44.4416 42.1749 44.4119 42.1452C44.3823 42.1156 44.6195 41.7894 44.9753 41.4336C45.3311 41.0777 45.6277 40.8109 45.6573 40.8405Z" fill="black"/>
</g>
<g opacity="0.4">
<path opacity="0.4" d="M49.8386 40.4254C49.809 40.455 49.5421 40.2771 49.2159 40.0399C48.8898 39.8027 48.6525 39.5655 48.6822 39.5358C48.7118 39.5062 48.9787 39.6841 49.3049 39.9213C49.6311 40.1585 49.8683 40.3957 49.8386 40.4254Z" fill="black"/>
</g>
<g opacity="0.4">
<path opacity="0.4" d="M31.2466 39.5062C31.2762 39.5062 31.3059 39.8324 31.1576 40.1882C31.039 40.5441 30.8315 40.7813 30.7721 40.7516C30.7425 40.722 30.8908 40.4551 31.0094 40.1289C31.1576 39.7731 31.2169 39.5062 31.2466 39.5062Z" fill="black"/>
</g>
<g opacity="0.4">
<path opacity="0.4" d="M38.4221 52.909C38.3925 52.9387 38.1256 52.6718 37.8587 52.316C37.5919 51.9601 37.3843 51.6636 37.414 51.634C37.4436 51.6043 37.7105 51.8712 37.9774 52.227C38.2442 52.5532 38.4518 52.8794 38.4221 52.909Z" fill="black"/>
</g>
<g opacity="0.4">
<path opacity="0.4" d="M42.129 51.2188C42.1586 51.2485 41.8918 51.545 41.5359 51.9008C41.1801 52.2566 40.8539 52.4939 40.8243 52.4642C40.7946 52.4345 41.0615 52.138 41.4173 51.7822C41.7731 51.4264 42.0993 51.1892 42.129 51.2188Z" fill="black"/>
</g>
<g opacity="0.4">
<path opacity="0.4" d="M46.7248 52.4345C46.6951 52.4641 46.369 52.2862 46.0131 51.9897C45.6276 51.7228 45.3608 51.456 45.3904 51.4263C45.4201 51.3967 45.7463 51.5746 46.1021 51.8711C46.4579 52.1676 46.7544 52.4048 46.7248 52.4345Z" fill="black"/>
</g>
<g opacity="0.4">
<path opacity="0.4" d="M39.4307 46.0297C39.4603 46.0593 39.0748 46.3262 38.6004 46.5931C38.126 46.8599 37.7108 47.0675 37.7108 47.0379C37.6812 47.0082 38.0667 46.7413 38.5411 46.4745C39.0155 46.2076 39.401 46 39.4307 46.0297Z" fill="black"/>
</g>
<g opacity="0.4">
<path opacity="0.4" d="M43.4927 46.3856C43.4927 46.4153 43.1369 46.356 42.7811 46.0891C42.4549 45.8222 42.3363 45.4664 42.366 45.4367C42.3956 45.4071 42.5735 45.7036 42.8701 45.9705C43.1962 46.2077 43.4927 46.3263 43.4927 46.3856Z" fill="black"/>
</g>
<g opacity="0.4">
<path opacity="0.4" d="M37.9185 37.2231C37.9481 37.2527 37.6516 37.4307 37.3254 37.5789C36.9696 37.7272 36.6731 37.8458 36.6434 37.7865C36.6138 37.7568 36.9103 37.5789 37.2365 37.4307C37.6219 37.2824 37.9185 37.1934 37.9185 37.2231Z" fill="black"/>
</g>
<g opacity="0.4">
<path opacity="0.4" d="M42.0991 37.9347C42.0694 37.9643 41.7432 37.8457 41.3578 37.6381C40.9723 37.4306 40.6758 37.2527 40.7054 37.1934C40.7351 37.1637 41.0612 37.2823 41.4467 37.4899C41.8322 37.6974 42.1287 37.8754 42.0991 37.9347Z" fill="black"/>
</g>
<g opacity="0.4">
<path opacity="0.4" d="M45.6275 36.7486C45.6275 36.7782 45.331 36.8672 44.9455 36.8968C44.5601 36.9265 44.2339 36.9265 44.2339 36.8968C44.2339 36.8672 44.5304 36.7782 44.9159 36.7486C45.3014 36.6893 45.6275 36.6893 45.6275 36.7486Z" fill="black"/>
</g>
<g opacity="0.4">
<path opacity="0.4" d="M38.7187 56.7935C38.689 56.8231 38.4222 56.6749 38.096 56.4377C37.7698 56.2004 37.5623 55.9929 37.5623 55.9336C37.5919 55.9039 37.8588 56.0522 38.185 56.2894C38.5111 56.5563 38.7483 56.7638 38.7187 56.7935Z" fill="black"/>
</g>
<g opacity="0.4">
<path opacity="0.4" d="M44.2341 55.8744C44.2637 55.904 44.0562 56.2005 43.7004 56.4377C43.3445 56.675 42.9887 56.7936 42.9887 56.7343C42.959 56.7046 43.2852 56.5267 43.6114 56.2895C43.9376 56.0819 44.1748 55.8447 44.2341 55.8744Z" fill="black"/>
</g>
<g opacity="0.4">
<path opacity="0.4" d="M47.822 57.001C47.7923 57.0307 47.4958 56.9121 47.1103 56.7341C46.7545 56.5562 46.458 56.3783 46.4876 56.3487C46.5173 56.319 46.8138 56.4376 47.1993 56.6155C47.5551 56.7638 47.8516 56.9417 47.822 57.001Z" fill="black"/>
</g>
<path d="M60.7803 63.643C60.7803 63.643 60.6913 63.6727 60.5431 63.6727C60.3948 63.7023 60.1576 63.7023 59.8907 63.732C59.3273 63.7616 58.497 63.7913 57.4592 63.8506C55.4132 63.9099 52.5666 63.9989 49.4531 63.9989C47.8815 63.9989 46.3989 63.9989 45.0349 63.9395C43.6709 63.8802 42.4552 63.4058 41.6249 62.8128C40.765 62.2197 40.2609 61.5081 40.0237 61.004C39.7568 60.4999 39.6975 60.1737 39.6975 60.1737C39.7272 60.1737 39.8161 60.4702 40.083 60.9743C40.3499 61.4784 40.8539 62.1604 41.7139 62.7238C42.5441 63.2872 43.7302 63.732 45.0646 63.7913C46.4286 63.8506 47.9112 63.8506 49.4828 63.8506C52.6259 63.8209 55.4429 63.7913 57.4889 63.732C58.497 63.7023 59.3273 63.7023 59.9204 63.6727C60.1872 63.6727 60.4244 63.6727 60.5727 63.643C60.6913 63.643 60.7803 63.643 60.7803 63.643Z" fill="#455A64"/>
</svg>
