<svg width="40" height="38" viewBox="0 0 40 38" fill="none" xmlns="http://www.w3.org/2000/svg">
<path d="M9.3387 16.6249V19.6001C9.33906 19.8208 9.26778 20.0358 9.13535 20.2135C9.00292 20.3911 8.81633 20.5221 8.60304 20.587L4.03578 21.9767C3.60935 22.1069 3.23634 22.3688 2.97152 22.7241C2.7067 23.0793 2.56403 23.5092 2.56445 23.9506V31.4476C2.56445 32.131 2.83893 32.7864 3.3275 33.2696C3.81607 33.7529 4.47871 34.0244 5.16966 34.0244H20.1514V16.6249H9.3387Z" fill="#DED2FF"/>
<path d="M12.9862 24.3516C11.7855 24.3491 10.6048 24.0482 9.55232 23.4766C8.49989 22.905 7.60952 22.0811 6.963 21.0804L4.03577 21.9713C3.60935 22.1014 3.23634 22.3634 2.97152 22.7186C2.7067 23.0739 2.56403 23.5038 2.56445 23.9452V31.4422C2.56445 32.1256 2.83893 32.781 3.3275 33.2642C3.81607 33.7475 4.47871 34.0189 5.16965 34.0189H20.1514V17.2682C20.1449 19.1455 19.3878 20.944 18.0454 22.2711C16.7029 23.5982 14.8842 24.3462 12.9862 24.3516Z" fill="#6C49CF"/>
<path d="M18.846 12.1103H18.4233L18.1938 7.60095H7.77937L7.54988 12.1103H7.12807C6.86897 12.1103 6.62048 12.2121 6.43726 12.3933C6.25405 12.5745 6.15112 12.8203 6.15112 13.0766V14.365C6.15112 14.6212 6.25405 14.867 6.43726 15.0482C6.62048 15.2294 6.86897 15.3312 7.12807 15.3312H8.07146L8.17759 15.9853C8.25831 16.4769 8.51605 16.923 8.90327 17.2414L10.9951 18.9649C11.2752 19.196 11.6281 19.3229 11.9929 19.3238H13.9885C14.3532 19.3229 14.7062 19.196 14.9863 18.9649L17.0781 17.2414C17.4653 16.923 17.7231 16.4769 17.8038 15.9853L17.9099 15.3312H18.846C19.1051 15.3312 19.3536 15.2294 19.5368 15.0482C19.7201 14.867 19.823 14.6212 19.823 14.365V13.0766C19.823 12.8203 19.7201 12.5745 19.5368 12.3933C19.3536 12.2121 19.1051 12.1103 18.846 12.1103Z" fill="#DED2FF"/>
<path d="M20.8027 7.4717C20.8021 7.13285 20.6886 6.80363 20.4799 6.53491C20.2712 6.2662 19.9788 6.07296 19.648 5.98504C19.7442 5.75046 19.7806 5.49604 19.7538 5.24427C19.727 4.9925 19.638 4.75112 19.4945 4.54147C19.3511 4.33182 19.1576 4.16034 18.9312 4.04219C18.7049 3.92404 18.4525 3.86286 18.1966 3.86405C18.1648 3.86405 18.1349 3.87123 18.1059 3.87303C18.0005 3.57003 17.8022 3.30706 17.5387 3.1207C17.2751 2.93433 16.9594 2.83383 16.6355 2.83317C16.473 2.83412 16.3119 2.8614 16.1583 2.91392C15.9445 2.67471 15.6692 2.49726 15.3615 2.40042C15.0539 2.30359 14.7255 2.29098 14.4113 2.36393C14.0274 2.00313 13.518 1.80194 12.9885 1.80194C12.4589 1.80194 11.9496 2.00313 11.5657 2.36393C11.2687 2.295 10.959 2.30198 10.6655 2.38424C10.3721 2.46649 10.1047 2.6213 9.88844 2.83407H9.86213C9.53816 2.83472 9.22246 2.93522 8.95892 3.12159C8.69539 3.30796 8.49713 3.57093 8.39172 3.87392C8.35997 3.87392 8.33094 3.86495 8.30101 3.86495C8.04506 3.86376 7.79275 3.92494 7.56638 4.04309C7.34 4.16124 7.14654 4.33271 7.00308 4.54237C6.85961 4.75202 6.77057 4.9934 6.74381 5.24517C6.71705 5.49694 6.75339 5.75136 6.84964 5.98594C6.59146 6.05291 6.35513 6.18468 6.16354 6.36849C5.97195 6.55231 5.83159 6.78193 5.75605 7.03514C5.68051 7.28835 5.67234 7.55656 5.73235 7.8138C5.79235 8.07104 5.9185 8.30861 6.09856 8.50349C5.94126 8.67285 5.82472 8.87521 5.75766 9.09542C5.6906 9.31563 5.67476 9.54798 5.71132 9.7751C5.74787 10.0022 5.83588 10.2182 5.96876 10.4069C6.10164 10.5957 6.27594 10.7522 6.47864 10.8649C6.48923 11.1986 6.63057 11.5152 6.87279 11.7477C7.11501 11.9803 7.43914 12.1106 7.7767 12.1111H8.34636C8.46974 12.1111 8.58911 12.0678 8.68328 11.989C8.77744 11.9101 8.8403 11.8008 8.86069 11.6805L9.22353 9.52271C9.26254 9.52271 9.29973 9.53437 9.33964 9.53437C9.59783 9.5344 9.85198 9.47105 10.0793 9.35001C10.3067 9.22897 10.5001 9.05401 10.6422 8.84083C10.7845 9.05386 10.978 9.22868 11.2053 9.34962C11.4326 9.47057 11.6867 9.53388 11.9448 9.53388C12.203 9.53388 12.4571 9.47057 12.6844 9.34962C12.9117 9.22868 13.1052 9.05386 13.2474 8.84083C13.3897 9.05386 13.5832 9.22868 13.8105 9.34962C14.0378 9.47057 14.2919 9.53388 14.55 9.53388C14.8082 9.53388 15.0623 9.47057 15.2896 9.34962C15.5169 9.22868 15.7104 9.05386 15.8526 8.84083C15.9948 9.05401 16.1882 9.22897 16.4156 9.35001C16.6429 9.47105 16.8971 9.5344 17.1552 9.53437C17.1952 9.53437 17.2323 9.5254 17.2714 9.52271L17.6342 11.6805C17.6544 11.8009 17.7172 11.9103 17.8114 11.9892C17.9056 12.0681 18.0251 12.1113 18.1485 12.1111H18.8479C19.1934 12.1111 19.5247 11.9754 19.769 11.7338C20.0133 11.4922 20.1505 11.1645 20.1505 10.8228C20.1505 10.8093 20.1505 10.7967 20.1505 10.7842C20.3302 10.6594 20.481 10.4981 20.5926 10.3111C20.7042 10.1241 20.7742 9.91566 20.7978 9.69974C20.8214 9.48383 20.7981 9.26541 20.7295 9.05911C20.6609 8.85281 20.5485 8.66338 20.4 8.50349C20.6592 8.22105 20.8028 7.8532 20.8027 7.4717Z" fill="#6C49CF"/>
<path d="M11.6836 30.7935H13.6375C14.1557 30.7935 14.6527 30.9971 15.0191 31.3596C15.3855 31.722 15.5914 32.2136 15.5914 32.7261V34.0145H11.6836V30.7935Z" fill="#DED2FF"/>
<path d="M36.4357 29.5042H16.8985C16.3803 29.5042 15.8833 29.3006 15.5169 28.9382C15.1504 28.5757 14.9446 28.0842 14.9446 27.5716V15.9753C14.9446 15.4627 15.1504 14.9712 15.5169 14.6088C15.8833 14.2463 16.3803 14.0427 16.8985 14.0427H36.4393C36.9575 14.0427 37.4545 14.2463 37.8209 14.6088C38.1874 14.9712 38.3932 15.4627 38.3932 15.9753V27.5716C38.3932 27.8257 38.3425 28.0773 38.2441 28.312C38.1457 28.5467 38.0015 28.7599 37.8196 28.9394C37.6378 29.1189 37.422 29.2612 37.1845 29.3581C36.947 29.455 36.6926 29.5047 36.4357 29.5042Z" fill="#DED2FF"/>
<path d="M30.573 34.0144L29.421 25.4686C29.3792 25.159 29.2252 24.8751 28.9876 24.6694C28.75 24.4638 28.445 24.3505 28.1293 24.3506H25.1994C24.8836 24.3505 24.5786 24.4638 24.341 24.6694C24.1034 24.8751 23.9494 25.159 23.9076 25.4686L22.7556 34.0144H30.573Z" fill="#6C49CF"/>
<path d="M26.6654 21.774C27.3848 21.774 27.968 21.1972 27.968 20.4856C27.968 19.7741 27.3848 19.1973 26.6654 19.1973C25.946 19.1973 25.3628 19.7741 25.3628 20.4856C25.3628 21.1972 25.946 21.774 26.6654 21.774Z" fill="white"/>
<path d="M37.7383 36.5914H1.2619C1.08916 36.5914 0.9235 36.5236 0.801357 36.4028C0.679215 36.282 0.610596 36.1181 0.610596 35.9472V34.6633C0.610596 34.4925 0.679215 34.3287 0.801357 34.2078C0.9235 34.087 1.08916 34.0192 1.2619 34.0192H37.7383C37.9111 34.0192 38.0767 34.087 38.1989 34.2078C38.321 34.3287 38.3896 34.4925 38.3896 34.6633V35.9517C38.3884 36.1218 38.3193 36.2845 38.1973 36.4044C38.0753 36.5242 37.9103 36.5915 37.7383 36.5914Z" fill="#DED2FF"/>
<path d="M36.4356 30.109C37.1151 30.108 37.7666 29.8407 38.2472 29.3657C38.7279 28.8906 38.9986 28.2465 39 27.5744V15.9763C38.999 15.3039 38.7286 14.6593 38.2478 14.1838C37.7671 13.7083 37.1154 13.4408 36.4356 13.4399H20.3708V13.142C20.3709 12.7658 20.2392 12.4011 19.998 12.1102C20.1729 11.8991 20.2914 11.648 20.3427 11.3799C20.8298 11.0991 21.1863 10.6407 21.3357 10.103C21.4851 9.56525 21.4155 8.99103 21.1419 8.50346C21.3196 8.18826 21.4132 7.83349 21.414 7.47258C21.4131 7.10258 21.3156 6.73908 21.1309 6.41732C20.9463 6.09555 20.6807 5.82642 20.3599 5.63601C20.3679 5.56121 20.3719 5.48603 20.3717 5.41081C20.3711 4.89178 20.1809 4.39044 19.8362 3.99907C19.4916 3.60771 19.0156 3.35265 18.4958 3.28085C18.3041 2.96134 18.0317 2.69654 17.7054 2.51238C17.3792 2.32821 17.0101 2.23099 16.6345 2.23023C16.5343 2.23026 16.4342 2.23776 16.3351 2.25266C15.9043 1.9061 15.3665 1.7161 14.8112 1.71434C14.7364 1.71422 14.6616 1.71781 14.5871 1.7251C14.1252 1.38335 13.5639 1.19867 12.987 1.19867C12.4101 1.19867 11.8488 1.38335 11.3869 1.7251C11.3116 1.71793 11.2372 1.71434 11.1628 1.71434C10.6114 1.71317 10.0762 1.8987 9.64614 2.2401C9.30854 2.27457 8.98377 2.38663 8.69775 2.56733C8.41174 2.74804 8.17239 2.99238 7.99884 3.28085C7.47866 3.35272 7.00228 3.60816 6.65754 4.00009C6.3128 4.39202 6.12293 4.89401 6.12295 5.4135C6.12279 5.48872 6.12673 5.5639 6.13474 5.6387C5.81471 5.82908 5.54957 6.09768 5.36482 6.41869C5.18007 6.73969 5.08191 7.10231 5.07978 7.47168C5.08049 7.83259 5.17414 8.18738 5.35191 8.50257C5.07827 8.99014 5.00868 9.56435 5.15808 10.1021C5.30747 10.6398 5.66395 11.0982 6.15107 11.379C6.17957 11.5287 6.22935 11.6737 6.29892 11.8097C6.08357 11.9603 5.90784 12.1598 5.78648 12.3915C5.66511 12.6231 5.60163 12.8802 5.60136 13.1411V14.172C5.60184 14.6059 5.7765 15.0218 6.08693 15.3283C6.39737 15.6349 6.81817 15.8069 7.25683 15.8067H7.52896L7.57341 16.0812C7.67607 16.7161 8.00725 17.2928 8.50591 17.7052L8.72815 17.8846V19.5893C8.72859 19.6807 8.69916 19.7699 8.64424 19.8434C8.58932 19.917 8.51185 19.971 8.42336 19.9975L3.8561 21.3936C3.30358 21.5589 2.81976 21.8962 2.47656 22.3552C2.13336 22.8143 1.9491 23.3707 1.95118 23.9416V31.4386C1.9506 32.1556 2.19623 32.8516 2.64783 33.4125H1.26178C0.926969 33.413 0.606035 33.5448 0.369457 33.7792C0.132879 34.0135 -3.45087e-07 34.3311 0 34.6623L0 35.9507C0.000479911 36.2815 0.133571 36.5987 0.370097 36.8326C0.606623 37.0666 0.927283 37.1982 1.26178 37.1987H37.7355C38.07 37.1982 38.3907 37.0666 38.6272 36.8326C38.8637 36.5987 38.9968 36.2815 38.9973 35.9507V34.6623C38.9975 34.4981 38.9651 34.3356 38.9018 34.1839C38.8385 34.0321 38.7456 33.8942 38.6285 33.778C38.5113 33.6618 38.3721 33.5695 38.2189 33.5065C38.0657 33.4435 37.9014 33.4109 37.7355 33.4107H31.1073L30.6619 30.109H36.4356ZM37.779 15.9754V27.5744C37.7786 27.9266 37.6369 28.2643 37.385 28.5134C37.1332 28.7625 36.7918 28.9027 36.4356 28.9031H30.5694C30.5451 28.9032 30.5209 28.9047 30.4968 28.9076L30.0251 25.3897C29.9627 24.9355 29.7363 24.5191 29.3877 24.2171C29.039 23.9152 28.5918 23.7482 28.1284 23.7469H25.1984C24.735 23.7482 24.2877 23.9152 23.9391 24.2171C23.5905 24.5191 23.3641 24.9355 23.3017 25.3897L22.8273 28.9058C22.8032 28.9029 22.7789 28.9014 22.7547 28.9013H16.8948C16.539 28.9009 16.1978 28.761 15.946 28.5123C15.6942 28.2636 15.5523 27.9263 15.5514 27.5744V15.9763C15.5519 15.624 15.6936 15.2863 15.9454 15.0372C16.1972 14.7881 16.5386 14.648 16.8948 14.6475H36.4356C36.7918 14.648 37.1332 14.7881 37.385 15.0372C37.6369 15.2863 37.7786 15.624 37.779 15.9763V15.9754ZM20.76 33.4107C20.76 33.3972 20.76 33.3838 20.76 33.3703V30.109H22.6649L22.2195 33.4107H20.76ZM18.8296 13.439L18.9367 12.775C19.0012 12.8125 19.0547 12.866 19.092 12.9302C19.1292 12.9944 19.1488 13.0671 19.149 13.1411V13.439H18.8296ZM6.55019 8.09793C6.39069 7.92679 6.30199 7.70264 6.30165 7.46989C6.30292 7.26361 6.37267 7.06346 6.50018 6.90022C6.62769 6.73698 6.80589 6.61969 7.00737 6.5664C7.09057 6.54415 7.16806 6.50472 7.23474 6.45072C7.30142 6.39672 7.35579 6.32936 7.39426 6.25309C7.43274 6.17681 7.45444 6.09334 7.45796 6.00817C7.46148 5.92299 7.44672 5.83805 7.41466 5.75892C7.37037 5.64903 7.34759 5.53181 7.34754 5.4135C7.3477 5.16741 7.44513 4.93113 7.61902 4.75511C7.79291 4.5791 8.02948 4.47729 8.27822 4.47144C8.30453 4.47144 8.32993 4.47772 8.35714 4.47952C8.48997 4.48739 8.62177 4.45211 8.73246 4.37907C8.84315 4.30603 8.92669 4.19921 8.97034 4.07488C9.03334 3.89358 9.15087 3.73567 9.30716 3.6223C9.46345 3.50892 9.65104 3.44551 9.84479 3.44055H9.88017C9.96115 3.44179 10.0416 3.42711 10.1168 3.39739C10.192 3.36767 10.2605 3.32348 10.3183 3.2674C10.4616 3.12544 10.6394 3.02219 10.8346 2.96753C11.0297 2.91287 11.2358 2.90861 11.4331 2.95517C11.5305 2.97683 11.6318 2.97458 11.7281 2.94862C11.8244 2.92266 11.9128 2.87377 11.9856 2.80623C12.2558 2.54962 12.616 2.40632 12.9906 2.40632C13.3653 2.40632 13.7254 2.54962 13.9957 2.80623C14.0684 2.87384 14.1569 2.92277 14.2532 2.94873C14.3495 2.9747 14.4507 2.97691 14.5481 2.95517C14.757 2.90582 14.9756 2.91384 15.1802 2.97835C15.3848 3.04286 15.5677 3.16142 15.7092 3.32123C15.789 3.4084 15.8928 3.47063 16.0079 3.50028C16.1229 3.52992 16.2442 3.52569 16.3569 3.48811C16.4476 3.45648 16.5429 3.43981 16.639 3.43876C16.836 3.43987 17.0278 3.50151 17.1879 3.61514C17.348 3.72878 17.4684 3.8888 17.5325 4.07308C17.5761 4.19741 17.6597 4.30423 17.7704 4.37727C17.8811 4.45032 18.0129 4.48559 18.1457 4.47772C18.1702 4.47772 18.1947 4.47772 18.2246 4.46964C18.3786 4.47247 18.5296 4.51236 18.6644 4.58587C18.7993 4.65938 18.9141 4.76428 18.9988 4.89151C19.0835 5.01874 19.1355 5.16446 19.1505 5.31607C19.1654 5.46768 19.1428 5.6206 19.0845 5.76162C19.0525 5.84074 19.0377 5.92569 19.0412 6.01086C19.0448 6.09603 19.0665 6.1795 19.1049 6.25578C19.1434 6.33205 19.1978 6.39941 19.2645 6.45341C19.3312 6.50742 19.4086 6.54684 19.4918 6.5691C19.6933 6.62238 19.8715 6.73967 19.999 6.90291C20.1265 7.06615 20.1963 7.2663 20.1976 7.47258C20.1971 7.70532 20.1084 7.92943 19.949 8.10062C19.8482 8.21147 19.7925 8.35528 19.7925 8.50436C19.7925 8.65344 19.8482 8.79725 19.949 8.9081C20.1085 9.07924 20.1972 9.30339 20.1976 9.53614C20.1964 9.73113 20.1339 9.92093 20.0189 10.0793C19.9038 10.2376 19.7418 10.3566 19.5553 10.4199C19.4261 10.4643 19.3157 10.5504 19.2419 10.6642C19.168 10.7781 19.135 10.9132 19.148 11.0479C19.148 11.0668 19.148 11.0847 19.1544 11.1036C19.1497 11.1939 19.116 11.2804 19.0583 11.3506C19.0006 11.4207 18.9218 11.4709 18.8333 11.4938C18.8133 11.4992 18.2301 11.5118 18.2301 11.5118L17.8699 9.4222C17.8448 9.27357 17.7645 9.13957 17.6447 9.04647C17.5249 8.95336 17.3742 8.90786 17.2223 8.91887C17.1941 8.91887 17.166 8.92425 17.1379 8.92784C16.9834 8.9249 16.832 8.88481 16.6967 8.81102C16.5615 8.73724 16.4464 8.63199 16.3614 8.50436C16.3056 8.42147 16.23 8.35352 16.1412 8.30655C16.0524 8.25959 15.9532 8.23508 15.8525 8.2352C15.7519 8.23508 15.6527 8.25959 15.5639 8.30655C15.4751 8.35352 15.3995 8.42147 15.3437 8.50436C15.2571 8.63429 15.1392 8.74094 15.0007 8.81472C14.8622 8.88851 14.7073 8.92714 14.5499 8.92714C14.3926 8.92714 14.2377 8.88851 14.0992 8.81472C13.9607 8.74094 13.8428 8.63429 13.7562 8.50436C13.7004 8.42147 13.6248 8.35352 13.536 8.30655C13.4472 8.25959 13.348 8.23508 13.2473 8.2352C13.1467 8.23508 13.0475 8.25959 12.9587 8.30655C12.8699 8.35352 12.7943 8.42147 12.7385 8.50436C12.6519 8.63429 12.534 8.74094 12.3955 8.81472C12.257 8.88851 12.1021 8.92714 11.9447 8.92714C11.7874 8.92714 11.6325 8.88851 11.494 8.81472C11.3555 8.74094 11.2376 8.63429 11.151 8.50436C11.0952 8.42147 11.0196 8.35352 10.9308 8.30655C10.842 8.25959 10.7428 8.23508 10.6421 8.2352C10.5415 8.23508 10.4423 8.25959 10.3535 8.30655C10.2647 8.35352 10.1891 8.42147 10.1333 8.50436C10.0483 8.63199 9.93322 8.73724 9.79793 8.81102C9.66264 8.88481 9.51123 8.9249 9.35677 8.92784C9.32865 8.92784 9.30144 8.92066 9.27241 8.91887C9.12041 8.90765 8.96967 8.95308 8.84982 9.04622C8.72997 9.13936 8.64968 9.27347 8.62474 9.4222L8.27369 11.5064C8.27369 11.5064 7.68952 11.4938 7.67047 11.4885C7.58178 11.4656 7.50279 11.4153 7.44503 11.345C7.38726 11.2746 7.35374 11.1878 7.34935 11.0973C7.34935 11.0793 7.35389 11.0605 7.3557 11.0425C7.36877 10.9079 7.33572 10.7727 7.26187 10.6589C7.18801 10.545 7.07762 10.4589 6.94841 10.4145C6.76193 10.3512 6.59995 10.2322 6.48488 10.0739C6.36982 9.91554 6.30737 9.72575 6.30618 9.53076C6.30661 9.29802 6.3953 9.0739 6.55473 8.90272C6.65413 8.79148 6.70862 8.64792 6.70778 8.49947C6.70695 8.35101 6.65084 8.20806 6.55019 8.09793ZM7.25683 14.5991C7.14231 14.5991 7.03249 14.5541 6.95151 14.474C6.87054 14.3939 6.82505 14.2852 6.82505 14.172V13.1411C6.82516 13.0671 6.84481 12.9944 6.88203 12.9302C6.91926 12.866 6.97278 12.8125 7.03731 12.775L7.33212 14.5982L7.25683 14.5991ZM8.26462 12.7149H8.34535C8.61355 12.7156 8.87323 12.6219 9.07785 12.4504C9.28248 12.2789 9.41866 12.0409 9.46199 11.7791L9.74501 10.0996C10.0705 10.0385 10.3774 9.90441 10.6421 9.70751C11.018 9.98618 11.475 10.1368 11.9447 10.1368C12.4145 10.1368 12.8715 9.98618 13.2473 9.70751C13.6232 9.98618 14.0802 10.1368 14.5499 10.1368C15.0197 10.1368 15.4767 9.98618 15.8525 9.70751C16.1173 9.90441 16.4242 10.0385 16.7497 10.0996L17.0327 11.7791C17.0641 11.9681 17.1443 12.1459 17.2653 12.2953C17.3864 12.4447 17.5443 12.5608 17.7239 12.6324L17.5933 13.4399H16.8948C16.2153 13.4413 15.5641 13.709 15.0837 14.1844C14.6034 14.6598 14.3332 15.3042 14.3322 15.9763V18.6562C14.2219 18.6992 14.1043 18.7214 13.9857 18.7217H11.9901C11.7674 18.7216 11.5518 18.6445 11.3805 18.5037L9.28874 16.7802C9.01515 16.5547 8.83341 16.2388 8.77713 15.891L8.26462 12.7149ZM8.7853 21.1585C9.12385 21.0568 9.42021 20.8498 9.63036 20.5682C9.84052 20.2866 9.95325 19.9455 9.95183 19.5956V18.8975L10.5995 19.4359C10.9903 19.7575 11.4826 19.9336 11.991 19.9338H13.9866C14.1027 19.9338 14.2186 19.9245 14.3331 19.906V23.7882C13.1602 23.9797 11.9569 23.8586 10.847 23.4372C9.73714 23.0158 8.7609 22.3095 8.01879 21.3909L8.7853 21.1585ZM3.17486 31.4377V23.9407C3.17431 23.6291 3.2752 23.3257 3.46258 23.0752C3.64997 22.8248 3.91389 22.6406 4.21531 22.5501L6.77788 21.7704C7.61473 22.9446 8.76246 23.868 10.0951 24.4394C11.4277 25.0107 12.8937 25.2079 14.3322 25.0093V27.5744C14.3332 28.2468 14.6037 28.8914 15.0844 29.3668C15.5651 29.8423 16.2168 30.1098 16.8966 30.1108H19.5426V33.3703C19.5426 33.3838 19.5426 33.3972 19.5426 33.4107H16.2027V32.7261C16.2017 32.0537 15.9312 31.4091 15.4505 30.9337C14.9698 30.4582 14.3181 30.1907 13.6383 30.1897H7.12439C7.11903 30.1897 7.11372 30.1887 7.10877 30.1867C7.10382 30.1846 7.09932 30.1817 7.09553 30.1779C7.09173 30.1742 7.08873 30.1697 7.08668 30.1648C7.08463 30.1599 7.08357 30.1547 7.08357 30.1494V26.2842C7.08357 26.1241 7.01925 25.9705 6.90476 25.8572C6.79028 25.744 6.635 25.6804 6.47309 25.6804C6.31118 25.6804 6.1559 25.744 6.04141 25.8572C5.92693 25.9705 5.86261 26.1241 5.86261 26.2842V30.1494C5.86309 30.4802 5.99618 30.7974 6.23271 31.0313C6.46923 31.2652 6.78989 31.3969 7.12439 31.3974H11.073V33.4107H5.17049C4.64137 33.4107 4.13391 33.2028 3.75969 32.8329C3.38546 32.4629 3.1751 31.9611 3.17486 31.4377ZM12.294 33.4116V31.3974H13.6374C13.9935 31.3978 14.335 31.538 14.5868 31.7871C14.8386 32.0362 14.9803 32.3739 14.9808 32.7261V33.4107H12.294V33.4116ZM37.779 34.6623V35.9507C37.779 35.956 37.778 35.9612 37.7759 35.9661C37.7739 35.971 37.7709 35.9755 37.7671 35.9792C37.7633 35.983 37.7588 35.9859 37.7538 35.988C37.7489 35.99 37.7436 35.991 37.7382 35.991H1.26178C1.25095 35.991 1.24057 35.9868 1.23292 35.9792C1.22526 35.9716 1.22096 35.9614 1.22096 35.9507V34.6623C1.22096 34.657 1.22202 34.6517 1.22407 34.6468C1.22612 34.6419 1.22913 34.6375 1.23292 34.6337C1.23671 34.63 1.24121 34.627 1.24616 34.625C1.25111 34.6229 1.25642 34.6219 1.26178 34.6219H37.7355C37.7411 34.6215 37.7467 34.6223 37.752 34.6242C37.7572 34.626 37.7621 34.6289 37.7661 34.6327C37.7702 34.6365 37.7735 34.6411 37.7757 34.6462C37.7779 34.6513 37.779 34.6567 37.779 34.6623ZM23.4541 33.4107L24.5136 25.5494C24.5361 25.3852 24.618 25.2346 24.744 25.1254C24.8701 25.0163 25.0318 24.9559 25.1993 24.9555H28.1293C28.2968 24.9559 28.4585 25.0163 28.5846 25.1254C28.7106 25.2346 28.7925 25.3852 28.815 25.5494L29.8745 33.4107H23.4541Z" fill="#492D84"/>
<path d="M26.6643 22.3767C27.0427 22.3767 27.4126 22.2658 27.7272 22.0579C28.0418 21.8499 28.287 21.5544 28.4318 21.2087C28.5766 20.8629 28.6145 20.4824 28.5406 20.1154C28.4668 19.7483 28.2846 19.4112 28.017 19.1466C27.7495 18.8819 27.4086 18.7017 27.0375 18.6287C26.6664 18.5557 26.2818 18.5932 25.9322 18.7364C25.5826 18.8796 25.2839 19.1221 25.0736 19.4333C24.8634 19.7445 24.7512 20.1103 24.7512 20.4846C24.7519 20.9862 24.9537 21.467 25.3123 21.8217C25.671 22.1764 26.1572 22.376 26.6643 22.3767ZM26.6643 19.8C26.8012 19.8 26.935 19.8401 27.0488 19.9154C27.1626 19.9906 27.2514 20.0975 27.3037 20.2226C27.3561 20.3477 27.3698 20.4853 27.3431 20.6181C27.3164 20.7509 27.2505 20.8729 27.1537 20.9686C27.0569 21.0643 26.9336 21.1295 26.7993 21.156C26.6651 21.1824 26.5259 21.1688 26.3994 21.117C26.273 21.0652 26.1649 20.9774 26.0888 20.8649C26.0128 20.7523 25.9722 20.6199 25.9722 20.4846C25.9727 20.3032 26.0458 20.1295 26.1755 20.0013C26.3052 19.8732 26.481 19.8011 26.6643 19.8009V19.8Z" fill="black"/>
</svg>
