<svg width="152" height="150" viewBox="0 0 152 150" fill="none" xmlns="http://www.w3.org/2000/svg">
<path d="M109.956 47.3906C109.956 47.3906 108.17 49.74 104.662 49.0822C102.5 48.675 98.2089 48.4557 97.645 50.0533L98.3029 54.8774C98.3029 54.8774 101.153 54.1256 104.067 54.8148C106.917 55.504 111.052 53.4678 111.052 53.4678L109.956 47.3906Z" fill="#EBEBEB"/>
<path d="M104.098 54.1256C102.5 53.969 101.717 52.434 102.03 51.275C102.344 50.1159 104.098 49.5521 105.257 49.8967C106.416 50.2099 107.105 51.4316 106.792 52.5907C106.479 53.781 105.32 54.2509 104.098 54.1256Z" fill="#F5F5F5"/>
<g opacity="0.5">
<path opacity="0.5" d="M98.6784 54.3763L98.1145 49.9594L98.1458 49.9281C99.8687 48.6751 103.033 49.2076 105.1 49.5522C105.476 49.6148 105.789 49.6775 106.103 49.7088C108.076 49.9907 109.517 48.4245 109.58 48.2678H109.736L110.425 52.998L110.394 53.0293C107.888 54.6896 104.943 54.6582 103.158 54.157C101.498 53.6872 98.835 54.345 98.8037 54.345L98.6784 54.3763ZM98.2711 50.0221L98.8037 54.157C99.2735 54.0317 101.623 53.5305 103.158 53.9691C104.912 54.4703 107.794 54.5016 110.238 52.904L109.58 48.4871C109.454 48.6124 109.329 48.769 109.266 48.8004C108.922 49.1136 107.669 50.0847 106.04 49.8654C105.758 49.8341 105.413 49.7715 105.037 49.7088C103.033 49.3642 99.9314 48.8317 98.2711 50.0221Z" fill="#FAFAFA"/>
</g>
<path d="M86.8808 15.9059C86.8808 15.9059 84.0615 16.8457 81.5555 14.3396C79.9892 12.7733 76.5434 10.2046 75.1964 11.2384L73.0349 15.624C73.0349 15.624 75.8229 16.5951 77.8277 18.7879C79.8012 20.9493 84.3748 21.5758 84.3748 21.5758L86.8808 15.9059Z" fill="#EBEBEB"/>
<path d="M78.2662 18.2553C77.0445 17.2529 77.2324 15.53 78.1409 14.7155C79.0493 13.9324 80.8035 14.4649 81.618 15.3734C82.4011 16.2818 82.3072 17.6915 81.3674 18.4746C80.459 19.2577 79.2059 19.0071 78.2662 18.2553Z" fill="#F5F5F5"/>
<g opacity="0.5">
<path opacity="0.5" d="M73.6616 15.4047L75.6351 11.4263H75.6665C77.7966 11.3324 80.1147 13.5565 81.6496 14.9975C81.9003 15.2481 82.1509 15.4987 82.3701 15.6866C83.8424 17.0023 85.9099 16.5324 86.0666 16.4071L86.1919 16.5011L84.1244 20.824H84.0617C81.0545 20.7927 78.6111 19.1324 77.4207 17.6915C76.3243 16.3445 73.7243 15.436 73.6929 15.4047H73.6616ZM75.7291 11.583L73.8496 15.3107C74.3195 15.4987 76.5123 16.3445 77.5773 17.5975C78.7364 18.9758 81.1171 20.6361 84.0617 20.6674L86.0039 16.6264C85.8473 16.689 85.628 16.7204 85.5653 16.7204C85.0955 16.783 83.5292 16.9083 82.3075 15.8119C82.0882 15.624 81.8376 15.3734 81.5557 15.1228C80.052 13.6818 77.7653 11.5203 75.7291 11.583Z" fill="#FAFAFA"/>
</g>
<path d="M45.6759 42.0028C45.6759 42.0028 42.7313 41.7835 41.3529 38.4943C40.5072 36.4582 38.3144 32.7618 36.6541 33.169L32.989 36.3642C32.989 36.3642 35.1818 38.3377 36.1842 41.1257C37.1866 43.8823 41.1337 46.2004 41.1337 46.2004L45.6759 42.0028Z" fill="#F5F5F5"/>
<path d="M36.8422 40.8438C36.0903 39.4341 36.9361 37.9305 38.0952 37.5546C39.2542 37.1787 40.6639 38.3377 41.0398 39.4968C41.4157 40.6558 40.7892 41.9088 39.6301 42.2847C38.4398 42.6293 37.406 41.9088 36.8422 40.8438Z" fill="#EBEBEB"/>
<g opacity="0.5">
<path opacity="0.5" d="M33.6467 36.4268L36.9986 33.5135L37.0299 33.5449C39.0347 34.2654 40.3191 37.21 41.1962 39.1522C41.3528 39.4967 41.4781 39.81 41.6034 40.0606C42.4492 41.8462 44.548 42.2221 44.736 42.1594L44.83 42.2847L41.2588 45.4799L41.2275 45.4486C38.4709 44.2896 36.8419 41.7835 36.3094 40.0293C35.8082 38.369 33.772 36.5208 33.7407 36.4895L33.6467 36.4268ZM37.0299 33.7015L33.866 36.4268C34.2419 36.7714 35.9335 38.4317 36.4034 39.9666C36.9359 41.6895 38.5335 44.1329 41.1962 45.292L44.5167 42.316C44.3288 42.2847 44.1408 42.2534 44.0782 42.2221C43.6396 42.0968 42.136 41.5956 41.4155 40.1233C41.2902 39.8413 41.1335 39.5281 41.0082 39.2148C40.2251 37.3039 38.9408 34.4533 37.0299 33.7015Z" fill="#EBEBEB"/>
</g>
<path d="M24.4058 69.6945C24.4058 69.6945 23.8106 71.668 21.3986 72.0752C19.8949 72.3571 17.0756 73.2656 17.1069 74.4246L18.7046 77.4006C18.7046 77.4006 20.3648 76.2102 22.401 75.9596C24.4058 75.709 26.5673 73.3909 26.5673 73.3909L24.4058 69.6945Z" fill="#F5F5F5"/>
<path d="M22.3067 75.5211C21.2416 75.803 20.3332 75.0199 20.2705 74.1741C20.1766 73.3283 21.179 72.5451 22.0248 72.4825C22.8706 72.3885 23.5911 73.015 23.685 73.8608C23.7477 74.6753 23.1212 75.2705 22.3067 75.5211Z" fill="#EBEBEB"/>
<g opacity="0.5">
<path opacity="0.5" d="M18.8609 76.9935L17.4199 74.2995L17.4512 74.2682C18.2344 73.0465 20.4272 72.6079 21.8682 72.2947C22.1188 72.232 22.338 72.2007 22.5573 72.138C23.9043 71.8248 24.4682 70.4778 24.4369 70.3525L24.5308 70.3212L26.1598 73.2031L26.1284 73.2344C24.9381 74.926 22.9959 75.6465 21.7115 75.7405C20.5212 75.8345 18.9549 76.9309 18.9549 76.9309L18.8609 76.9935ZM17.5452 74.2995L18.9236 76.8369C19.2055 76.6489 20.5838 75.7405 21.7115 75.6465C22.9646 75.5525 24.8441 74.8321 26.0031 73.2031L24.4995 70.5091C24.4682 70.6344 24.4055 70.7597 24.3742 70.7911C24.2176 71.073 23.6537 72.0127 22.5573 72.2634C22.3694 72.2947 22.1188 72.3573 21.8682 72.42C20.4272 72.7019 18.3284 73.1091 17.5452 74.2995Z" fill="#EBEBEB"/>
</g>
<path d="M139.12 42.7545C139.12 42.7545 137.491 44.0075 135.267 42.9424C133.889 42.2846 131.069 41.3762 130.411 42.3473L129.973 45.6991C129.973 45.6991 132.009 45.6991 133.826 46.7015C135.612 47.6726 138.713 47.0461 138.713 47.0461L139.12 42.7545Z" fill="#F5F5F5"/>
<path d="M134.013 46.2317C132.98 45.8558 132.698 44.6967 133.136 43.9449C133.575 43.2244 134.828 43.1618 135.548 43.6003C136.269 44.0389 136.52 44.9473 136.081 45.6678C135.674 46.4196 134.797 46.5136 134.013 46.2317Z" fill="#EBEBEB"/>
<g opacity="0.5">
<path opacity="0.5" d="M130.349 45.4172L130.756 42.3786H130.788C132.166 41.8461 134.171 42.7546 135.518 43.3497C135.737 43.4437 135.956 43.5377 136.144 43.6317C137.397 44.1642 138.65 43.3811 138.713 43.2871L138.807 43.3184L138.431 46.6076H138.4C136.426 47.2654 134.453 46.7329 133.356 46.0751C132.323 45.4486 130.412 45.4486 130.412 45.4486L130.349 45.4172ZM130.85 42.4413L130.474 45.2919C130.819 45.2919 132.448 45.3546 133.419 45.9498C134.484 46.6076 136.426 47.1088 138.337 46.4823L138.682 43.4124C138.588 43.475 138.462 43.5377 138.431 43.569C138.149 43.7256 137.147 44.1329 136.082 43.6943C135.894 43.6003 135.674 43.5064 135.455 43.4124C134.14 42.8485 132.166 41.9714 130.85 42.4413Z" fill="#EBEBEB"/>
</g>
<path d="M141.908 144.094C141.908 144.125 110.144 144.188 70.9871 144.188C31.7988 144.188 0.034668 144.125 0.034668 144.094C0.034668 144.063 31.7988 144 70.9558 144C110.144 144 141.908 144.063 141.908 144.094Z" fill="#263238"/>
<path d="M106.887 29L106.26 30.1277L105.133 30.7542L106.26 31.3807L106.887 32.5398L107.513 31.3807L108.672 30.7542L107.513 30.1277L106.887 29Z" fill="#455A64"/>
<path d="M132.82 86L132.193 87.1277L131.034 87.7542L132.193 88.3807L132.82 89.5398L133.446 88.3807L134.574 87.7542L133.446 87.1277L132.82 86Z" fill="#455A64"/>
<path d="M28.3847 32.5398L27.7582 33.6988L26.5991 34.3254L27.7582 34.9519L28.3847 36.0796L29.0112 34.9519L30.1389 34.3254L29.0112 33.6988L28.3847 32.5398Z" fill="#455A64"/>
<path d="M125.1 48L124.724 48.6892L124.035 49.0651L124.724 49.4723L125.1 50.1615L125.507 49.4723L126.196 49.0651L125.507 48.6892L125.1 48Z" fill="#455A64"/>
<path d="M51.0997 37L50.7238 37.6892L50.0347 38.0964L50.7238 38.4723L51.0997 39.1615L51.507 38.4723L52.1961 38.0964L51.507 37.6892L51.0997 37Z" fill="#455A64"/>
<path d="M39.0058 49L38.6612 49.6265L38.0347 49.9711L38.6612 50.3157L39.0058 50.9109L39.3503 50.3157L39.9769 49.9711L39.3503 49.6265L39.0058 49Z" fill="#455A64"/>
<path d="M89.5634 93.374L89.2188 94.0005L88.5923 94.3451L89.2188 94.6897L89.5634 95.3162L89.908 94.6897L90.5345 94.3451L89.908 94.0005L89.5634 93.374Z" fill="#455A64"/>
<path d="M29.4813 99.2633L29.1368 99.8898L28.5103 100.234L29.1368 100.579L29.4813 101.205L29.8259 100.579L30.4524 100.234L29.8259 99.8898L29.4813 99.2633Z" fill="#455A64"/>
<path d="M3.14233 25.2492C3.14233 25.2492 5.09141 24.2097 7.26789 25.769C8.59976 26.7435 11.4584 28.2378 12.3355 27.3283L13.4075 23.8524C13.4075 23.8524 11.231 23.4626 9.47685 22.0657C7.75516 20.7014 4.31178 20.7664 4.31178 20.7664L3.14233 25.2492Z" fill="#4B71A4"/>
<g opacity="0.4">
<path opacity="0.4" d="M9.21697 22.4881C10.2565 23.0728 10.3214 24.3722 9.73672 25.0869C9.152 25.769 7.78764 25.6066 7.10546 25.0219C6.42328 24.4372 6.32583 23.3977 6.91055 22.683C7.49528 22.0008 8.43733 22.0333 9.21697 22.4881Z" fill="white"/>
</g>
<g opacity="0.5">
<path opacity="0.5" d="M12.985 24.0472L11.978 27.2307H11.9455C10.3862 27.5555 8.40467 26.1912 7.10528 25.2816C6.87789 25.1192 6.6505 24.9892 6.48808 24.8593C5.25366 24.0472 3.75936 24.6319 3.66191 24.7618L3.56445 24.7294L4.57148 21.286H4.60396C6.81292 20.9611 8.82697 21.9032 9.89897 22.8128C10.8735 23.6574 12.92 24.0472 12.92 24.0472H12.985ZM11.913 27.1332L12.8551 24.1446C12.4977 24.0797 10.7436 23.6898 9.834 22.8777C8.79449 22.0006 6.84541 21.0586 4.70142 21.3834L3.75936 24.5994C3.8893 24.5344 4.01924 24.502 4.05172 24.4695C4.37657 24.372 5.54602 24.1121 6.58553 24.7618C6.78044 24.8918 6.97535 25.0217 7.20274 25.1841C8.43716 26.0937 10.3862 27.3931 11.913 27.1332Z" fill="white"/>
</g>
<path d="M130.629 71C130.629 71 130.596 74.8007 126.503 76.8148C123.969 78.0492 119.422 81.1677 120.104 83.2142L124.489 87.6322C124.489 87.6322 126.828 84.6761 130.304 83.1493C133.747 81.655 136.379 76.3925 136.379 76.3925L130.629 71Z" fill="#4B71A4"/>
<g opacity="0.4">
<path opacity="0.4" d="M129.882 82.4023C128.16 83.4742 126.146 82.5322 125.561 81.1029C124.976 79.6735 126.341 77.7569 127.803 77.1722C129.232 76.5875 130.889 77.3022 131.473 78.7315C132.026 80.1933 131.214 81.5901 129.882 82.4023Z" fill="white"/>
</g>
<g opacity="0.5">
<path opacity="0.5" d="M124.521 86.8201L120.558 82.7595L120.591 82.6945C121.37 80.0958 125.009 78.1792 127.413 76.9447C127.835 76.7173 128.225 76.5224 128.55 76.3275C130.759 75.0931 131.051 72.3969 130.953 72.1695L131.116 72.0396L135.469 76.3275L135.436 76.3925C134.169 79.9983 131.116 82.2722 128.907 83.1168C126.828 83.8965 124.619 86.6577 124.619 86.6901L124.521 86.8201ZM120.753 82.727L124.489 86.5277C124.879 86.0405 126.86 83.734 128.809 82.9869C130.986 82.1423 133.942 79.9333 135.209 76.425L131.148 72.3969C131.148 72.6243 131.083 72.8842 131.083 72.9491C130.953 73.5338 130.434 75.4829 128.615 76.5224C128.29 76.7173 127.9 76.9123 127.478 77.1396C125.106 78.3741 121.533 80.2257 120.753 82.727Z" fill="white"/>
</g>
<path d="M127.364 21.5136C127.364 21.5136 124.96 22.0334 123.076 19.727C121.906 18.2976 119.275 15.8613 118.073 16.5759L115.897 20.0193C115.897 20.0193 118.106 21.0588 119.567 23.0729C121.029 25.0545 124.733 25.964 124.733 25.964L127.364 21.5136Z" fill="#4B71A4"/>
<g opacity="0.4">
<path opacity="0.4" d="M120.023 22.6831C119.081 21.741 119.406 20.3442 120.218 19.7595C121.062 19.1747 122.459 19.7919 123.011 20.6041C123.596 21.4487 123.369 22.5856 122.524 23.1379C121.744 23.7226 120.737 23.3977 120.023 22.6831Z" fill="white"/>
</g>
<g opacity="0.5">
<path opacity="0.5" d="M116.449 19.9218L118.431 16.8032H118.463C120.217 16.9332 121.971 18.9472 123.108 20.3116C123.303 20.539 123.498 20.7664 123.661 20.9613C124.765 22.1957 126.519 22.0008 126.649 21.9033L126.747 21.9683L124.635 25.3467H124.603C122.134 25.0543 120.25 23.4626 119.373 22.1632C118.56 20.9613 116.514 19.9542 116.481 19.9542L116.449 19.9218ZM118.496 16.9332L116.611 19.8568C116.969 20.0517 118.723 20.9613 119.47 22.0982C120.315 23.3651 122.134 24.9244 124.57 25.2168L126.519 22.0657C126.389 22.0982 126.194 22.0982 126.162 22.0982C125.772 22.0982 124.44 22.0657 123.531 21.0587C123.368 20.8638 123.173 20.6689 122.978 20.409C121.906 19.0772 120.217 17.0631 118.496 16.9332Z" fill="white"/>
</g>
<path d="M103.992 28.6463C103.992 28.6463 100.971 30.9527 96.878 28.9386C94.3442 27.7042 89.1142 25.9825 87.8798 27.7692L87.0352 33.9413C87.0352 33.9413 90.8034 34.0062 94.1493 35.8254C97.4303 37.6445 103.213 36.54 103.213 36.54L103.992 28.6463Z" fill="#4B71A4"/>
<g opacity="0.4">
<path opacity="0.4" d="M94.5069 34.9807C92.5903 34.266 92.1355 32.0895 92.9152 30.7577C93.6948 29.4258 96.0337 29.3608 97.3981 30.1405C98.7299 30.9201 99.1847 32.6743 98.3726 34.0061C97.5605 35.338 95.9687 35.5329 94.5069 34.9807Z" fill="white"/>
</g>
<g opacity="0.5">
<path opacity="0.5" d="M87.75 33.4214L88.5296 27.8015L88.5946 27.769C91.1284 26.7945 94.8641 28.5162 97.3005 29.6531C97.7228 29.848 98.1126 30.043 98.4699 30.1729C100.809 31.1799 103.115 29.7831 103.245 29.5557L103.44 29.5882L102.693 35.6628L102.628 35.6953C98.9897 36.8972 95.3189 35.8577 93.3049 34.6233C91.4208 33.4538 87.8799 33.3889 87.8475 33.3889L87.75 33.4214ZM88.6921 27.9314L87.9449 33.2265C88.5621 33.2589 91.6157 33.3889 93.3698 34.4934C95.3514 35.6953 98.9247 36.7023 102.466 35.5653L103.148 29.8805C102.953 30.0105 102.725 30.1404 102.66 30.1729C102.141 30.4328 100.257 31.2124 98.34 30.4003C97.9827 30.2379 97.5929 30.0754 97.1706 29.8805C94.7992 28.7436 91.1609 27.0544 88.6921 27.9314Z" fill="white"/>
</g>
<path d="M121.249 44.3998C121.249 44.3998 118.261 43.7501 117.319 40.1767C116.766 37.9678 115.045 33.8422 113.29 34.0047L109.035 36.7334C109.035 36.7334 110.984 39.0723 111.601 42.0933C112.218 45.0819 115.922 48.038 115.922 48.038L121.249 44.3998Z" fill="#4B71A4"/>
<g opacity="0.4">
<path opacity="0.4" d="M112.316 41.8984C111.764 40.3391 112.836 38.9098 114.07 38.6824C115.305 38.455 116.604 39.8843 116.799 41.1187C117.027 42.3531 116.182 43.5551 114.947 43.75C113.713 43.9774 112.739 43.0678 112.316 41.8984Z" fill="white"/>
</g>
<g opacity="0.5">
<path opacity="0.5" d="M109.718 36.8957L113.583 34.4269L113.616 34.4594C115.565 35.4989 116.442 38.7149 117.059 40.8264C117.157 41.1837 117.254 41.541 117.351 41.8334C117.969 43.815 120.048 44.4971 120.243 44.4322L120.308 44.5621L116.182 47.2908L116.15 47.2583C113.486 45.6341 112.186 42.8404 111.894 40.9563C111.602 39.1696 109.815 36.9607 109.783 36.9607L109.718 36.8957ZM113.583 34.6218L109.945 36.9607C110.27 37.3505 111.764 39.3321 112.024 40.9888C112.316 42.8404 113.583 45.5691 116.15 47.1609L120.015 44.5946C119.853 44.5621 119.658 44.4647 119.593 44.4322C119.138 44.2373 117.676 43.4901 117.189 41.8984C117.092 41.606 116.994 41.2487 116.897 40.8913C116.312 38.7798 115.435 35.6613 113.583 34.6218Z" fill="white"/>
</g>
<path d="M70.2746 11.2481C70.2746 11.2481 67.8707 11.7029 66.1166 9.364C65.0121 7.93467 62.5108 5.43335 61.2764 6.11553L59.0349 9.42897C59.0349 9.42897 61.1789 10.5334 62.5757 12.5475C63.9401 14.5291 67.5784 15.5361 67.5784 15.5361L70.2746 11.2481Z" fill="#4B71A4"/>
<g opacity="0.4">
<path opacity="0.4" d="M62.9987 12.19C62.1216 11.248 62.4465 9.85114 63.2911 9.2989C64.1357 8.74666 65.5001 9.39635 66.0198 10.2085C66.5721 11.0531 66.3122 12.1576 65.4676 12.7098C64.6555 13.262 63.6809 12.9047 62.9987 12.19Z" fill="white"/>
</g>
<g opacity="0.5">
<path opacity="0.5" d="M59.5554 9.36408L61.602 6.37549H61.6344C63.3561 6.53791 65.0128 8.58445 66.1173 9.9488C66.3122 10.1762 66.4747 10.4036 66.6371 10.5985C67.6766 11.8329 69.4308 11.703 69.5607 11.6055L69.6582 11.6705L67.4817 14.9514H67.4492C65.0128 14.5941 63.1937 12.9699 62.4141 11.6705C61.6669 10.4686 59.6529 9.39657 59.6529 9.39657L59.5554 9.36408ZM61.6994 6.47294L59.7503 9.29911C60.1077 9.49402 61.7969 10.4361 62.5115 11.573C63.2912 12.8399 65.0453 14.4317 67.4167 14.789L69.4308 11.7355C69.3008 11.7679 69.1384 11.7679 69.0734 11.7679C68.6836 11.7679 67.3842 11.6705 66.5396 10.6635C66.3772 10.4686 66.2148 10.2412 66.0199 10.0138C64.9804 8.6819 63.3561 6.66785 61.6994 6.47294Z" fill="white"/>
</g>
<path d="M12.2746 99.2481C12.2746 99.2481 9.87075 99.7029 8.11657 97.364C7.0121 95.9347 4.51077 93.4334 3.27636 94.1155L1.03491 97.429C1.03491 97.429 3.1789 98.5334 4.57574 100.548C5.9401 102.529 9.57839 103.536 9.57839 103.536L12.2746 99.2481Z" fill="#4B71A4"/>
<g opacity="0.4">
<path opacity="0.4" d="M4.99849 100.158C4.1214 99.2155 4.44625 97.8187 5.29085 97.2664C6.13545 96.7142 7.49981 97.3639 8.01957 98.176C8.57181 99.0206 8.31193 100.125 7.46733 100.677C6.65521 101.262 5.68067 100.905 4.99849 100.158Z" fill="white"/>
</g>
<g opacity="0.5">
<path opacity="0.5" d="M1.55518 97.3315L3.60171 94.3429H3.6342C5.35589 94.5053 7.0126 96.5519 8.11708 97.9162C8.31199 98.1436 8.47442 98.371 8.63684 98.5659C9.67635 99.8003 11.4305 99.6704 11.5605 99.5729L11.6579 99.6379L9.48144 102.919H9.44896C7.01261 102.562 5.22595 100.937 4.41383 99.6379C3.66668 98.436 1.65263 97.364 1.65263 97.364L1.55518 97.3315ZM3.66668 94.4728L1.7176 97.299C2.07493 97.4939 3.76414 98.436 4.4788 99.5729C5.25843 100.84 7.0126 102.432 9.38399 102.789L11.398 99.7354C11.2681 99.7678 11.1057 99.7678 11.0407 99.7678C10.6509 99.7678 9.3515 99.6704 8.5069 98.6634C8.34448 98.4685 8.18205 98.2411 7.98715 98.0137C6.94764 96.6493 5.35589 94.6353 3.66668 94.4728Z" fill="white"/>
</g>
<path d="M41.3764 56.0123C41.3764 56.0123 40.4994 58.9035 36.8936 59.5207C34.6846 59.9105 30.4941 61.2424 30.5266 62.9641L32.8655 67.382C32.8655 67.382 35.3343 65.6603 38.3554 65.3029C41.344 64.9456 44.5599 61.5347 44.5599 61.5347L41.3764 56.0123Z" fill="#4B71A4"/>
<g opacity="0.4">
<path opacity="0.4" d="M38.1927 64.5558C36.6334 64.9781 35.3015 63.8087 35.2041 62.5743C35.1066 61.3398 36.5684 60.2029 37.8029 60.1054C39.0373 60.008 40.1418 60.9175 40.2392 62.152C40.3692 63.3539 39.3946 64.231 38.1927 64.5558Z" fill="white"/>
</g>
<g opacity="0.5">
<path opacity="0.5" d="M33.0925 66.6998L30.981 62.6717L31.0134 62.6392C32.2154 60.8201 35.4314 60.2028 37.5429 59.7805C37.9002 59.7156 38.2575 59.6506 38.5499 59.5856C40.5315 59.1633 41.3761 57.1493 41.3436 56.9544L41.4735 56.8894L43.8124 61.1774L43.7799 61.2099C41.9933 63.6787 39.1346 64.7182 37.218 64.8482C35.4638 64.9781 33.1249 66.5698 33.0925 66.6023V66.6998ZM31.1434 62.7042L33.1249 66.4724C33.5472 66.18 35.5938 64.8806 37.2505 64.7507C39.1021 64.6208 41.8633 63.6137 43.65 61.2099L41.441 57.2143C41.3761 57.3767 41.2786 57.5716 41.2461 57.6041C41.0187 58.0264 40.1741 59.4232 38.5499 59.7805C38.2575 59.8455 37.9002 59.9105 37.5429 59.9755C35.4638 60.3653 32.3128 60.9825 31.1434 62.7042Z" fill="white"/>
</g>
<path d="M21.9186 47.8261C21.9186 47.8261 18.93 50.165 14.8045 48.2484C12.2382 47.0465 6.97566 45.4548 5.80622 47.2414L5.09155 53.446C5.09155 53.446 8.85978 53.4135 12.2382 55.2002C15.5516 56.9543 21.3014 55.7524 21.3014 55.7524L21.9186 47.8261Z" fill="#4B71A4"/>
<g opacity="0.4">
<path opacity="0.4" d="M12.5306 54.3557C10.614 53.6735 10.0942 51.5295 10.8739 50.1651C11.6535 48.8008 13.9924 48.7033 15.3243 49.4829C16.6886 50.2626 17.1434 51.9843 16.3638 53.3161C15.6166 54.648 13.9924 54.8754 12.5306 54.3557Z" fill="white"/>
</g>
<g opacity="0.5">
<path opacity="0.5" d="M5.74121 52.9264L6.42339 47.3065L6.48836 47.274C9.02217 46.267 12.7579 47.9237 15.2267 48.9957C15.649 49.1906 16.0713 49.353 16.3962 49.5155C18.7351 50.49 21.0415 49.0282 21.139 48.8008L21.3339 48.8333L20.6842 54.9404L20.6192 54.9729C17.0134 56.2398 13.3426 55.2653 11.2961 54.0633C9.3795 52.9264 5.87115 52.9264 5.83866 52.9264H5.74121ZM6.58581 47.4364L5.93612 52.7314C6.55333 52.7314 9.60689 52.8289 11.3935 53.9009C13.4076 55.0703 16.9809 56.0124 20.5217 54.8105L21.1065 49.1257C20.944 49.2556 20.6842 49.3855 20.6192 49.418C20.0994 49.6779 18.2153 50.5225 16.2987 49.7104C15.9414 49.5804 15.5516 49.3855 15.0968 49.1906C12.7254 48.0861 9.05465 46.4944 6.58581 47.4364Z" fill="white"/>
</g>
<path d="M45.7625 8C45.7625 8 46.1848 11.3134 42.8389 13.5549C40.7599 14.9517 37.1541 18.1677 37.9662 19.8894L42.3191 23.2678C42.3191 23.2678 44.0083 20.4092 46.8995 18.6875C49.7257 16.9658 51.4473 12.0931 51.4473 12.0931L45.7625 8Z" fill="#4B71A4"/>
<g opacity="0.4">
<path opacity="0.4" d="M46.4117 18.0702C45.0149 19.2072 43.1632 18.6225 42.481 17.4205C41.7989 16.2186 42.7734 14.3994 43.9753 13.7498C45.1773 13.0676 46.6716 13.5224 47.3537 14.6918C48.0359 15.8937 47.4837 17.1931 46.4117 18.0702Z" fill="white"/>
</g>
<g opacity="0.5">
<path opacity="0.5" d="M42.2212 22.5531L38.2905 19.4671V19.4021C38.6803 17.0307 41.6364 14.9517 43.5855 13.5873C43.9104 13.3599 44.2352 13.1326 44.4951 12.9376C46.2818 11.6058 46.2493 9.20191 46.1193 9.03948L46.2493 8.90955L50.5697 12.158V12.223C49.8876 15.5364 47.4837 17.8753 45.6321 18.8499C43.9104 19.7919 42.2861 22.4232 42.2861 22.4557L42.2212 22.5531ZM38.453 19.4021L42.1562 22.2932C42.4486 21.806 43.9104 19.5645 45.5346 18.6874C47.3213 17.7129 49.6602 15.439 50.3748 12.223L46.3467 9.16942C46.3792 9.36433 46.3467 9.59172 46.3467 9.65669C46.3142 10.1764 46.0869 11.9631 44.5926 13.0676C44.3327 13.2625 44.0078 13.4899 43.6505 13.7173C41.7664 15.0816 38.8753 17.1282 38.453 19.4021Z" fill="white"/>
</g>
<path d="M127.937 133.509H111.429V137.08H127.937V133.509Z" fill="#263238"/>
<path d="M117.976 133.509L118.226 137.08H120.576L120.67 133.509H117.976Z" fill="#E0E0E0"/>
<path d="M123.928 133.509H107.419V137.08H123.928V133.509Z" fill="#455A64"/>
<path d="M123.865 134.072C123.865 134.104 120.2 134.166 115.658 134.166C111.116 134.166 107.451 134.135 107.451 134.072C107.451 134.041 111.116 133.978 115.658 133.978C120.2 134.01 123.865 134.041 123.865 134.072Z" fill="#263238"/>
<path d="M123.865 134.887C123.865 134.918 120.2 134.981 115.658 134.981C111.116 134.981 107.451 134.949 107.451 134.887C107.451 134.824 111.116 134.793 115.658 134.793C120.169 134.824 123.865 134.855 123.865 134.887Z" fill="#263238"/>
<path d="M123.865 135.701C123.865 135.733 120.2 135.795 115.658 135.795C111.116 135.795 107.451 135.764 107.451 135.701C107.451 135.67 111.116 135.607 115.658 135.607C120.169 135.639 123.865 135.67 123.865 135.701Z" fill="#263238"/>
<path d="M123.865 136.516C123.865 136.547 120.2 136.61 115.658 136.61C111.116 136.61 107.451 136.579 107.451 136.516C107.451 136.453 111.116 136.422 115.658 136.422C120.169 136.453 123.865 136.485 123.865 136.516Z" fill="#263238"/>
<path d="M113.966 133.509L114.248 137.08H116.566L116.691 133.509H113.966Z" fill="#E0E0E0"/>
<path d="M129.911 130H113.403V133.571H129.911V130Z" fill="#263238"/>
<path d="M119.982 130L120.232 133.571H122.582L122.676 130H119.982Z" fill="#E0E0E0"/>
<path d="M125.933 130H109.425V133.571H125.933V130Z" fill="#455A64"/>
<path d="M125.87 130.564C125.87 130.595 122.205 130.658 117.663 130.658C113.121 130.658 109.456 130.627 109.456 130.564C109.456 130.533 113.121 130.47 117.663 130.47C122.174 130.47 125.87 130.501 125.87 130.564Z" fill="#263238"/>
<path d="M125.839 131.378C125.839 131.41 122.174 131.472 117.632 131.472C113.089 131.472 109.424 131.441 109.424 131.378C109.424 131.316 113.089 131.284 117.632 131.284C122.174 131.284 125.839 131.316 125.839 131.378Z" fill="#263238"/>
<path d="M125.839 132.193C125.839 132.224 122.174 132.287 117.632 132.287C113.089 132.287 109.424 132.255 109.424 132.193C109.424 132.161 113.089 132.099 117.632 132.099C122.174 132.099 125.839 132.13 125.839 132.193Z" fill="#263238"/>
<path d="M125.839 133.007C125.839 133.039 122.174 133.101 117.632 133.101C113.089 133.101 109.424 133.07 109.424 133.007C109.424 132.976 113.089 132.913 117.632 132.913C122.174 132.913 125.839 132.945 125.839 133.007Z" fill="#263238"/>
<path d="M115.971 130L116.222 133.571H118.571L118.697 130H115.971Z" fill="#E0E0E0"/>
<path d="M128.815 140.62H112.306V144.191H128.815V140.62Z" fill="#263238"/>
<path d="M118.854 140.62L119.104 144.191H121.454L121.579 140.62H118.854Z" fill="#E0E0E0"/>
<path d="M124.805 140.62H108.297V144.191H124.805V140.62Z" fill="#455A64"/>
<path d="M124.743 141.184C124.743 141.215 121.078 141.278 116.535 141.278C111.993 141.278 108.328 141.246 108.328 141.184C108.328 141.121 111.993 141.09 116.535 141.09C121.078 141.09 124.743 141.121 124.743 141.184Z" fill="#263238"/>
<path d="M124.743 141.998C124.743 142.029 121.078 142.092 116.535 142.092C111.993 142.092 108.328 142.061 108.328 141.998C108.328 141.967 111.993 141.904 116.535 141.904C121.078 141.904 124.743 141.967 124.743 141.998Z" fill="#263238"/>
<path d="M124.743 142.812C124.743 142.844 121.078 142.906 116.535 142.906C111.993 142.906 108.328 142.875 108.328 142.812C108.328 142.75 111.993 142.718 116.535 142.718C121.078 142.718 124.743 142.781 124.743 142.812Z" fill="#263238"/>
<path d="M124.743 143.627C124.743 143.658 121.078 143.721 116.535 143.721C111.993 143.721 108.328 143.689 108.328 143.627C108.328 143.595 111.993 143.533 116.535 143.533C121.078 143.533 124.743 143.595 124.743 143.627Z" fill="#263238"/>
<path d="M114.844 140.62L115.126 144.191H117.444L117.569 140.62H114.844Z" fill="#E0E0E0"/>
<path d="M130.82 137.08H114.311V140.651H130.82V137.08Z" fill="#263238"/>
<path d="M120.858 137.08L121.109 140.651H123.458L123.583 137.08H120.858Z" fill="#E0E0E0"/>
<path d="M126.81 137.08H110.302V140.651H126.81V137.08Z" fill="#455A64"/>
<path d="M126.747 137.644C126.747 137.675 123.082 137.738 118.54 137.738C113.998 137.738 110.333 137.706 110.333 137.644C110.333 137.612 113.998 137.55 118.54 137.55C123.082 137.581 126.747 137.612 126.747 137.644Z" fill="#263238"/>
<path d="M126.747 138.458C126.747 138.489 123.082 138.552 118.54 138.552C113.998 138.552 110.333 138.521 110.333 138.458C110.333 138.395 113.998 138.364 118.54 138.364C123.051 138.395 126.747 138.427 126.747 138.458Z" fill="#263238"/>
<path d="M126.747 139.273C126.747 139.304 123.082 139.367 118.54 139.367C113.998 139.367 110.333 139.335 110.333 139.273C110.333 139.241 113.998 139.179 118.54 139.179C123.051 139.21 126.747 139.241 126.747 139.273Z" fill="#263238"/>
<path d="M126.747 140.087C126.747 140.118 123.082 140.181 118.54 140.181C113.998 140.181 110.333 140.15 110.333 140.087C110.333 140.056 113.998 139.993 118.54 139.993C123.051 140.024 126.747 140.056 126.747 140.087Z" fill="#263238"/>
<path d="M116.848 137.08L117.13 140.651H119.448L119.573 137.08H116.848Z" fill="#E0E0E0"/>
<path d="M117.694 137.049H101.186V140.62H117.694V137.049Z" fill="#4B71A4"/>
<path opacity="0.2" d="M117.694 137.049H101.186V140.62H117.694V137.049Z" fill="black"/>
<path d="M107.733 137.048L108.015 140.62H110.364L110.458 137.048H107.733Z" fill="#E0E0E0"/>
<path d="M115.908 140.62H99.3997V144.191H115.908V140.62Z" fill="#4B71A4"/>
<path opacity="0.2" d="M115.908 140.62H99.3997V144.191H115.908V140.62Z" fill="black"/>
<path d="M105.947 140.62L106.197 144.191H108.547L108.672 140.62H105.947Z" fill="#E0E0E0"/>
<path d="M111.899 140.62H95.3901V144.191H111.899V140.62Z" fill="#4B71A4"/>
<g opacity="0.2">
<path opacity="0.2" d="M111.836 141.183C111.836 141.215 108.171 141.277 103.628 141.277C99.0862 141.277 95.4211 141.246 95.4211 141.183C95.4211 141.121 99.0862 141.089 103.628 141.089C108.171 141.089 111.836 141.121 111.836 141.183Z" fill="black"/>
</g>
<g opacity="0.2">
<path opacity="0.2" d="M111.836 141.998C111.836 142.029 108.171 142.092 103.628 142.092C99.0862 142.092 95.4211 142.061 95.4211 141.998C95.4211 141.967 99.0862 141.904 103.628 141.904C108.139 141.904 111.836 141.967 111.836 141.998Z" fill="black"/>
</g>
<g opacity="0.2">
<path opacity="0.2" d="M111.836 142.812C111.836 142.844 108.171 142.906 103.628 142.906C99.0862 142.906 95.4211 142.875 95.4211 142.812C95.4211 142.75 99.0862 142.718 103.628 142.718C108.139 142.718 111.836 142.781 111.836 142.812Z" fill="black"/>
</g>
<g opacity="0.2">
<path opacity="0.2" d="M111.836 143.627C111.836 143.658 108.171 143.721 103.628 143.721C99.0862 143.721 95.4211 143.689 95.4211 143.627C95.4211 143.595 99.0862 143.533 103.628 143.533C108.139 143.533 111.836 143.595 111.836 143.627Z" fill="black"/>
</g>
<path d="M101.937 140.62L102.219 144.191H104.537L104.663 140.62H101.937Z" fill="#E0E0E0"/>
<path d="M114.279 137.049H97.7708V140.62H114.279V137.049Z" fill="#4B71A4"/>
<g opacity="0.2">
<path opacity="0.2" d="M114.217 137.612C114.217 137.644 110.552 137.706 106.01 137.706C101.468 137.706 97.8025 137.675 97.8025 137.612C97.8025 137.55 101.468 137.518 106.01 137.518C110.552 137.518 114.217 137.581 114.217 137.612Z" fill="black"/>
</g>
<g opacity="0.2">
<path opacity="0.2" d="M114.217 138.427C114.217 138.458 110.552 138.521 106.01 138.521C101.468 138.521 97.8025 138.489 97.8025 138.427C97.8025 138.395 101.468 138.333 106.01 138.333C110.521 138.333 114.217 138.395 114.217 138.427Z" fill="black"/>
</g>
<g opacity="0.2">
<path opacity="0.2" d="M114.217 139.241C114.217 139.273 110.552 139.335 106.01 139.335C101.468 139.335 97.8025 139.304 97.8025 139.241C97.8025 139.179 101.468 139.147 106.01 139.147C110.521 139.179 114.217 139.21 114.217 139.241Z" fill="black"/>
</g>
<g opacity="0.2">
<path opacity="0.2" d="M114.217 140.056C114.217 140.087 110.552 140.15 106.01 140.15C101.468 140.15 97.8025 140.118 97.8025 140.056C97.8025 140.024 101.468 139.962 106.01 139.962C110.521 139.993 114.217 140.024 114.217 140.056Z" fill="black"/>
</g>
<path d="M104.318 137.048L104.6 140.62H106.918L107.043 137.048H104.318Z" fill="#E0E0E0"/>
<path d="M39.5984 140.54H23.0898V144.111H39.5984V140.54Z" fill="#263238"/>
<path d="M29.6375 140.54L29.9194 144.111H32.2375L32.3628 140.54H29.6375Z" fill="#E0E0E0"/>
<path d="M35.5894 140.54H19.0808V144.111H35.5894V140.54Z" fill="#455A64"/>
<path d="M35.5259 141.104C35.5259 141.135 31.8608 141.198 27.3186 141.198C22.7764 141.198 19.1113 141.166 19.1113 141.104C19.1113 141.041 22.7764 141.01 27.3186 141.01C31.8608 141.01 35.5259 141.041 35.5259 141.104Z" fill="#263238"/>
<path d="M35.5259 141.918C35.5259 141.949 31.8608 142.012 27.3186 142.012C22.7764 142.012 19.1113 141.981 19.1113 141.918C19.1113 141.887 22.7764 141.824 27.3186 141.824C31.8608 141.824 35.5259 141.887 35.5259 141.918Z" fill="#263238"/>
<path d="M35.5259 142.733C35.5259 142.764 31.8608 142.827 27.3186 142.827C22.7764 142.827 19.1113 142.795 19.1113 142.733C19.1113 142.67 22.7764 142.639 27.3186 142.639C31.8608 142.639 35.5259 142.701 35.5259 142.733Z" fill="#263238"/>
<path d="M35.5259 143.547C35.5259 143.578 31.8608 143.641 27.3186 143.641C22.7764 143.641 19.1113 143.61 19.1113 143.547C19.1113 143.516 22.7764 143.453 27.3186 143.453C31.8608 143.453 35.5259 143.516 35.5259 143.547Z" fill="#263238"/>
<path d="M25.6587 140.54L25.9093 144.111H28.2587L28.3527 140.54H25.6587Z" fill="#F5F5F5"/>
<path d="M37.5943 137H21.0857V140.571H37.5943V137Z" fill="#263238"/>
<path d="M27.6323 137L27.9143 140.571H30.2323L30.3577 137H27.6323Z" fill="#E0E0E0"/>
<path d="M33.5848 137H17.0762V140.571H33.5848V137Z" fill="#455A64"/>
<path d="M33.522 137.564C33.522 137.595 29.8569 137.658 25.3147 137.658C20.7725 137.658 17.1074 137.626 17.1074 137.564C17.1074 137.532 20.7725 137.47 25.3147 137.47C29.8569 137.501 33.522 137.532 33.522 137.564Z" fill="#263238"/>
<path d="M33.522 138.378C33.522 138.41 29.8569 138.472 25.3147 138.472C20.7725 138.472 17.1074 138.441 17.1074 138.378C17.1074 138.316 20.7725 138.284 25.3147 138.284C29.8569 138.316 33.522 138.347 33.522 138.378Z" fill="#263238"/>
<path d="M33.522 139.193C33.522 139.224 29.8569 139.287 25.3147 139.287C20.7725 139.287 17.1074 139.255 17.1074 139.193C17.1074 139.161 20.7725 139.099 25.3147 139.099C29.8569 139.13 33.522 139.161 33.522 139.193Z" fill="#263238"/>
<path d="M33.522 140.007C33.522 140.039 29.8569 140.101 25.3147 140.101C20.7725 140.101 17.1074 140.07 17.1074 140.007C17.1074 139.976 20.7725 139.913 25.3147 139.913C29.8569 139.945 33.522 139.976 33.522 140.007Z" fill="#263238"/>
<path d="M23.6226 137L23.9045 140.571H26.2539L26.3479 137H23.6226Z" fill="#F5F5F5"/>
<path d="M78.2507 43.6911L87.8214 46.1794C87.8214 46.1794 95.746 37.4127 96.0905 37.1064C96.4733 36.8002 101.335 38.3315 101.335 38.3315L95.6694 48.7444C94.3295 52.1516 92.3388 54.0657 90.3864 54.1423L74.6904 51.0414L78.2507 43.6911Z" fill="#FFBE9D"/>
<path d="M95.7842 37.4508C95.7842 37.4508 96.8944 35.2687 97.0475 34.9241C97.4303 34.0819 98.0046 31.9764 98.0046 31.9764C98.0046 31.9764 98.6554 31.8232 98.6171 33.278C98.5788 34.7327 98.8851 34.3116 98.8851 34.3116C98.8851 34.3116 101.909 30.6365 102.637 30.8662C102.905 30.9427 102.522 31.8232 102.024 32.2826C101.527 32.742 100.991 33.5077 100.991 33.5077C100.991 33.5077 103.824 30.9427 104.474 31.3638C104.474 31.3638 104.781 31.6318 103.9 32.3592C102.637 33.3928 101.795 34.3882 101.795 34.3882C101.795 34.3882 104.628 32.3975 104.934 32.6272C105.47 32.9717 102.599 35.0007 102.139 35.7664C102.139 35.7664 104.283 34.1202 104.321 34.6562C104.36 35.1921 101.718 37.0297 100.531 39.6712L95.7842 37.4508Z" fill="#FFBE9D"/>
<path d="M98.0432 34.7325C98.0432 34.6942 98.2729 34.7708 98.5792 35.0388C98.8471 35.3068 99.1917 35.8044 99.1917 36.417L99.0003 36.3404C99.4214 35.881 99.9191 35.6513 100.302 35.5747C100.685 35.4982 100.914 35.5747 100.914 35.5747C100.914 35.613 100.685 35.613 100.302 35.6896C99.9574 35.7661 99.4597 35.9958 99.1151 36.417L98.962 36.6084V36.3404C98.962 35.8044 98.694 35.345 98.4643 35.0771C98.2346 34.8474 98.0432 34.7708 98.0432 34.7325Z" fill="#EB996E"/>
<path d="M53.7877 43.27L44.217 45.7584C44.217 45.7584 36.2924 36.9917 35.9479 36.6854C35.565 36.3791 30.7031 37.9104 30.7031 37.9104L36.3307 48.3234C37.6706 51.7305 39.6613 53.6447 41.6137 53.7212L57.3097 50.6203L53.7877 43.27Z" fill="#FFBE9D"/>
<path d="M36.216 37.0684C36.216 37.0684 35.1058 34.8862 34.9526 34.5417C34.5698 33.6995 33.9956 31.5939 33.9956 31.5939C33.9956 31.5939 33.3448 31.4408 33.383 32.8955C33.4213 34.3503 33.1151 33.9292 33.1151 33.9292C33.1151 33.9292 30.0907 30.254 29.3634 30.4837C29.0954 30.5603 29.4782 31.4408 29.9759 31.9002C30.4736 32.3596 31.0095 33.1252 31.0095 33.1252C31.0095 33.1252 28.1766 30.5603 27.5258 30.9814C27.5258 30.9814 27.2195 31.2494 28.1 31.9768C29.3634 33.0104 30.2056 34.0057 30.2056 34.0057C30.2056 34.0057 27.3727 32.015 27.0664 32.2447C26.5304 32.5893 29.4016 34.6183 29.861 35.3839C29.861 35.3839 27.7172 33.7378 27.6789 34.2737C27.6406 34.8097 30.2821 36.6473 31.4689 39.2888L36.216 37.0684Z" fill="#FFBE9D"/>
<path d="M33.9574 34.312C33.9574 34.3503 33.766 34.4651 33.5363 34.7331C33.3066 35.0011 33.0386 35.4605 33.0386 35.9965V36.2644L32.8855 36.073C32.5026 35.6519 32.0432 35.4222 31.6987 35.3457C31.3542 35.2308 31.0862 35.2691 31.0862 35.2308C31.0862 35.1925 31.3159 35.1542 31.6987 35.2308C32.0815 35.3074 32.6175 35.4988 33.0003 35.9965L32.8089 36.073C32.8089 35.4605 33.1534 34.9628 33.4214 34.6948C33.7277 34.3503 33.9574 34.312 33.9574 34.312Z" fill="#EB996E"/>
<path d="M69.9049 30.7133C69.8283 30.943 69.9049 31.2109 70.058 31.3641C70.2111 31.5172 70.4791 31.5555 70.7088 31.4789C71.1299 31.2875 71.2065 30.7516 71.1299 30.3304C71.0916 29.9093 70.9385 29.4117 71.1682 29.0288C71.3213 28.7226 71.6276 28.5694 71.8956 28.3397C72.3167 27.9569 72.5846 27.3444 72.5081 26.7701C72.4315 26.1959 72.0487 25.6599 71.4744 25.4685C70.9002 25.2771 70.1728 25.4302 69.79 24.9709C69.4837 24.6646 69.522 24.1669 69.2923 23.7841C68.9478 23.2098 68.1821 23.0567 67.493 23.1333C66.8039 23.1716 66.1149 23.363 65.5023 23.1716C64.9664 23.0184 64.5453 22.5973 64.0476 22.3293C62.9757 21.7551 61.5209 21.9465 60.6404 22.7887C59.7599 23.631 59.4919 25.0474 59.9896 26.1576C60.181 26.5404 60.449 26.9233 60.8701 27.1147" fill="#263238"/>
<path d="M69.2165 42.1215L62.8615 41.6239C62.8232 40.8965 62.8615 38.0253 62.8615 38.0253C62.8615 38.0253 60.22 37.6042 60.1817 34.9627C60.1434 32.3211 60.6028 26.2725 60.6028 26.2725C63.6654 24.9708 67.1875 25.392 69.829 27.4209L70.2118 27.7272L69.2165 42.1215Z" fill="#FFBE9D"/>
<path d="M61.713 30.7516C61.8662 30.5984 61.8662 30.3687 61.7513 30.2156C61.5982 30.0625 61.3685 30.0625 61.2154 30.1773C61.0622 30.3305 61.0622 30.5602 61.1771 30.7133C61.3302 30.8664 61.5599 30.9047 61.713 30.7516Z" fill="#263238"/>
<path d="M60.6025 30.2537C60.6408 30.292 60.9088 30.1006 61.2534 30.1006C61.5979 30.1006 61.8659 30.292 61.9042 30.2537C61.9424 30.2154 61.8659 30.1389 61.751 30.0623C61.6362 29.9857 61.4448 29.9092 61.2151 29.9092C60.9854 29.9092 60.794 29.9857 60.6791 30.1006C60.6408 30.1772 60.6025 30.2537 60.6025 30.2537Z" fill="#263238"/>
<path d="M65.1201 30.3305C64.9287 30.4453 64.8904 30.675 65.0053 30.8664C65.1201 31.0578 65.3498 31.0961 65.5412 30.9813C65.7326 30.8664 65.7709 30.6367 65.6561 30.4453C65.5412 30.2539 65.2733 30.2156 65.1201 30.3305Z" fill="#263238"/>
<path d="M64.5457 30.4455C64.5839 30.4838 64.8519 30.2924 65.1965 30.2924C65.541 30.2924 65.809 30.4838 65.8473 30.4455C65.8855 30.4072 65.809 30.3307 65.6941 30.2541C65.5793 30.1775 65.3879 30.101 65.1582 30.101C64.9285 30.101 64.7371 30.1775 64.6222 30.2924C64.5839 30.3689 64.5457 30.4455 64.5457 30.4455Z" fill="#263238"/>
<path d="M63.0908 33.508C63.0908 33.4697 62.8611 33.4314 62.5165 33.3931C62.4399 33.3931 62.3634 33.3549 62.3251 33.3166C62.3251 33.2783 62.3634 33.1635 62.4017 33.0486C62.4782 32.8189 62.5931 32.5509 62.7079 32.3212C63.0908 31.2876 63.397 30.4071 63.3204 30.3688C63.2822 30.3305 62.8993 31.1727 62.5165 32.2447C62.4399 32.5126 62.3251 32.7423 62.2485 32.972C62.2103 33.0869 62.1337 33.2017 62.2103 33.3549C62.2485 33.4314 62.3251 33.508 62.3634 33.508C62.4399 33.508 62.4782 33.508 62.5165 33.5463C62.8611 33.5463 63.0908 33.5463 63.0908 33.508Z" fill="#263238"/>
<path d="M64.2773 33.9291C63.8179 34.1205 63.2437 34.3502 62.478 34.465C62.478 34.465 62.8991 35.1541 63.6648 34.8479C64.4687 34.5416 64.2773 33.9291 64.2773 33.9291Z" fill="white"/>
<path d="M62.8997 37.9869C62.8997 37.9869 64.5841 38.1401 66.3451 36.9916C66.3451 36.9916 65.5412 38.9057 62.8997 38.6377V37.9869Z" fill="#EB996E"/>
<path d="M60.6025 26.9234C60.6025 26.9234 62.1339 27.8039 64.316 26.9234C65.7324 26.3492 67.3403 26.1195 67.6849 26.4257C68.0294 26.732 67.9911 28.1484 69.2927 28.6461C69.2927 28.6461 68.9865 31.3259 70.0967 31.3259C71.1686 31.3259 70.8241 27.1148 70.8241 27.1148L68.2974 25.6601L65.4645 24.8944L62.7464 25.0858L60.6025 25.5069V26.9234Z" fill="#263238"/>
<path d="M69.9049 30.4836C69.9432 30.4454 71.7042 29.9477 71.6659 31.747C71.5893 33.5463 69.8283 33.1252 69.79 33.0869C69.8283 33.0103 69.9049 30.4836 69.9049 30.4836Z" fill="#FFBE9D"/>
<path d="M70.4033 32.3977C70.4033 32.3977 70.4416 32.436 70.4799 32.436C70.5182 32.4743 70.633 32.4743 70.7096 32.436C70.901 32.3595 71.0541 32.0915 71.0924 31.7469C71.0924 31.5938 71.0541 31.4407 71.0158 31.2875C70.9776 31.1727 70.901 31.0578 70.7861 31.0578C70.7096 31.0196 70.633 31.0961 70.5947 31.1344C70.5565 31.1727 70.5947 31.211 70.5564 31.211C70.5564 31.211 70.5182 31.1727 70.5182 31.0961C70.5182 31.0578 70.5565 31.0196 70.5947 30.9813C70.633 30.943 70.7096 30.943 70.7861 30.943C70.9393 30.943 71.0541 31.0961 71.0924 31.2493C71.169 31.4024 71.2073 31.5555 71.169 31.7469C71.1307 32.0915 70.9393 32.436 70.6713 32.5126C70.5565 32.5509 70.4416 32.5126 70.4033 32.4743C70.4033 32.436 70.4033 32.3977 70.4033 32.3977Z" fill="#EB996E"/>
<path d="M71.1303 24.8946C71.1303 24.9328 70.8623 24.9328 70.5561 25.0094C70.2498 25.086 70.0584 25.2774 70.0201 25.2391C69.9818 25.2008 70.135 24.9328 70.5178 24.818C70.8623 24.7031 71.1686 24.818 71.1303 24.8946Z" fill="#263238"/>
<path d="M70.1351 23.7461C70.1734 23.7461 70.2883 24.1289 70.1734 24.5883C70.0969 25.086 69.7906 25.354 69.7523 25.3157C69.714 25.2774 69.9055 24.9711 69.982 24.55C70.0586 24.1289 70.0586 23.7461 70.1351 23.7461Z" fill="#263238"/>
<path d="M62.3635 29.603C62.3252 29.7178 61.9806 29.603 61.5595 29.603C61.1384 29.5647 60.7939 29.6413 60.7556 29.5264C60.7173 29.4499 61.0618 29.1819 61.5978 29.1819C62.0955 29.2202 62.44 29.5264 62.3635 29.603Z" fill="#263238"/>
<path d="M66.4216 29.297C66.3833 29.4118 66.0387 29.297 65.6176 29.297C65.1965 29.2587 64.852 29.3353 64.8137 29.2204C64.7754 29.1438 65.12 28.8759 65.6559 28.8759C66.1536 28.8759 66.4981 29.1821 66.4216 29.297Z" fill="#263238"/>
<path d="M81.3518 140.7L81.9643 143.341C81.9643 143.341 86.2903 148.931 87.6302 148.663C88.5107 148.471 87.4388 147.016 85.7926 142.767L85.4481 141.006L81.3518 140.7Z" fill="#4B71A4"/>
<path d="M87.8215 147.859C87.8215 147.859 87.8215 147.897 87.7832 147.935C87.745 147.973 87.7067 148.05 87.5918 148.088C87.5153 148.127 87.3621 148.165 87.209 148.165C87.0559 148.165 86.8645 148.088 86.7113 147.973C86.0988 147.514 85.3331 146.787 84.5292 145.944C83.7253 145.102 83.0745 144.298 82.6151 143.686C82.3854 143.38 82.194 143.15 82.0791 142.958C82.0408 142.882 82.0025 142.805 81.926 142.767C81.8877 142.729 81.8877 142.69 81.8877 142.69C81.8877 142.69 81.926 142.729 81.926 142.767C81.9643 142.844 82.0408 142.882 82.0791 142.958C82.2322 143.15 82.4237 143.418 82.6151 143.686C83.0745 144.298 83.7636 145.102 84.5675 145.944C85.3714 146.787 86.1371 147.514 86.7113 147.973C87.0176 148.203 87.3621 148.203 87.5535 148.088C87.745 147.973 87.7832 147.859 87.8215 147.859Z" fill="#263238"/>
<path d="M87.2089 146.059C87.2089 146.059 87.0558 146.059 86.8644 146.059C86.6347 146.098 86.3667 146.174 86.0987 146.366C85.8307 146.519 85.601 146.748 85.5245 146.94C85.4096 147.131 85.4096 147.246 85.3713 147.246C85.3713 147.246 85.3713 147.093 85.4479 146.902C85.5245 146.71 85.7542 146.442 86.0221 146.289C86.3284 146.098 86.5964 146.021 86.8261 146.021C87.0558 145.983 87.2089 146.059 87.2089 146.059Z" fill="#263238"/>
<path d="M83.1125 144.719C83.1125 144.719 83.1507 144.528 83.189 144.222C83.2273 143.915 83.189 143.494 82.9593 143.073C82.7296 142.652 82.4234 142.384 82.1171 142.231C81.8491 142.078 81.6577 142.078 81.6577 142.078C81.6577 142.078 81.696 142.078 81.8108 142.078C81.8874 142.078 82.0405 142.116 82.1554 142.193C82.4617 142.308 82.8062 142.614 83.0359 143.035C83.2656 143.456 83.3039 143.915 83.2273 144.222C83.189 144.375 83.1507 144.49 83.1507 144.566C83.1125 144.681 83.1125 144.719 83.1125 144.719Z" fill="#263238"/>
<path d="M81.6196 141.159C81.6579 141.159 81.7728 141.504 81.8493 142.001C81.9259 142.461 82.0025 142.844 82.0025 142.844C81.9642 142.844 81.8493 142.499 81.7728 142.001C81.6962 141.542 81.6196 141.159 81.6196 141.159Z" fill="#263238"/>
<path d="M85.8693 143.15C85.8693 143.188 85.6396 143.15 85.3333 143.226C85.0271 143.303 84.8356 143.418 84.7974 143.38C84.7974 143.38 84.9888 143.226 85.295 143.15C85.6013 143.073 85.8693 143.15 85.8693 143.15Z" fill="#263238"/>
<path d="M85.9457 143.609C85.9457 143.648 85.7543 143.609 85.4863 143.686C85.2566 143.724 85.0652 143.839 85.0652 143.839C85.0652 143.839 85.2183 143.686 85.4863 143.609C85.7543 143.533 85.9457 143.571 85.9457 143.609Z" fill="#263238"/>
<path d="M86.2899 144.184C86.2899 144.222 86.0602 144.145 85.8305 144.184C85.5625 144.222 85.4094 144.375 85.4094 144.375C85.4094 144.375 85.5243 144.184 85.8305 144.107C86.0985 144.03 86.2899 144.145 86.2899 144.184Z" fill="#263238"/>
<path d="M85.5627 142.959C85.5627 142.959 85.5244 142.959 85.4096 142.959C85.333 142.959 85.1799 142.92 85.0268 142.844C84.8736 142.806 84.6822 142.729 84.4908 142.614C84.3759 142.576 84.2994 142.499 84.1845 142.423C84.108 142.346 83.9548 142.27 83.9548 142.078C83.9548 141.925 84.1462 141.848 84.2994 141.887C84.4142 141.925 84.5291 142.002 84.6056 142.078C84.7588 142.231 84.9119 142.384 84.9885 142.499C85.1033 142.614 85.1799 142.729 85.2182 142.806C85.2565 142.882 85.2947 142.92 85.2947 142.92C85.2947 142.92 85.1799 142.767 84.9502 142.499C84.8353 142.384 84.7205 142.231 84.5291 142.078C84.4525 142.002 84.376 141.925 84.2611 141.887C84.1463 141.848 84.0314 141.925 84.0314 142.002C84.0314 142.116 84.108 142.193 84.2228 142.27C84.2994 142.346 84.4142 142.384 84.4908 142.461C84.6822 142.576 84.8736 142.652 85.0268 142.729C85.3713 142.92 85.5627 142.959 85.5627 142.959Z" fill="#263238"/>
<path d="M85.3333 142.92C85.3333 142.92 85.3333 142.882 85.3333 142.805C85.3333 142.729 85.3333 142.614 85.3715 142.461C85.4098 142.308 85.4098 142.116 85.5247 141.925C85.5629 141.848 85.6012 141.734 85.6778 141.657C85.7544 141.58 85.8692 141.466 86.0223 141.542C86.1372 141.619 86.1372 141.772 86.1372 141.887C86.1372 142.001 86.0989 142.116 86.0606 142.193C85.9841 142.384 85.8692 142.537 85.7544 142.652C85.6395 142.767 85.5629 142.844 85.4864 142.882C85.3715 142.882 85.3333 142.92 85.3333 142.92C85.3333 142.92 85.4864 142.805 85.6778 142.576C85.7926 142.461 85.8692 142.308 85.9458 142.155C85.9841 142.078 86.0223 141.963 86.0223 141.848C86.0223 141.734 86.0223 141.619 85.9458 141.58C85.8692 141.542 85.7544 141.58 85.7161 141.657C85.6395 141.734 85.6012 141.81 85.563 141.925C85.4864 142.116 85.4481 142.269 85.4098 142.423C85.3715 142.729 85.3333 142.92 85.3333 142.92Z" fill="#263238"/>
<g opacity="0.4">
<path opacity="0.4" d="M81.964 143.341L81.6577 142.078C81.6577 142.078 82.7296 142.269 82.9976 143.073C83.2656 143.877 83.189 144.413 83.189 144.413L85.486 146.902C85.486 146.902 86.0602 145.791 87.0939 146.059C87.0939 146.059 87.8978 147.859 87.8978 148.318C87.8595 148.816 87.3618 148.701 87.1704 148.624C87.0939 148.586 86.0985 148.012 85.1032 147.016C83.9164 145.715 82.5765 144.107 81.964 143.341Z" fill="black"/>
</g>
<path d="M59.8749 142.039L59.8366 138.517L66.4212 138.441L66.4978 143.609L66.0767 143.647C64.2774 143.762 56.8122 144.145 55.5872 143.801C54.2856 143.379 59.8749 142.039 59.8749 142.039Z" fill="#4B71A4"/>
<g opacity="0.4">
<g opacity="0.4">
<g opacity="0.4">
<path opacity="0.4" d="M64.1624 143.571C64.2389 143.035 64.5452 142.499 65.0046 142.154C65.4257 141.81 65.9999 141.619 66.5359 141.657L66.5742 143.494L64.1624 143.571Z" fill="black"/>
</g>
</g>
</g>
<g opacity="0.4">
<path opacity="0.4" d="M57.1568 142.805C57.1568 142.805 55.2044 143.379 55.4341 143.724C55.6638 144.03 63.2055 143.954 66.5361 143.609V143.456L57.7693 143.647C57.7693 143.647 57.5396 142.805 57.1568 142.805Z" fill="black"/>
</g>
<path d="M66.651 143.456C66.651 143.456 66.6127 143.456 66.5362 143.456C66.4213 143.456 66.3448 143.456 66.2299 143.495C65.8854 143.495 65.5026 143.533 65.0432 143.571C64.0478 143.609 62.6313 143.686 61.1 143.686C59.5687 143.724 58.1523 143.686 57.1569 143.686C56.6975 143.686 56.2764 143.648 55.9701 143.648C55.8553 143.648 55.7404 143.648 55.6256 143.648C55.549 143.648 55.5107 143.648 55.5107 143.648C55.5107 143.648 55.549 143.648 55.6256 143.648C55.7404 143.648 55.817 143.648 55.9701 143.648C56.3147 143.648 56.6975 143.648 57.1569 143.648C58.1523 143.648 59.5687 143.648 61.1 143.648C62.6313 143.609 64.0478 143.571 65.0432 143.533C65.5026 143.533 65.9237 143.495 66.2299 143.495C66.3448 143.495 66.4596 143.495 66.5745 143.495C66.6128 143.418 66.651 143.456 66.651 143.456Z" fill="#263238"/>
<path d="M57.7695 143.724C57.7312 143.724 57.7312 143.456 57.5398 143.15C57.3484 142.844 57.1187 142.729 57.1187 142.69C57.1187 142.652 57.4249 142.805 57.6163 143.112C57.8077 143.418 57.7695 143.724 57.7695 143.724Z" fill="#263238"/>
<path d="M59.6834 142.729C59.6834 142.729 59.5685 142.614 59.4537 142.461C59.3388 142.307 59.3005 142.193 59.3005 142.154C59.3005 142.154 59.4154 142.269 59.5302 142.422C59.6451 142.575 59.7216 142.729 59.6834 142.729Z" fill="#263238"/>
<path d="M60.2195 142.422C60.2195 142.422 60.1046 142.384 59.9898 142.269C59.8749 142.154 59.7983 142.078 59.7983 142.04C59.7983 142.04 59.9132 142.078 60.028 142.193C60.1429 142.308 60.2195 142.422 60.2195 142.422Z" fill="#263238"/>
<path d="M60.5636 141.81C60.5636 141.848 60.4105 141.848 60.2191 141.848C60.0276 141.848 59.8745 141.848 59.8745 141.81C59.8745 141.772 60.0276 141.772 60.2191 141.772C60.4105 141.772 60.5636 141.772 60.5636 141.81Z" fill="#263238"/>
<path d="M60.6787 141.351C60.6787 141.389 60.5256 141.465 60.2959 141.465C60.0662 141.504 59.9131 141.427 59.9131 141.427C59.9131 141.389 60.1045 141.427 60.2959 141.389C60.4873 141.389 60.6405 141.351 60.6787 141.351Z" fill="#263238"/>
<path d="M59.4535 142.155C59.4535 142.155 59.3004 142.193 59.0324 142.155C58.9176 142.155 58.7644 142.116 58.573 142.078C58.4964 142.04 58.4199 142.04 58.305 141.963C58.2667 141.925 58.2285 141.887 58.1902 141.848C58.1902 141.772 58.1902 141.695 58.2667 141.695C58.6879 141.465 59.0707 141.695 59.2238 141.925C59.3004 142.04 59.3387 142.116 59.377 142.193C59.377 142.269 59.377 142.308 59.377 142.308C59.377 142.308 59.3387 142.155 59.1855 141.963C59.109 141.887 58.9941 141.772 58.8027 141.733C58.6496 141.695 58.4582 141.695 58.305 141.772C58.2285 141.81 58.2667 141.887 58.3433 141.963C58.4199 142.001 58.4964 142.04 58.573 142.078C58.7261 142.116 58.8793 142.155 58.9941 142.193C59.3004 142.155 59.4535 142.155 59.4535 142.155Z" fill="#263238"/>
<path d="M59.3386 142.154C59.3386 142.154 59.262 142.04 59.3003 141.848C59.3003 141.772 59.3385 141.657 59.4151 141.542C59.4917 141.465 59.5683 141.312 59.7597 141.312C59.8745 141.312 59.9128 141.427 59.8745 141.504C59.8745 141.58 59.8362 141.657 59.7979 141.695C59.7214 141.81 59.6831 141.887 59.6065 141.963C59.4917 142.116 59.3768 142.154 59.3386 142.154C59.3768 142.154 59.4534 142.078 59.5683 141.925C59.6065 141.848 59.6831 141.772 59.7597 141.657C59.798 141.58 59.8362 141.389 59.7597 141.389C59.6448 141.389 59.53 141.504 59.4917 141.58C59.4151 141.657 59.3768 141.772 59.3768 141.848C59.3386 142.078 59.3768 142.154 59.3386 142.154Z" fill="#263238"/>
<path d="M66.4976 141.657C66.4976 141.657 66.3062 141.657 65.9999 141.695C65.6937 141.733 65.3108 141.848 64.928 142.155C64.5835 142.461 64.3538 142.805 64.2772 143.112C64.1623 143.38 64.1624 143.571 64.1624 143.571C64.1624 143.571 64.1624 143.533 64.1624 143.456C64.1624 143.38 64.2006 143.265 64.2389 143.112C64.3155 142.805 64.5452 142.423 64.8897 142.116C65.2726 141.81 65.6937 141.695 65.9999 141.657C66.1531 141.657 66.2679 141.657 66.3445 141.657C66.421 141.619 66.4976 141.619 66.4976 141.657Z" fill="#263238"/>
<path d="M65.7704 138.901C65.8087 138.901 65.8087 139.513 65.847 140.241C65.847 141.006 65.847 141.58 65.847 141.58C65.8087 141.58 65.8087 140.968 65.7704 140.241C65.7321 139.513 65.7321 138.901 65.7704 138.901Z" fill="#263238"/>
<path d="M63.3204 142.92C63.3204 142.958 62.8993 143.035 62.3633 143.035C61.8274 143.035 61.4062 142.996 61.4062 142.958C61.4062 142.92 61.8274 142.958 62.3633 142.958C62.8993 142.958 63.3204 142.92 63.3204 142.92Z" fill="#263238"/>
<path d="M64.6218 142.92C64.6218 142.92 64.5835 142.996 64.5452 143.111C64.5069 143.226 64.4687 143.303 64.4687 143.303C64.4304 143.303 64.4304 143.188 64.4687 143.073C64.5069 142.958 64.5835 142.92 64.6218 142.92Z" fill="#263238"/>
<path d="M65.0808 142.308C65.0808 142.308 65.0425 142.384 65.0042 142.461C64.9276 142.537 64.8511 142.576 64.8511 142.576C64.8511 142.576 64.8894 142.499 64.9276 142.423C65.0042 142.346 65.0808 142.308 65.0808 142.308Z" fill="#263238"/>
<path d="M65.7703 142.04C65.7703 142.078 65.6937 142.078 65.5789 142.116C65.464 142.155 65.4257 142.193 65.3875 142.193C65.3875 142.193 65.4257 142.078 65.5406 142.04C65.6937 141.963 65.8086 142.001 65.7703 142.04Z" fill="#263238"/>
<path d="M66.2681 141.887C66.2681 141.925 66.2298 141.925 66.1915 141.963C66.1532 142.001 66.0767 142.001 66.0767 141.963C66.0767 141.925 66.1149 141.925 66.1532 141.887C66.2298 141.848 66.2681 141.848 66.2681 141.887Z" fill="#263238"/>
<path d="M55.396 72.1351L58.4969 140.508L68.7567 140.738L67.034 83.4668L78.5954 141.197H88.3575L75.3031 72.1351" fill="#263238"/>
<path d="M78.0972 140.24L78.3269 141.274L88.357 141.389L88.2038 139.819L78.0972 140.24Z" fill="#455A64"/>
<path d="M85.9072 140.202C85.9455 140.202 86.022 140.317 86.0603 140.47C86.0986 140.623 86.0603 140.776 86.022 140.776C85.9837 140.776 85.9072 140.661 85.8689 140.508C85.8306 140.355 85.8306 140.202 85.9072 140.202Z" fill="#455A64"/>
<path d="M85.5237 137.943C85.562 137.943 85.6768 138.173 85.7151 138.479C85.7534 138.786 85.7534 139.054 85.7151 139.054C85.6768 139.054 85.562 138.824 85.5237 138.518C85.4471 138.211 85.4854 137.943 85.5237 137.943Z" fill="#455A64"/>
<path d="M85.1415 135.723C85.1798 135.723 85.2946 135.953 85.3329 136.259C85.3712 136.565 85.3712 136.833 85.3329 136.833C85.2946 136.833 85.1798 136.603 85.1415 136.297C85.1032 135.991 85.1032 135.723 85.1415 135.723Z" fill="#455A64"/>
<path d="M84.7587 133.464C84.797 133.464 84.9118 133.694 84.9501 134C84.9884 134.306 84.9884 134.574 84.9501 134.574C84.9118 134.574 84.797 134.345 84.7587 134.038C84.7204 133.732 84.7204 133.464 84.7587 133.464Z" fill="#455A64"/>
<path d="M84.3756 131.244C84.4139 131.244 84.5288 131.474 84.567 131.78C84.6053 132.086 84.6053 132.354 84.567 132.354C84.5288 132.354 84.4139 132.124 84.3756 131.818C84.3374 131.512 84.3374 131.244 84.3756 131.244Z" fill="#455A64"/>
<path d="M84.0308 128.985C84.0691 128.985 84.1839 129.215 84.2222 129.521C84.2605 129.827 84.2605 130.095 84.2222 130.095C84.1839 130.095 84.0691 129.866 84.0308 129.559C83.9542 129.253 83.9542 128.985 84.0308 128.985Z" fill="#455A64"/>
<path d="M83.6485 126.765C83.6868 126.765 83.8016 126.995 83.8399 127.301C83.8782 127.607 83.8782 127.875 83.8399 127.875C83.8016 127.875 83.6868 127.645 83.6485 127.339C83.5719 127.033 83.5719 126.765 83.6485 126.765Z" fill="#455A64"/>
<path d="M83.2654 124.506C83.3037 124.506 83.4186 124.736 83.4568 125.042C83.4951 125.348 83.4951 125.616 83.4568 125.616C83.4186 125.616 83.3037 125.387 83.2654 125.08C83.1889 124.774 83.1889 124.506 83.2654 124.506Z" fill="#455A64"/>
<path d="M82.8824 122.286C82.9207 122.286 83.0355 122.515 83.0738 122.822C83.1121 123.128 83.1121 123.396 83.0738 123.396C83.0355 123.396 82.9207 123.166 82.8824 122.86C82.8058 122.554 82.8058 122.286 82.8824 122.286Z" fill="#455A64"/>
<path d="M82.5001 120.027C82.5383 120.027 82.6532 120.257 82.6915 120.563C82.7297 120.869 82.7297 121.137 82.6915 121.137C82.6532 121.137 82.5383 120.907 82.5001 120.601C82.4235 120.295 82.4235 120.027 82.5001 120.027Z" fill="#455A64"/>
<path d="M82.1172 117.807C82.1555 117.807 82.2704 118.036 82.3087 118.343C82.3469 118.649 82.3469 118.917 82.3087 118.917C82.2704 118.917 82.1555 118.687 82.1172 118.381C82.0407 118.075 82.0407 117.807 82.1172 117.807Z" fill="#455A64"/>
<path d="M81.7342 115.548C81.7725 115.548 81.8873 115.778 81.9256 116.084C81.9639 116.39 81.9639 116.658 81.9256 116.658C81.8873 116.658 81.7725 116.428 81.7342 116.122C81.6576 115.816 81.6576 115.586 81.7342 115.548Z" fill="#455A64"/>
<path d="M81.3131 113.327C81.3514 113.327 81.4663 113.557 81.5045 113.863C81.5428 114.17 81.5428 114.438 81.5045 114.438C81.4663 114.438 81.3514 114.208 81.3131 113.902C81.2749 113.595 81.2749 113.327 81.3131 113.327Z" fill="#455A64"/>
<path d="M80.9308 111.069C80.9691 111.069 81.0839 111.299 81.1222 111.605C81.1605 111.911 81.1605 112.179 81.1222 112.179C81.0839 112.179 80.9691 111.949 80.9308 111.643C80.8925 111.337 80.8925 111.107 80.9308 111.069Z" fill="#455A64"/>
<path d="M80.5473 108.848C80.5855 108.848 80.7004 109.078 80.7387 109.384C80.777 109.691 80.777 109.959 80.7387 109.959C80.7004 109.959 80.5855 109.729 80.5473 109.423C80.509 109.116 80.509 108.848 80.5473 108.848Z" fill="#455A64"/>
<path d="M80.1644 106.59C80.2026 106.59 80.3175 106.819 80.3558 107.126C80.3941 107.432 80.3941 107.7 80.3558 107.7C80.3175 107.7 80.2026 107.47 80.1644 107.164C80.0878 106.858 80.0878 106.628 80.1644 106.59Z" fill="#455A64"/>
<path d="M79.7438 104.369C79.7821 104.369 79.8969 104.599 79.9352 104.905C79.9735 105.212 79.9735 105.48 79.9352 105.48C79.8969 105.48 79.7821 105.25 79.7438 104.944C79.7055 104.637 79.7055 104.369 79.7438 104.369Z" fill="#455A64"/>
<path d="M79.3604 102.149C79.3987 102.149 79.5135 102.379 79.5518 102.685C79.5901 102.991 79.5901 103.259 79.5518 103.259C79.5135 103.259 79.3987 103.029 79.3604 102.723C79.2838 102.417 79.2838 102.149 79.3604 102.149Z" fill="#455A64"/>
<path d="M78.9398 99.8901C78.9781 99.8901 79.093 100.12 79.1313 100.426C79.1695 100.732 79.2078 101 79.1313 101C79.093 101 78.9781 100.771 78.9398 100.464C78.9016 100.158 78.9016 99.9284 78.9398 99.8901Z" fill="#455A64"/>
<path d="M78.5182 97.6699C78.5565 97.6699 78.6713 97.8996 78.7096 98.2059C78.7479 98.5121 78.7862 98.7801 78.7096 98.7801C78.6713 98.7801 78.5565 98.5504 78.5182 98.2442C78.4799 97.9379 78.4799 97.6699 78.5182 97.6699Z" fill="#455A64"/>
<path d="M78.1358 95.4495C78.1741 95.4495 78.2889 95.6792 78.3272 95.9854C78.3655 96.2917 78.4038 96.5597 78.3272 96.5597C78.2889 96.5597 78.1741 96.33 78.1358 96.0237C78.0592 95.7174 78.0592 95.4495 78.1358 95.4495Z" fill="#455A64"/>
<path d="M77.7146 93.1909C77.7529 93.1909 77.8677 93.4206 77.906 93.7269C77.9826 94.0331 77.9826 94.3011 77.906 94.3011C77.8677 94.3011 77.7529 94.0714 77.7146 93.7652C77.6763 93.4589 77.638 93.2292 77.7146 93.1909Z" fill="#455A64"/>
<path d="M77.2938 90.9705C77.3321 90.9705 77.447 91.2002 77.4853 91.5064C77.5618 91.8127 77.5618 92.0807 77.4853 92.0807C77.447 92.0807 77.3321 91.851 77.2938 91.5447C77.2556 91.2384 77.2556 90.9705 77.2938 90.9705Z" fill="#455A64"/>
<path d="M76.8721 88.75C76.9104 88.75 77.0252 88.9797 77.0635 89.286C77.1401 89.5922 77.1401 89.8602 77.0635 89.8602C77.0252 89.8602 76.9104 89.6305 76.8721 89.3242C76.8338 89.018 76.7955 88.75 76.8721 88.75Z" fill="#455A64"/>
<path d="M76.4512 86.4915C76.4895 86.4915 76.6044 86.7211 76.6426 87.0274C76.7192 87.3337 76.7192 87.6017 76.6426 87.6017C76.6044 87.6017 76.4895 87.372 76.4512 87.0657C76.3747 86.7594 76.3747 86.5297 76.4512 86.4915Z" fill="#455A64"/>
<path d="M75.9921 84.271C76.0304 84.271 76.1452 84.5007 76.1835 84.807C76.2601 85.1132 76.2601 85.3812 76.1835 85.3812C76.1452 85.3812 76.0304 85.1515 75.9921 84.8452C75.9538 84.539 75.9538 84.271 75.9921 84.271Z" fill="#455A64"/>
<path d="M75.5705 82.0505C75.6087 82.0505 75.7236 82.2802 75.7619 82.5865C75.8384 82.8928 75.8384 83.1607 75.7619 83.1607C75.7236 83.1607 75.6087 82.931 75.5705 82.6248C75.5322 82.3185 75.5322 82.0505 75.5705 82.0505Z" fill="#455A64"/>
<path d="M75.1115 79.8301C75.1498 79.8301 75.2646 80.0598 75.3029 80.366C75.3795 80.6723 75.3795 80.9403 75.3029 80.9403C75.2646 80.9403 75.1498 80.7106 75.1115 80.4043C75.0732 80.0981 75.0732 79.8301 75.1115 79.8301Z" fill="#455A64"/>
<path d="M74.6905 77.6096C74.7288 77.6096 74.8436 77.8393 74.8819 78.1456C74.9585 78.4518 74.9585 78.7198 74.8819 78.7198C74.8436 78.7198 74.7288 78.4901 74.6905 78.1839C74.6139 77.8776 74.6139 77.6096 74.6905 77.6096Z" fill="#455A64"/>
<path d="M74.2308 75.3511C74.269 75.3511 74.3839 75.5808 74.4605 75.887C74.537 76.1933 74.537 76.4613 74.4605 76.4613C74.4222 76.4613 74.3073 76.2316 74.2308 75.9253C74.1542 75.6191 74.1542 75.3894 74.2308 75.3511Z" fill="#455A64"/>
<path d="M73.8862 73.7047C73.9245 73.7047 74.001 73.8196 74.0393 73.9727C74.0776 74.1258 74.0393 74.279 74.001 74.279C73.9627 74.279 73.8862 74.1641 73.8479 74.011C73.8096 73.8196 73.8096 73.7047 73.8862 73.7047Z" fill="#455A64"/>
<path d="M66.9949 140.163C67.0332 140.163 67.1098 140.278 67.1098 140.431C67.1098 140.585 67.0715 140.738 67.0332 140.738C66.9949 140.738 66.9183 140.623 66.9183 140.47C66.8801 140.317 66.9183 140.202 66.9949 140.163Z" fill="#455A64"/>
<path d="M66.8803 137.905C66.9186 137.905 66.9951 138.173 66.9951 138.479C66.9951 138.785 66.9568 139.053 66.9186 139.053C66.8803 139.053 66.8037 138.785 66.8037 138.479C66.8037 138.173 66.842 137.905 66.8803 137.905Z" fill="#455A64"/>
<path d="M66.8036 135.608C66.8419 135.608 66.9185 135.876 66.9185 136.182C66.9185 136.488 66.8802 136.756 66.8419 136.756C66.8036 136.756 66.7271 136.488 66.7271 136.182C66.7271 135.876 66.7653 135.608 66.8036 135.608Z" fill="#455A64"/>
<path d="M66.7654 133.349C66.8037 133.349 66.8803 133.617 66.8803 133.923C66.8803 134.23 66.842 134.498 66.8037 134.498C66.7654 134.498 66.6888 134.23 66.6888 133.923C66.6506 133.617 66.6889 133.349 66.7654 133.349Z" fill="#455A64"/>
<path d="M66.6889 131.052C66.7271 131.052 66.8037 131.32 66.8037 131.626C66.8037 131.933 66.7654 132.2 66.7271 132.2C66.6889 132.2 66.6123 131.933 66.6123 131.626C66.6123 131.32 66.6506 131.052 66.6889 131.052Z" fill="#455A64"/>
<path d="M66.6507 128.793C66.689 128.793 66.7655 129.061 66.7655 129.368C66.7655 129.674 66.7272 129.942 66.6889 129.942C66.6507 129.942 66.5741 129.674 66.5741 129.368C66.5358 129.023 66.5741 128.793 66.6507 128.793Z" fill="#455A64"/>
<path d="M66.574 126.497C66.6123 126.497 66.6889 126.765 66.6889 127.071C66.6889 127.377 66.6506 127.645 66.6123 127.645C66.574 127.645 66.4974 127.377 66.4974 127.071C66.4592 126.765 66.4974 126.497 66.574 126.497Z" fill="#455A64"/>
<path d="M66.4594 124.238C66.4977 124.238 66.5742 124.506 66.5742 124.812C66.5742 125.118 66.5359 125.386 66.4977 125.386C66.4594 125.386 66.3828 125.118 66.3828 124.812C66.3828 124.467 66.4211 124.238 66.4594 124.238Z" fill="#455A64"/>
<path d="M66.382 121.941C66.4203 121.941 66.4968 122.209 66.4968 122.515C66.4968 122.821 66.4586 123.089 66.4203 123.089C66.382 123.089 66.3054 122.821 66.3054 122.515C66.3054 122.209 66.3437 121.941 66.382 121.941Z" fill="#455A64"/>
<path d="M66.3058 119.682C66.3441 119.682 66.4207 119.95 66.4207 120.256C66.4207 120.563 66.3824 120.831 66.3441 120.831C66.3058 120.831 66.2292 120.563 66.2292 120.256C66.2292 119.912 66.2675 119.682 66.3058 119.682Z" fill="#455A64"/>
<path d="M66.2292 117.385C66.2674 117.385 66.344 117.653 66.344 117.959C66.344 118.266 66.3057 118.534 66.2674 118.534C66.2292 118.534 66.1526 118.266 66.1526 117.959C66.1526 117.653 66.1909 117.385 66.2292 117.385Z" fill="#455A64"/>
<path d="M66.1914 115.088C66.2297 115.088 66.3063 115.356 66.3063 115.662C66.3063 115.969 66.268 116.236 66.2297 116.236C66.1914 116.236 66.1149 115.969 66.1149 115.662C66.0766 115.356 66.1149 115.126 66.1914 115.088Z" fill="#455A64"/>
<path d="M66.1144 112.829C66.1527 112.829 66.2293 113.097 66.2293 113.404C66.2293 113.71 66.191 113.978 66.1527 113.978C66.1144 113.978 66.0378 113.71 66.0378 113.404C66.0378 113.097 66.0761 112.829 66.1144 112.829Z" fill="#455A64"/>
<path d="M66.0763 110.532C66.1146 110.532 66.1912 110.8 66.1912 111.107C66.1912 111.413 66.1529 111.681 66.1146 111.681C66.0763 111.681 65.9998 111.413 65.9998 111.107C65.9998 110.8 66.038 110.532 66.0763 110.532Z" fill="#455A64"/>
<path d="M66.0762 108.274C66.1145 108.274 66.1911 108.542 66.1911 108.848C66.1911 109.154 66.1528 109.422 66.1145 109.422C66.0762 109.422 65.9996 109.154 65.9996 108.848C65.9614 108.504 65.9996 108.274 66.0762 108.274Z" fill="#455A64"/>
<path d="M66.038 105.977C66.0762 105.977 66.1528 106.245 66.1528 106.551C66.1528 106.857 66.1145 107.125 66.038 107.125C65.9997 107.125 65.9231 106.857 65.9231 106.551C65.9614 106.245 65.9997 105.977 66.038 105.977Z" fill="#455A64"/>
<path d="M66.038 103.718C66.0762 103.718 66.1528 103.986 66.1528 104.293C66.1528 104.599 66.1145 104.867 66.038 104.867C65.9997 104.867 65.9231 104.599 65.9231 104.293C65.9231 103.948 65.9997 103.718 66.038 103.718Z" fill="#455A64"/>
<path d="M66.038 101.421C66.0762 101.421 66.1528 101.689 66.1528 101.996C66.1528 102.302 66.1145 102.57 66.038 102.57C65.9997 102.57 65.9231 102.302 65.9231 101.996C65.9614 101.689 65.9997 101.421 66.038 101.421Z" fill="#455A64"/>
<path d="M66.076 99.1624C66.1143 99.1624 66.1908 99.4303 66.1525 99.7366C66.1525 100.043 66.1143 100.311 66.0377 100.311C65.9994 100.311 65.9228 100.043 65.9611 99.7366C65.9611 99.3921 65.9994 99.1624 66.076 99.1624Z" fill="#455A64"/>
<path d="M66.076 96.8655C66.1143 96.8655 66.1908 97.1335 66.1525 97.4397C66.1525 97.746 66.1143 98.014 66.0377 98.014C65.9994 98.014 65.9228 97.746 65.9611 97.4397C65.9994 97.1335 66.0377 96.8655 66.076 96.8655Z" fill="#455A64"/>
<path d="M66.1146 94.5686C66.1529 94.5686 66.1912 94.8366 66.1912 95.1428C66.1912 95.4491 66.1529 95.7171 66.0763 95.7171C66.038 95.7171 65.9998 95.4491 65.9998 95.1428C66.038 94.8366 66.0763 94.5686 66.1146 94.5686Z" fill="#455A64"/>
<path d="M66.1908 92.3098C66.2291 92.3098 66.2673 92.5778 66.2673 92.8841C66.2673 93.1903 66.1908 93.4583 66.1525 93.4583C66.1142 93.4583 66.0759 93.1903 66.0759 92.8841C66.0759 92.5395 66.1142 92.3098 66.1908 92.3098Z" fill="#455A64"/>
<path d="M66.2674 90.0129C66.3057 90.0129 66.344 90.2809 66.344 90.5872C66.344 90.8934 66.2674 91.1614 66.2292 91.1614C66.1909 91.1614 66.1526 90.8934 66.1526 90.5872C66.1526 90.2809 66.1909 90.0129 66.2674 90.0129Z" fill="#455A64"/>
<path d="M66.3824 87.7542C66.4207 87.7542 66.4589 88.0221 66.4589 88.3284C66.4207 88.6347 66.3824 88.9026 66.3058 88.9026C66.2675 88.9026 66.2292 88.6347 66.2292 88.3284C66.2675 87.9838 66.3441 87.7542 66.3824 87.7542Z" fill="#455A64"/>
<path d="M66.6123 85.4573C66.6506 85.4573 66.6889 85.7253 66.6506 86.0315C66.6123 86.3378 66.5358 86.6058 66.4975 86.6058C66.4592 86.6058 66.4209 86.3378 66.4592 86.0315C66.4975 85.7253 66.5358 85.4573 66.6123 85.4573Z" fill="#455A64"/>
<path d="M66.8421 83.7728C66.8804 83.7728 66.9187 83.926 66.9187 84.0791C66.8804 84.2322 66.8421 84.3471 66.7655 84.3471C66.7273 84.3471 66.689 84.1939 66.689 84.0408C66.7272 83.8877 66.7655 83.7728 66.8421 83.7728Z" fill="#455A64"/>
<path d="M58.2288 140.853L69.0628 141.044L68.9862 139.245L58.2288 139.283V140.853Z" fill="#455A64"/>
<path d="M65.3496 73.0157C65.3496 73.0157 65.3878 73.1689 65.4261 73.4369C65.4644 73.7048 65.5027 74.0877 65.541 74.5853C65.6175 75.5424 65.6941 76.8823 65.809 78.3753C65.8472 79.1027 65.8855 79.8301 65.9238 80.4426C65.9621 81.0934 65.9621 81.6677 66.1152 82.0888C66.2683 82.5482 66.5746 82.8161 66.8043 82.931C67.034 83.0458 67.1871 83.0076 67.1871 83.0458C67.1871 83.0458 67.1488 83.0458 67.0723 83.0458C66.9957 83.0458 66.8809 83.0458 66.766 82.9693C66.498 82.8927 66.1535 82.5864 65.9621 82.127C65.7707 81.6677 65.7707 81.0551 65.6941 80.4426C65.6558 79.7918 65.6175 79.1027 65.541 78.3753C65.4644 76.8823 65.3878 75.5424 65.3496 74.5853C65.3113 74.0877 65.3113 73.7048 65.3113 73.4369C65.3113 73.1689 65.3113 73.0157 65.3496 73.0157Z" fill="#455A64"/>
<path d="M66.3828 73.8963C66.3828 73.9346 66.3062 73.9729 66.3062 74.1643C66.3062 74.2409 66.3062 74.3557 66.3828 74.394C66.4593 74.4706 66.5359 74.4706 66.6507 74.4323C66.7656 74.394 66.8039 74.3174 66.8039 74.2026C66.8039 74.126 66.7656 74.0495 66.689 73.9729C66.5742 73.8581 66.4593 73.8963 66.4593 73.8581C66.4593 73.8581 66.5742 73.7432 66.8039 73.8581C66.8804 73.8963 66.9953 74.0112 66.9953 74.2026C66.9953 74.3557 66.8804 74.5471 66.7273 74.6237C66.5742 74.7003 66.3445 74.662 66.2679 74.5089C66.1531 74.394 66.1531 74.2409 66.1914 74.126C66.2296 73.8963 66.3828 73.8963 66.3828 73.8963Z" fill="#455A64"/>
<path d="M76.0685 75.5422C76.0685 75.5422 75.7622 75.7336 75.2263 75.8484C74.6903 75.9633 73.8481 75.9633 73.0442 75.6187C72.2402 75.2742 71.666 74.6234 71.398 74.164C71.0917 73.6663 71.0535 73.3218 71.0535 73.3218C71.0917 73.3218 71.2066 73.628 71.5129 74.0874C71.8191 74.5468 72.3551 75.1211 73.1207 75.4656C73.8864 75.8102 74.652 75.8484 75.188 75.7336C75.724 75.657 76.0302 75.5039 76.0685 75.5422Z" fill="#455A64"/>
<path d="M58.9561 73.0157C58.9944 73.0157 59.0327 73.2837 58.9178 73.7431C58.803 74.2025 58.535 74.815 57.999 75.2744C57.4631 75.7338 56.8123 75.9635 56.3529 76.0018C55.8935 76.0401 55.6255 75.9635 55.6255 75.9252C55.6255 75.887 55.8935 75.9252 56.3529 75.8487C56.774 75.7721 57.3865 75.5807 57.8842 75.1213C58.3818 74.6619 58.6881 74.1259 58.803 73.7048C58.9178 73.2837 58.9561 73.0157 58.9561 73.0157Z" fill="#455A64"/>
<path d="M72.2784 41.1269C71.4362 40.8206 70.5174 40.6292 69.4837 40.5909C67.225 41.28 64.9664 41.28 62.7077 40.5909C61.7889 40.7058 59.6451 40.8589 56.5824 41.7394L48.0071 44.0747L50.84 54.6024L56.0082 52.8414C56.0082 52.8414 53.1753 72.3657 53.2135 74.5861L75.9152 73.093L75.0347 62.2973L74.7285 52.918L81.2365 54.1048L85.6008 45.3763" fill="#4B71A4"/>
<path d="M70.3642 40.5521C70.3642 40.5521 70.2876 40.6287 70.0962 40.7435C69.9048 40.8584 69.6368 41.0115 69.254 41.1647C68.8712 41.3178 68.4501 41.4709 67.9141 41.5858C67.4164 41.7006 66.8039 41.7772 66.2297 41.8155C65.6171 41.8155 65.0429 41.7772 64.5069 41.7006C63.971 41.5858 63.5116 41.4709 63.167 41.3561C62.7842 41.2029 62.5162 41.0881 62.3248 40.9732C62.1334 40.8584 62.0186 40.8201 62.0186 40.7818C62.0186 40.7435 62.478 40.9732 63.2053 41.2029C63.5882 41.3178 64.0475 41.4326 64.5452 41.5092C65.0429 41.5858 65.6171 41.624 66.2297 41.624C66.8422 41.5858 67.3781 41.5092 67.9141 41.4326C68.4118 41.3178 68.8712 41.2029 69.2157 41.0498C69.9431 40.7818 70.3642 40.5521 70.3642 40.5521Z" fill="#263238"/>
<path d="M67.0716 50.2761C67.0716 50.2761 67.1865 50.2761 67.4162 50.2378C67.6841 50.2378 68.0287 50.2378 68.4498 50.1995C69.3686 50.1995 70.6702 50.1613 72.2015 50.1613H72.2781V50.2378C72.2781 50.9269 72.2781 51.6926 72.2781 52.4965C72.2781 52.9176 72.2781 53.3004 72.2781 53.7216C72.2398 54.1427 72.1249 54.6021 71.857 54.9849C71.4741 55.5974 70.8616 56.0185 70.2108 56.1334C69.56 56.2865 68.8709 56.1717 68.3349 55.8654C67.799 55.5591 67.4162 55.0997 67.1865 54.6021C67.0716 54.3341 67.0333 54.1044 66.995 53.8364C66.9568 53.5684 66.995 53.3387 66.995 53.109C66.995 52.2285 67.0333 51.5011 67.0333 50.9652C67.0333 50.7355 67.0333 50.5441 67.0333 50.3909C67.0716 50.3527 67.0716 50.2761 67.0716 50.2761C67.0716 50.2761 67.0716 50.3527 67.0716 50.5058C67.0716 50.6589 67.0716 50.8503 67.0716 51.08C67.0716 51.616 67.1099 52.3051 67.1099 53.1856C67.1099 53.4153 67.1099 53.645 67.1482 53.8747C67.1865 54.1044 67.263 54.3341 67.3396 54.6021C67.531 55.0614 67.9138 55.4826 68.4115 55.7888C68.9092 56.0568 69.5217 56.1717 70.1342 56.0185C70.7467 55.9037 71.321 55.4826 71.6655 54.9466C71.8952 54.6021 72.0101 54.1809 72.0484 53.7981C72.0484 53.377 72.0484 52.9559 72.0484 52.5731C72.0484 51.7691 72.0484 51.0035 72.0484 50.3144L72.1249 50.3909C70.6319 50.3909 69.3686 50.3527 68.4498 50.3527C68.0287 50.3527 67.6841 50.3527 67.3779 50.3144C67.2247 50.3144 67.1099 50.2761 67.0716 50.2761Z" fill="#263238"/>
<path d="M72.0484 51.0799C72.0484 51.0799 72.0867 51.0417 72.2015 51.0417V51.1182C71.857 51.1565 70.8999 51.1948 69.7514 51.1948C68.2967 51.1948 67.1482 51.1565 67.1482 51.0799C67.1482 51.0034 68.335 50.9651 69.7514 50.9651C70.8999 50.9651 71.857 51.0034 72.2015 51.0417V51.1182C72.0867 51.1182 72.0484 51.1182 72.0484 51.0799Z" fill="#263238"/>
<path d="M85.0649 45.1842C85.0649 45.1842 85.0266 45.2991 84.9118 45.5287C84.7586 45.7967 84.6055 46.103 84.4141 46.4475C83.9547 47.2898 83.4187 48.3234 82.7679 49.5102C82.1554 50.6969 81.5812 51.7688 81.16 52.6111C80.9686 52.9556 80.8155 53.3002 80.6624 53.5299C80.5475 53.7596 80.4709 53.8744 80.4709 53.8744C80.4709 53.8744 80.5092 53.7213 80.5858 53.4916C80.7007 53.2619 80.8155 52.9173 81.0069 52.5345C81.3897 51.7306 81.9257 50.6204 82.5765 49.4336C83.2273 48.2468 83.8016 47.1749 84.261 46.4093C84.4907 46.0264 84.6821 45.7202 84.7969 45.4905C84.95 45.2991 85.0266 45.1842 85.0649 45.1842Z" fill="#263238"/>
<path d="M52.2185 54.0275C52.2185 54.0275 52.1419 53.9127 52.0271 53.6447C51.9122 53.415 51.7591 53.0322 51.606 52.5728C51.2614 51.654 50.802 50.4289 50.3426 49.0125C49.8832 47.596 49.5004 46.3327 49.2324 45.4139C49.1176 44.9545 49.0027 44.5717 48.9262 44.3037C48.8496 44.0357 48.8496 43.8826 48.8496 43.8826C48.8496 43.8826 48.9262 44.0357 49.0027 44.2654C49.1176 44.5717 49.2324 44.9162 49.3473 45.3373C49.6535 46.2944 50.0747 47.5577 50.5341 48.9359C50.9934 50.3141 51.4145 51.5391 51.7591 52.4962C51.9122 52.9173 52.0271 53.3001 52.1419 53.5681C52.1802 53.8744 52.2185 54.0275 52.2185 54.0275Z" fill="#263238"/>
<path d="M76.068 72.0972C76.068 72.1355 71.0147 72.48 64.7746 72.8629C58.5345 73.2457 53.4812 73.4754 53.4429 73.4371C53.4429 73.3988 58.4962 73.0543 64.7363 72.6714C70.9764 72.2886 76.0297 72.0206 76.068 72.0972Z" fill="#263238"/>
</svg>
