<svg xmlns="http://www.w3.org/2000/svg" xmlns:xlink="http://www.w3.org/1999/xlink" width="40" height="40" viewBox="0 0 40 40">
  <defs>
    <clipPath id="clip-path">
      <rect id="Rectangle_2282" data-name="Rectangle 2282" width="39.592" height="39.592" transform="translate(240 224)" fill="none" stroke="#707070" stroke-width="1"/>
    </clipPath>
    <clipPath id="clip-Medal_3">
      <rect width="40" height="40"/>
    </clipPath>
  </defs>
  <g id="Medal_3" data-name="Medal 3" clip-path="url(#clip-Medal_3)">
    <g id="Mask_Group_109" data-name="Mask Group 109" transform="translate(-240 -224)" clip-path="url(#clip-path)">
      <g id="third" transform="translate(236.833 212.718)">
        <g id="Group_3840" data-name="Group 3840" opacity="0.8">
          <path id="Path_44635" data-name="Path 44635" d="M199.119.215l-16.5,23.067H196.63L212.706.812A.513.513,0,0,0,212.289,0H199.536A.513.513,0,0,0,199.119.215Z" transform="translate(-165.831)" fill="#548de6"/>
          <path id="Path_44636" data-name="Path 44636" d="M254.741,0,238.083,23.281H233.27L249.928,0Z" transform="translate(-211.645)" fill="#d2e4ff"/>
          <g id="Group_3829" data-name="Group 3829" transform="translate(0)">
            <path id="Path_44637" data-name="Path 44637" d="M303.667,0H300.3L283.647,23.281h4.361L304.084.812A.513.513,0,0,0,303.667,0Z" transform="translate(-257.209)" fill="#548de6"/>
            <path id="Path_44638" data-name="Path 44638" d="M13.536.812l16.076,22.47H43.627L27.124.215A.513.513,0,0,0,26.706,0H13.954A.513.513,0,0,0,13.536.812Z" transform="translate(-13.44)" fill="#548de6"/>
          </g>
          <path id="Path_44639" data-name="Path 44639" d="M56.707,0,73.365,23.281h4.813L61.52,0Z" transform="translate(-52.573)" fill="#d2e4ff"/>
          <path id="Path_44640" data-name="Path 44640" d="M13.954,0a.513.513,0,0,0-.417.812l16.076,22.47h4.619L17.574,0Z" transform="translate(-13.44)" fill="#548de6"/>
        </g>
        <path id="Path_44644" data-name="Path 44644" d="M117.513,203.386h0a2.49,2.49,0,0,0,2.6.541h0a2.469,2.469,0,0,1,3.156,1.376h0a2.449,2.449,0,0,0,2.148,1.529h0a2.421,2.421,0,0,1,2.312,2.515h0a2.394,2.394,0,0,0,1.328,2.253h0a2.379,2.379,0,0,1,1.068,3.219h0a2.363,2.363,0,0,0,.278,2.587h0a2.369,2.369,0,0,1-.361,3.366h0a2.374,2.374,0,0,0-.821,2.474h0a2.4,2.4,0,0,1-1.727,2.931h0a2.421,2.421,0,0,0-1.777,1.933h0a2.447,2.447,0,0,1-2.8,1.989h0a2.473,2.473,0,0,0-2.426,1.058h0a2.484,2.484,0,0,1-3.38.7h0a2.5,2.5,0,0,0-2.656,0h0a2.484,2.484,0,0,1-3.38-.7h0a2.473,2.473,0,0,0-2.426-1.058h0a2.447,2.447,0,0,1-2.8-1.989h0a2.421,2.421,0,0,0-1.777-1.933h0a2.4,2.4,0,0,1-1.728-2.931h0a2.374,2.374,0,0,0-.821-2.474h0a2.369,2.369,0,0,1-.361-3.366h0a2.362,2.362,0,0,0,.278-2.587h0a2.379,2.379,0,0,1,1.068-3.219h0a2.394,2.394,0,0,0,1.328-2.253h0a2.422,2.422,0,0,1,2.312-2.515h0A2.449,2.449,0,0,0,108.3,205.3h0a2.469,2.469,0,0,1,3.156-1.376h0a2.49,2.49,0,0,0,2.6-.541h0A2.489,2.489,0,0,1,117.513,203.386Z" transform="translate(-92.299 -182.667)" fill="#cc6601"/>
        <path id="Path_44675" data-name="Path 44675" d="M11.165,0A11.166,11.166,0,1,1,0,11.166,11.165,11.165,0,0,1,11.165,0Z" transform="translate(12.321 23.619)" fill="#ec9047"/>
        <path id="Path_44968" data-name="Path 44968" d="M4.528.192c2.56,0,4.208-1.3,4.208-3.136A2.678,2.678,0,0,0,6.24-5.5,2.618,2.618,0,0,0,8.576-7.936c0-1.776-1.536-2.9-4.032-2.9a5.253,5.253,0,0,0-4.08,1.7L1.6-7.712a3.84,3.84,0,0,1,2.7-1.1c1.12,0,1.984.416,1.984,1.264,0,.784-.784,1.136-1.968,1.136-.4,0-1.136,0-1.328-.016v2.048c.16-.016.88-.032,1.328-.032,1.488,0,2.144.384,2.144,1.232,0,.8-.72,1.36-2.016,1.36A4.25,4.25,0,0,1,1.5-3.04L.32-1.52A5.333,5.333,0,0,0,4.528.192Z" transform="translate(18.212 39.585)" fill="#a45100"/>
      </g>
    </g>
  </g>
</svg>
