<svg xmlns="http://www.w3.org/2000/svg" xmlns:xlink="http://www.w3.org/1999/xlink" width="40" height="40" viewBox="0 0 40 40">
  <defs>
    <clipPath id="clip-path">
      <rect id="Rectangle_2281" data-name="Rectangle 2281" width="40.283" height="40.283" transform="translate(134 223)" fill="none" stroke="#707070" stroke-width="1"/>
    </clipPath>
    <clipPath id="clip-Medal_2">
      <rect width="40" height="40"/>
    </clipPath>
  </defs>
  <g id="Medal_2" data-name="Medal 2" clip-path="url(#clip-Medal_2)">
    <g id="Mask_Group_108" data-name="Mask Group 108" transform="translate(-134 -223.005)" clip-path="url(#clip-path)">
      <g id="second-prize" transform="translate(131.1 211.521)">
        <g id="Group_3838" data-name="Group 3838" opacity="0.8">
          <path id="Path_44648" data-name="Path 44648" d="M199.452.219,182.616,23.75h14.3L213.313.828A.523.523,0,0,0,212.888,0h-13.01A.524.524,0,0,0,199.452.219Z" transform="translate(-165.621)" fill="#548de6"/>
          <path id="Path_44649" data-name="Path 44649" d="M255.174,0,238.18,23.75h-4.91L250.264,0Z" transform="translate(-211.337)" fill="#d2e4ff"/>
          <g id="Group_3830" data-name="Group 3830" transform="translate(0)">
            <path id="Path_44650" data-name="Path 44650" d="M304.071,0h-3.43L283.647,23.75H288.1L304.5.828A.523.523,0,0,0,304.071,0Z" transform="translate(-256.804)" fill="#548de6"/>
            <path id="Path_44651" data-name="Path 44651" d="M13.538.828l16.4,22.922h14.3L27.4.219A.523.523,0,0,0,26.974,0H13.964A.523.523,0,0,0,13.538.828Z" transform="translate(-13.44)" fill="#548de6"/>
          </g>
          <path id="Path_44652" data-name="Path 44652" d="M56.707,0,73.7,23.75h4.91L61.617,0Z" transform="translate(-52.49)" fill="#d2e4ff"/>
          <path id="Path_44653" data-name="Path 44653" d="M13.964,0a.523.523,0,0,0-.426.828l16.4,22.922h4.712L17.657,0Z" transform="translate(-13.44)" fill="#548de6"/>
        </g>
        <path id="Path_44657" data-name="Path 44657" d="M117.782,203.4h0a2.522,2.522,0,0,0,2.639.552h0a2.5,2.5,0,0,1,3.207,1.4h0a2.488,2.488,0,0,0,2.183,1.56h0a2.466,2.466,0,0,1,2.349,2.566h0a2.444,2.444,0,0,0,1.349,2.3h0a2.431,2.431,0,0,1,1.085,3.283h0a2.418,2.418,0,0,0,.282,2.639h0a2.423,2.423,0,0,1-.367,3.434h0a2.427,2.427,0,0,0-.834,2.524h0a2.447,2.447,0,0,1-1.755,2.99h0a2.466,2.466,0,0,0-1.805,1.972h0a2.487,2.487,0,0,1-2.84,2.029h0a2.508,2.508,0,0,0-2.465,1.079h0a2.517,2.517,0,0,1-3.433.718h0a2.526,2.526,0,0,0-2.7,0h0a2.517,2.517,0,0,1-3.433-.718h0a2.508,2.508,0,0,0-2.465-1.079h0a2.487,2.487,0,0,1-2.84-2.029h0a2.466,2.466,0,0,0-1.805-1.972h0a2.447,2.447,0,0,1-1.755-2.99h0a2.427,2.427,0,0,0-.834-2.524h0a2.423,2.423,0,0,1-.367-3.434h0a2.418,2.418,0,0,0,.282-2.639h0a2.432,2.432,0,0,1,1.085-3.283h0a2.444,2.444,0,0,0,1.349-2.3h0a2.466,2.466,0,0,1,2.349-2.566h0a2.489,2.489,0,0,0,2.183-1.56h0a2.5,2.5,0,0,1,3.207-1.4h0a2.522,2.522,0,0,0,2.639-.552h0A2.522,2.522,0,0,1,117.782,203.4Z" transform="translate(-92.131 -182.4)" fill="#999"/>
        <path id="Path_44674" data-name="Path 44674" d="M11.391,0A11.39,11.39,0,1,1,0,11.39,11.391,11.391,0,0,1,11.391,0Z" transform="translate(12.505 23.958)" fill="#e0dfe5"/>
        <path id="Path_44967" data-name="Path 44967" d="M8.235,0V-1.875H4.155C6.75-3.765,8.16-5.25,8.16-6.96c0-1.995-1.7-3.2-3.825-3.2A5.1,5.1,0,0,0,.48-8.52L1.7-7.11A3.577,3.577,0,0,1,4.38-8.265C5.2-8.265,6-7.83,6-6.96,6-5.73,4.8-4.7.705-1.665V0Z" transform="translate(19.207 40.174)" fill="#777"/>
      </g>
    </g>
  </g>
</svg>
