<svg width="150" height="150" viewBox="0 0 150 150" fill="none" xmlns="http://www.w3.org/2000/svg">
<path d="M34.1388 130.287C40.3973 125.912 41.8253 117.8 41.5822 110.509C41.5518 109.294 41.6734 108.018 41.0961 106.924C40.5189 105.861 39.1517 105.131 38.0884 105.648C37.1769 106.073 36.782 107.137 36.2959 107.987C35.6275 109.142 34.6249 110.114 33.4401 110.722C32.6501 111.117 31.7083 111.36 30.9488 110.934C29.8855 110.357 29.7639 108.899 29.7943 107.683C29.7943 105.435 29.8247 103.157 29.8247 100.908C29.8247 99.6932 29.8247 98.4476 29.4601 97.3235C29.0955 96.169 28.2449 95.1057 27.0904 94.7715C25.9359 94.4373 24.508 95.1057 24.2649 96.2905C24.1738 96.7766 24.2649 97.2931 24.2345 97.8096C24.2042 98.3261 23.9611 98.8729 23.475 98.9944C22.9889 99.1463 22.5028 98.7818 22.1382 98.4476C20.8926 97.2323 20.0419 95.6525 19.252 94.0727C18.4621 92.4929 17.7026 90.913 16.5481 89.5763C15.424 88.2395 13.8442 87.1762 12.1124 87.085C10.3807 86.9939 8.52747 88.0572 8.10213 89.7586C7.67679 91.4599 8.64899 93.1916 9.74272 94.5892C11.3529 96.6247 13.2669 98.4476 15.3632 99.9666C15.7582 100.24 16.1531 100.544 16.3051 100.969C16.5785 101.79 15.7886 102.579 14.9987 102.853C14.0872 103.157 13.115 103.066 12.1732 103.157C11.2314 103.278 10.1984 103.673 9.83386 104.585C9.34776 105.83 10.3807 107.106 11.3833 107.957C13.4188 109.658 15.7582 110.995 18.2495 111.906C19.1305 112.241 20.0723 112.514 20.8015 113.152C21.5306 113.79 20.4065 116.008 19.9812 116.859C19.5558 117.709 19.9812 116.859 19.0394 116.676C18.0975 116.494 17.2773 116.008 16.3962 115.674C14.7252 115.036 12.5682 115.157 11.5048 116.585C10.8061 117.527 10.7453 118.833 11.1099 119.988C11.4744 121.112 12.1732 122.084 12.9327 122.996C15.6063 126.125 19.009 128.646 22.8674 129.983C26.7258 131.32 30.3108 131.685 34.1388 130.287Z" fill="#EBEBEB"/>
<path d="M34.251 135.694C33.9775 132.807 33.3395 129.405 32.2762 125.698C31.2129 122.022 29.6938 118.073 27.9621 114.001C27.5367 112.999 27.1114 111.996 26.6861 110.994C26.2607 110.022 25.8354 109.019 25.3797 108.108C24.4378 106.254 23.4049 104.523 22.3719 102.912C21.339 101.302 20.306 99.8135 19.3034 98.4463C18.3008 97.0792 17.359 95.8031 16.4476 94.679C14.6247 92.4308 12.9538 90.7902 11.7689 89.7269C11.1613 89.18 10.7055 88.7851 10.3714 88.5117C10.2194 88.3901 10.0979 88.2686 10.0068 88.2078C9.91563 88.1471 9.88525 88.1167 9.88525 88.1167C9.88525 88.1167 9.91563 88.1471 10.0068 88.2382C10.0979 88.3294 10.2194 88.4205 10.3714 88.5724C10.6752 88.8458 11.1613 89.2712 11.7385 89.818C12.9234 90.9118 14.564 92.5524 16.3564 94.8006C17.2679 95.9247 18.1793 97.2007 19.1819 98.5678C20.1541 99.9654 21.1871 101.454 22.22 103.034C23.253 104.644 24.2859 106.345 25.1974 108.199C25.6531 109.11 26.0784 110.082 26.5038 111.085C26.9291 112.087 27.3544 113.06 27.7798 114.093C29.5115 118.164 31.0002 122.083 32.0939 125.759C33.1876 129.435 33.8256 132.807 34.0991 135.694" fill="#E0E0E0"/>
<path d="M25.2992 108.137C25.2992 108.137 25.36 107.954 25.4207 107.62C25.4815 107.286 25.5726 106.8 25.6334 106.192C25.8157 104.977 25.998 103.306 26.1803 101.453C26.3625 99.5995 26.5752 97.9286 26.7575 96.7437C26.8486 96.1361 26.9398 95.65 27.0006 95.3158C27.0613 94.9816 27.0917 94.7993 27.0613 94.7993C27.0613 94.7993 27.0006 94.9816 26.9094 95.3158C26.8183 95.65 26.7271 96.1361 26.6056 96.7133C26.3625 97.8982 26.1499 99.5692 25.9676 101.422C25.7853 103.245 25.603 104.886 25.4815 106.162C25.4207 106.739 25.36 107.195 25.3296 107.59C25.2992 107.924 25.2688 108.137 25.2992 108.137Z" fill="#E0E0E0"/>
<path d="M9.7124 105.224C9.7124 105.255 9.92507 105.255 10.32 105.285C10.715 105.315 11.2922 105.376 12.0214 105.437C13.4493 105.589 15.4241 105.862 17.5508 106.288C19.7078 106.683 21.6218 107.138 23.0194 107.533C23.7181 107.715 24.265 107.867 24.66 107.989C25.0549 108.11 25.2676 108.141 25.2676 108.141C25.2676 108.141 25.0549 108.05 24.6903 107.898C24.2954 107.776 23.7485 107.594 23.0801 107.381C21.713 106.986 19.7686 106.5 17.6115 106.075C15.4544 105.68 13.4797 105.407 12.0518 105.285C11.3226 105.224 10.7454 105.194 10.3504 105.194C9.95545 105.194 9.7124 105.194 9.7124 105.224Z" fill="#E0E0E0"/>
<path d="M32.0688 125.428C32.0688 125.428 32.0992 125.367 32.1904 125.245C32.2511 125.093 32.3423 124.911 32.4638 124.668C32.7069 124.182 33.0107 123.453 33.3752 122.572C34.1348 120.779 35.0766 118.288 36.1095 115.523C37.1425 112.759 38.0539 110.237 38.7831 108.444C39.1173 107.563 39.4211 106.865 39.6338 106.318C39.7249 106.075 39.7857 105.892 39.8768 105.741C39.9376 105.619 39.9376 105.528 39.9376 105.528C39.9376 105.528 39.9072 105.589 39.8161 105.71C39.7553 105.862 39.6641 106.044 39.5426 106.287C39.2996 106.773 38.9958 107.503 38.6312 108.384C37.8717 110.176 36.9298 112.667 35.8969 115.432C34.8639 118.197 33.9525 120.718 33.2233 122.511C32.8588 123.392 32.5853 124.091 32.3727 124.638C32.2815 124.881 32.2208 125.063 32.1296 125.215C32.0992 125.367 32.0688 125.428 32.0688 125.428Z" fill="#E0E0E0"/>
<path d="M11.3838 118.774C11.3838 118.774 11.4446 118.804 11.5965 118.865C11.7484 118.926 11.961 118.986 12.2041 119.078C12.7509 119.26 13.5105 119.503 14.4219 119.807C16.3055 120.414 18.8576 121.295 21.7134 122.237C24.5692 123.209 27.1516 124.06 29.0353 124.607C29.9771 124.88 30.7366 125.123 31.2835 125.245C31.5265 125.306 31.7392 125.367 31.8911 125.397C32.043 125.427 32.1038 125.458 32.1038 125.427C32.1038 125.427 32.043 125.397 31.8911 125.336C31.7392 125.275 31.5265 125.215 31.2835 125.123C30.7366 124.941 29.9771 124.698 29.0656 124.394C27.182 123.787 24.63 122.906 21.7742 121.964C18.9183 120.992 16.3359 120.171 14.4523 119.594C13.5105 119.321 12.7509 119.078 12.2041 118.956C11.961 118.895 11.7484 118.835 11.5965 118.804C11.4749 118.774 11.3838 118.743 11.3838 118.774Z" fill="#E0E0E0"/>
<path d="M110.814 23.9509L94.1045 64.7833L124.121 76.8446L140.588 36.2553L110.814 23.9509Z" fill="#E6E6E6"/>
<path d="M110.816 23.9509C111.089 24.0725 122.543 28.7815 140.589 36.2249H140.62V36.2553C136.002 47.6483 130.321 61.6844 124.153 76.8142L124.123 76.8446L124.092 76.8142C124.032 76.7838 123.941 76.7535 123.88 76.7231C113.186 72.4393 103.069 68.3682 94.0758 64.7529H94.0454L94.0758 64.7225C103.98 40.6302 110.694 24.2851 110.816 23.9509C110.694 24.2851 104.01 40.6302 94.1366 64.8136L94.1062 64.7529C103.099 68.3682 113.216 72.4393 123.91 76.7231C123.971 76.7535 124.062 76.7838 124.123 76.8142L124.062 76.8446C130.199 61.6844 135.911 47.6786 140.529 36.2857L140.559 36.3465C122.543 28.8119 111.089 24.0725 110.816 23.9509Z" fill="#E6E6E6"/>
<path d="M108.636 20.0631L91.926 60.8954L121.943 72.9264L138.409 32.3675L108.636 20.0631Z" fill="#FAFAFA"/>
<path d="M108.637 20.0629C108.911 20.1844 120.364 24.8935 138.411 32.3369H138.441V32.3673C133.823 43.7602 128.142 57.7963 121.975 72.9261L121.944 72.9565L121.914 72.9261C121.853 72.8958 121.762 72.8654 121.701 72.835C111.007 68.5513 100.89 64.4802 91.8973 60.8648H91.8669L91.8973 60.8344C101.802 36.7118 108.516 20.3667 108.637 20.0629C108.516 20.3971 101.832 36.7421 91.9581 60.9256L91.9277 60.8648C100.921 64.4802 111.037 68.5513 121.732 72.835C121.792 72.8654 121.884 72.8958 121.944 72.9261L121.884 72.9565C128.021 57.7963 133.732 43.7906 138.35 32.3976L138.381 32.4584C120.365 24.9239 108.911 20.154 108.637 20.0629Z" fill="#EBEBEB"/>
<path d="M131.244 38.5661C131.213 38.6269 126.018 36.6825 119.608 34.1608C113.228 31.6696 108.063 29.6036 108.093 29.5125C108.124 29.4517 113.319 31.3961 119.729 33.9178C126.109 36.4394 131.274 38.5053 131.244 38.5661Z" fill="#E0E0E0"/>
<path d="M130.081 42.3021C130.05 42.3628 124.855 40.4184 118.445 37.8968C112.065 35.4055 106.9 33.3396 106.93 33.2485C106.961 33.1877 112.156 35.1321 118.566 37.6537C124.946 40.1754 130.111 42.2413 130.081 42.3021Z" fill="#E0E0E0"/>
<path d="M126.201 53.6337C126.171 53.6945 120.976 51.7501 114.565 49.2284C108.185 46.7372 103.02 44.6713 103.051 44.5801C103.081 44.5194 108.276 46.4638 114.687 48.9854C121.067 51.4767 126.232 53.573 126.201 53.6337Z" fill="#E0E0E0"/>
<path d="M124.375 57.4626C124.345 57.5233 119.149 55.5789 112.739 53.0573C106.359 50.566 101.194 48.5001 101.224 48.409C101.255 48.3482 106.45 50.2926 112.861 52.8143C119.241 55.3055 124.405 57.4018 124.375 57.4626Z" fill="#E0E0E0"/>
<path d="M122.854 61.321C122.824 61.3817 117.629 59.4373 111.218 56.9157C104.838 54.4244 99.6736 52.3585 99.704 52.2674C99.7344 52.2066 104.93 54.151 111.34 56.6727C117.72 59.1639 122.885 61.2602 122.854 61.321Z" fill="#E0E0E0"/>
<path d="M121.337 65.1793C121.306 65.24 116.111 63.2956 109.701 60.774C103.321 58.2827 98.1558 56.2168 98.1862 56.1257C98.2165 56.0649 103.412 58.0093 109.822 60.5309C116.202 63.0526 121.367 65.1185 121.337 65.1793Z" fill="#E0E0E0"/>
<path d="M112.099 34.5852C112.008 34.7371 111.704 35.4663 111.704 35.4663L124.373 40.6007L124.768 39.507L112.099 34.5852Z" fill="#EBEBEB"/>
<path d="M105.713 36.1937C105.622 36.3456 105.166 37.3178 105.166 37.3178L128.924 46.341L129.502 45.1258L105.713 36.1937Z" fill="#EBEBEB"/>
<path d="M104.345 40.0228C104.254 40.1747 103.798 41.1469 103.798 41.1469L127.526 50.2005L128.103 48.9549L104.345 40.0228Z" fill="#EBEBEB"/>
<path d="M103.166 44.0629C103.135 44.1236 102.74 45.2781 102.74 45.2781L114.62 49.8353L115.288 48.4378L103.166 44.0629Z" fill="#EBEBEB"/>
<path d="M134.183 135.209C134.183 135.24 105.99 135.3 71.2031 135.3C36.4166 135.3 8.2229 135.27 8.2229 135.209C8.2229 135.148 36.4166 135.118 71.2031 135.118C105.99 135.148 134.183 135.179 134.183 135.209Z" fill="#263238"/>
<path d="M27.5151 22.5543C27.1201 36.2866 25.9049 87.9042 25.6011 101.697C25.5707 103.581 27.029 105.13 28.9126 105.191L85.4824 106.923C87.3964 106.984 88.9762 105.465 89.0066 103.581L89.8877 63.6904L94.6879 63.5993C95.8728 63.5689 96.8146 62.6271 96.8146 61.4422L97.1792 29.2989C97.1792 28.114 96.2373 27.1115 95.0525 27.1115L90.7383 27.0507L90.7687 23.9518C90.7991 22.0986 89.3104 20.5491 87.4268 20.5187L30.9785 19.3035C29.0949 19.2123 27.5454 20.6706 27.5151 22.5543Z" fill="#264064"/>
<path d="M31.8004 23.1309L26.8179 102.638L85.1194 105.92L89.8285 27.0197L31.8004 23.1309Z" fill="#E0E0E0"/>
<path d="M24.783 21.4306L25.1779 101.06L83.5706 100.391L82.9326 21.3699L24.783 21.4306Z" fill="#EBEBEB"/>
<path d="M17.1514 26.8995L28.1797 105.799L85.9344 97.3231L74.7541 19.0612L17.1514 26.8995Z" fill="#FAFAFA"/>
<path d="M17.1521 26.8991C17.6686 26.8383 39.8469 23.8002 74.7548 19H74.8156V19.0608C77.9753 41.0567 81.8337 68.096 85.9959 97.2924V97.3835H85.9047C85.7832 97.4139 85.6313 97.4139 85.4794 97.4443C64.9113 100.452 45.4066 103.308 28.1197 105.86H28.0589V105.799C21.6181 59.1336 17.2432 27.5371 17.1521 26.8991C17.2432 27.5371 21.6789 59.1032 28.2412 105.769L28.1501 105.708C45.437 103.186 64.9417 100.3 85.5098 97.2924C85.6617 97.262 85.7832 97.262 85.9351 97.2316L85.8744 97.3227C81.7121 68.1264 77.8537 41.0567 74.6941 19.0911L74.7548 19.1519C39.8469 23.8306 17.6686 26.8383 17.1521 26.8991Z" fill="#263238"/>
<path d="M71.1485 45.1876C71.1789 45.3092 61.2746 46.9801 49.031 48.8941C36.7874 50.8081 26.8527 52.2664 26.8223 52.1449C26.792 52.0234 36.6962 50.3524 48.9398 48.4384C61.1835 46.494 71.1181 45.0357 71.1485 45.1876Z" fill="#263238"/>
<path d="M75.3687 66.3627C75.3991 66.4842 65.4948 68.1552 53.2512 70.0692C41.0076 71.9832 31.0729 73.4415 31.0426 73.32C31.0122 73.1985 40.9164 71.5275 53.1601 69.6135C65.4037 67.6691 75.3383 66.2412 75.3687 66.3627Z" fill="#263238"/>
<path d="M75.9781 73.9885C76.0085 74.11 66.1042 75.781 53.8606 77.695C41.617 79.609 31.6823 81.0673 31.6519 80.9458C31.6215 80.8243 41.5258 79.1533 53.7694 77.2393C66.0434 75.3253 75.9781 73.867 75.9781 73.9885Z" fill="#263238"/>
<path d="M68.8936 28.4486C68.8936 28.5701 62.2401 29.6031 54.0372 30.7575C45.8343 31.912 39.1808 32.7627 39.1504 32.6412C39.1504 32.5197 45.8039 31.4867 54.0068 30.3322C62.2097 29.1777 68.8936 28.327 68.8936 28.4486Z" fill="#263238"/>
<path d="M69.8443 32.6698C69.8443 32.7913 63.1908 33.8242 54.9879 34.9787C46.7849 36.1332 40.1315 36.9839 40.1011 36.8624C40.1011 36.7408 46.7546 35.7079 54.9575 34.5534C63.1604 33.3989 69.8443 32.5482 69.8443 32.6698Z" fill="#263238"/>
<path d="M70.9605 37.1066C70.9605 37.2282 64.307 38.2611 56.1041 39.4156C47.9011 40.5701 41.2477 41.4208 41.2173 41.2992C41.2173 41.1777 47.8708 40.1448 56.0737 38.9903C64.307 37.8358 70.9605 37.0155 70.9605 37.1066Z" fill="#263238"/>
<path d="M77.1299 81.403C77.1603 81.5245 67.2561 83.1955 55.0124 85.1095C42.7688 87.0235 32.8342 88.4818 32.8038 88.3603C32.7734 88.2387 42.6777 86.5678 54.9213 84.6538C67.1649 82.7094 77.0996 81.2814 77.1299 81.403Z" fill="#263238"/>
<path d="M78.2537 88.8165C78.2841 88.9381 68.3798 90.609 56.1362 92.523C43.8926 94.4371 33.9579 95.8953 33.9276 95.7738C33.8972 95.6523 43.8014 93.9813 56.0451 92.0673C68.2887 90.1229 78.2233 88.6646 78.2537 88.8165Z" fill="#263238"/>
<path d="M36.0815 49.4729C36.1119 49.7768 36.2638 51.2047 36.2638 51.2047L60.6903 47.7108L60.2954 45.6753L36.0815 49.4729Z" fill="#9FC0EC"/>
<path d="M27.5737 57.7366C27.6041 58.0404 27.756 59.9848 27.756 59.9848L72.9936 52.5414L72.781 50.0806L27.5737 57.7366Z" fill="#9FC0EC"/>
<path d="M28.9133 64.9977C28.9437 65.3015 29.0956 67.2459 29.0956 67.2459L74.3332 59.7722L74.1206 57.3113L28.9133 64.9977Z" fill="#9FC0EC"/>
<path d="M30.7366 72.3805C30.7366 72.502 31.1923 74.6895 31.1923 74.6895L53.8567 71.0133L53.644 68.2183L30.7366 72.3805Z" fill="#9FC0EC"/>
<path d="M24.146 32.2164L26.1815 46.8602L39.4885 44.9765L37.696 30.3936L24.146 32.2164Z" fill="#263238"/>
<path d="M24.0349 32.4034L26.0705 47.0472L39.3774 45.1635L37.5849 30.5806L24.0349 32.4034Z" fill="#CDE2FF"/>
<mask id="mask0" mask-type="alpha" maskUnits="userSpaceOnUse" x="24" y="30" width="16" height="17">
<path d="M24 32.3229L26.0355 46.9666L39.3425 45.083L37.55 30.5L24 32.3229Z" fill="#E8505B"/>
</mask>
<g mask="url(#mask0)">
<path d="M29.8142 42.005L32.342 41.3156C32.3037 41.0091 32.0548 39.8601 32.0548 39.8601C32.0548 39.8601 33.0889 39.4962 32.8974 38.4238C32.7059 37.3514 32.0739 34.9384 32.0739 34.9384C30.7334 34.632 29.3354 35.0916 28.4353 36.1066L28.3013 36.2598L29.8142 42.005Z" fill="#FFBE9D"/>
<path d="M32.1879 36.8166C32.1113 36.7783 32.0922 36.6825 32.1305 36.6059C32.1688 36.5293 32.2645 36.5101 32.3411 36.5484C32.4177 36.5867 32.4369 36.6825 32.3986 36.7591C32.3603 36.8357 32.2454 36.8549 32.1879 36.8166Z" fill="#263238"/>
<path d="M32.3986 36.5287C32.3795 36.5478 32.2646 36.4904 32.1114 36.5095C31.9582 36.5287 31.8624 36.6244 31.8433 36.6244C31.8433 36.6244 31.8433 36.5861 31.8816 36.5287C31.9199 36.4904 31.9965 36.4329 32.0922 36.4138C32.188 36.3946 32.2646 36.4138 32.322 36.4521C32.3795 36.4712 32.3986 36.5095 32.3986 36.5287Z" fill="#263238"/>
<path d="M30.7126 36.9662C30.7892 37.0045 30.8275 37.0811 30.8084 37.1769C30.7701 37.2535 30.6935 37.2918 30.5977 37.2726C30.5211 37.2343 30.4828 37.1577 30.502 37.062C30.5403 36.9662 30.636 36.9279 30.7126 36.9662Z" fill="#263238"/>
<path d="M30.8093 36.9476C30.7901 36.9668 30.6752 36.9093 30.522 36.9285C30.3688 36.9476 30.2731 37.0434 30.2539 37.0434C30.2539 37.0434 30.2539 37.0051 30.2922 36.9476C30.3305 36.9093 30.4071 36.8519 30.5029 36.8327C30.5986 36.8136 30.6752 36.8327 30.7327 36.871C30.8093 36.9093 30.8284 36.9285 30.8093 36.9476Z" fill="#263238"/>
<path d="M31.6315 38.0595C31.6315 38.0404 31.7081 38.0212 31.8613 37.9638C31.8996 37.9446 31.9187 37.9446 31.9187 37.9255C31.9187 37.9063 31.8996 37.868 31.8613 37.8297C31.823 37.7148 31.7655 37.6191 31.7081 37.5233C31.4591 37.1211 31.2867 36.7956 31.3059 36.7764C31.325 36.7573 31.5357 37.0828 31.7847 37.4659C31.8421 37.5616 31.8996 37.6574 31.957 37.7531C31.9762 37.7914 32.0145 37.8489 32.0145 37.9063C32.0145 37.9446 31.9762 37.9638 31.957 37.9829C31.9379 38.0021 31.9187 38.0021 31.8996 38.0021C31.7272 38.0404 31.6315 38.0595 31.6315 38.0595Z" fill="#263238"/>
<path d="M31.1914 38.3089C31.019 38.2514 31.651 38.4621 31.9574 38.3855C31.9574 38.3855 31.8425 38.6919 31.4978 38.6345C31.1531 38.577 31.1914 38.3089 31.1914 38.3089Z" fill="white"/>
<path d="M32.0552 39.8421C32.0552 39.8421 31.3849 40.0144 30.5806 39.708C30.5806 39.708 31.0593 40.4166 32.0935 40.1293L32.0552 39.8421Z" fill="#EB996E"/>
<path d="M28.4947 37.2761C28.4756 37.2761 27.6904 37.3719 27.9777 38.2337C28.2649 39.1146 29.0693 38.5209 29.0501 38.5018C29.0501 38.4826 28.4947 37.2761 28.4947 37.2761Z" fill="#FFBE9D"/>
<path d="M28.6869 38.2916C28.6869 38.2916 28.6678 38.3108 28.6486 38.3299C28.6295 38.3491 28.5912 38.3682 28.5337 38.3682C28.4379 38.3682 28.3039 38.2533 28.2464 38.0809C28.2081 38.0043 28.2081 37.9277 28.2081 37.8511C28.2081 37.7745 28.2464 37.7171 28.2847 37.6979C28.323 37.6788 28.3613 37.6788 28.3805 37.7171C28.3996 37.7362 28.3996 37.7554 28.3996 37.7554C28.3996 37.7554 28.4188 37.7362 28.3996 37.6979C28.3996 37.6788 28.3805 37.6596 28.3422 37.6596C28.323 37.6405 28.2847 37.6596 28.2464 37.6596C28.189 37.6788 28.1315 37.7745 28.1315 37.8511C28.1124 37.9277 28.1315 38.0235 28.1698 38.1192C28.2273 38.2916 28.3805 38.4257 28.5145 38.4257C28.5912 38.4257 28.6295 38.3874 28.6486 38.3491C28.6869 38.3108 28.6869 38.2916 28.6869 38.2916Z" fill="#EB996E"/>
<path d="M32.079 34.9008C31.9449 35.686 30.9299 36.1839 30.1448 36.3563C30.4512 35.9733 30.2405 36.069 30.4129 35.8201C30.0299 36.318 29.283 36.8925 28.3829 37.0266C28.1914 36.6818 28.1531 36.2797 28.268 35.8967C28.3829 35.5328 28.651 35.2073 28.9957 35.0349C29.2255 34.92 29.4745 34.8625 29.7043 34.7668C29.8958 34.671 30.0873 34.5561 30.298 34.4987C30.9299 34.2689 31.9066 33.9242 32.079 34.9008Z" fill="#263238"/>
<path d="M28.8039 36.5471C28.7848 36.662 28.7848 37.9068 28.7848 37.9068L28.2869 36.7961L28.8039 36.5471Z" fill="#263238"/>
<path d="M24.7837 46.4691L26.9094 43.3284C27.3116 42.7156 27.8478 42.1985 28.4989 41.8155C28.8245 41.624 29.1692 41.49 29.5905 41.3942C30.548 41.5091 31.4672 41.3368 32.329 40.8771C32.712 40.858 33.5738 40.8005 34.6079 41.0878L38.8211 41.9496L38.2083 45.6456L35.9676 45.3392L36.4464 48.614L37.7678 53.4016L29.6479 55.0103L28.9202 50.5673L28.3265 47.3692L27.369 48.7289L24.7837 46.4691Z" fill="#455A64"/>
</g>
<path d="M95.774 134.174L95.7436 131.379L100.969 131.318L101.03 135.42L100.696 135.45C99.2679 135.541 93.3435 135.845 92.3713 135.572C91.3384 135.207 95.774 134.174 95.774 134.174Z" fill="#81A8DC"/>
<path d="M99.1777 135.358C99.2385 134.933 99.4815 134.507 99.8461 134.234C100.18 133.96 100.636 133.808 101.061 133.839L101.092 135.297L99.1777 135.358Z" fill="#81A8DC"/>
<path d="M93.6252 134.752C93.6252 134.752 92.0758 135.208 92.2581 135.481C92.4404 135.724 98.4255 135.663 101.069 135.39V135.268L94.1113 135.42C94.0809 135.42 93.929 134.752 93.6252 134.752Z" fill="#81A8DC"/>
<path d="M101.136 135.268C101.136 135.268 101.105 135.268 101.045 135.268C100.954 135.268 100.893 135.268 100.802 135.298C100.528 135.298 100.224 135.329 99.8598 135.359C99.0699 135.389 97.9458 135.45 96.7306 135.45C95.5153 135.481 94.3912 135.45 93.6013 135.45C93.2367 135.45 92.9025 135.42 92.6595 135.42C92.5684 135.42 92.4772 135.42 92.3861 135.42C92.3253 135.42 92.2949 135.42 92.2949 135.42C92.2949 135.42 92.3253 135.42 92.3861 135.42C92.4772 135.42 92.538 135.42 92.6595 135.42C92.9329 135.42 93.2367 135.42 93.6013 135.42C94.3912 135.42 95.5153 135.42 96.7306 135.42C97.9458 135.389 99.0699 135.359 99.8598 135.329C100.224 135.329 100.559 135.298 100.802 135.298C100.893 135.298 100.984 135.298 101.075 135.298C101.105 135.268 101.136 135.268 101.136 135.268Z" fill="#263238"/>
<path d="M94.0917 135.51C94.0613 135.51 94.0613 135.297 93.9094 135.054C93.7575 134.811 93.5752 134.72 93.5752 134.69C93.5752 134.659 93.8182 134.781 93.9701 135.024C94.1221 135.267 94.1221 135.51 94.0917 135.51Z" fill="#263238"/>
<path d="M95.6261 134.689C95.6261 134.689 95.5349 134.598 95.4438 134.476C95.3526 134.355 95.3223 134.264 95.3223 134.233C95.3223 134.233 95.4134 134.325 95.5046 134.446C95.5957 134.598 95.6261 134.689 95.6261 134.689Z" fill="#263238"/>
<path d="M96.0461 134.479C96.0461 134.479 95.955 134.448 95.8638 134.357C95.7727 134.266 95.7119 134.205 95.7119 134.175C95.7119 134.175 95.8031 134.205 95.8942 134.296C95.9853 134.387 96.0461 134.448 96.0461 134.479Z" fill="#263238"/>
<path d="M96.29 133.962C96.29 133.993 96.1685 133.993 96.0166 133.993C95.8647 133.993 95.7432 133.993 95.7432 133.962C95.7432 133.932 95.8647 133.932 96.0166 133.932C96.1685 133.932 96.29 133.962 96.29 133.962Z" fill="#263238"/>
<path d="M96.3925 133.628C96.3925 133.658 96.271 133.719 96.0887 133.719C95.9064 133.749 95.7849 133.688 95.7849 133.688C95.7849 133.658 95.9368 133.688 96.0887 133.658C96.271 133.628 96.3925 133.597 96.3925 133.628Z" fill="#263238"/>
<path d="M95.4374 134.234C95.4374 134.234 95.3159 134.265 95.1032 134.234C95.0121 134.234 94.8905 134.204 94.7386 134.174C94.6779 134.143 94.6171 134.143 94.526 134.082C94.4956 134.052 94.4652 134.022 94.4348 133.991C94.4348 133.931 94.4348 133.87 94.4956 133.87C94.8298 133.688 95.1336 133.87 95.2551 134.052C95.3159 134.143 95.3463 134.204 95.3766 134.265C95.3766 134.326 95.3766 134.356 95.3766 134.356C95.3766 134.356 95.3463 134.234 95.2247 134.082C95.164 134.022 95.0728 133.931 94.9209 133.9C94.7994 133.87 94.6475 133.87 94.526 133.931C94.4652 133.961 94.4956 134.022 94.5563 134.082C94.6171 134.113 94.6779 134.143 94.7386 134.174C94.8602 134.204 94.9817 134.234 95.0728 134.265C95.3159 134.234 95.4374 134.234 95.4374 134.234Z" fill="#263238"/>
<path d="M95.3541 134.266C95.3541 134.266 95.2933 134.175 95.3237 134.023C95.3237 133.962 95.3541 133.871 95.4148 133.78C95.4756 133.719 95.5364 133.598 95.6883 133.598C95.7794 133.598 95.8098 133.689 95.7794 133.75C95.7794 133.81 95.749 133.871 95.7186 133.901C95.6579 133.993 95.6275 134.053 95.5667 134.114C95.4756 134.236 95.3845 134.266 95.3541 134.266C95.3845 134.266 95.4452 134.205 95.5364 134.084C95.5667 134.023 95.6275 133.962 95.6883 133.871C95.7187 133.81 95.749 133.658 95.6883 133.658C95.5971 133.658 95.506 133.75 95.4756 133.81C95.4148 133.871 95.3845 133.962 95.3845 134.023C95.3237 134.175 95.3541 134.266 95.3541 134.266Z" fill="#263238"/>
<path d="M101 133.841C101 133.841 100.848 133.841 100.605 133.871C100.362 133.902 100.058 133.993 99.7546 134.236C99.4812 134.479 99.2989 134.752 99.2381 134.995C99.147 135.208 99.147 135.36 99.147 135.36C99.147 135.36 99.147 135.33 99.147 135.269C99.147 135.208 99.1773 135.117 99.2077 134.995C99.2685 134.752 99.4508 134.448 99.7242 134.205C100.028 133.962 100.362 133.871 100.605 133.841C100.727 133.841 100.818 133.841 100.879 133.841C100.97 133.841 101 133.841 101 133.841Z" fill="#263238"/>
<path d="M100.45 131.682C100.48 131.682 100.48 132.168 100.51 132.745C100.51 133.353 100.51 133.809 100.51 133.809C100.48 133.809 100.48 133.323 100.45 132.745C100.419 132.138 100.419 131.682 100.45 131.682Z" fill="#263238"/>
<path d="M98.5149 134.873C98.5149 134.904 98.1807 134.965 97.7554 134.965C97.33 134.965 96.9958 134.934 96.9958 134.904C96.9958 134.873 97.33 134.904 97.7554 134.904C98.1503 134.873 98.5149 134.843 98.5149 134.873Z" fill="#263238"/>
<path d="M99.5132 134.843C99.5132 134.843 99.4828 134.904 99.4524 134.995C99.4221 135.086 99.3917 135.147 99.3917 135.147C99.3613 135.147 99.3613 135.056 99.3917 134.965C99.4524 134.904 99.5132 134.843 99.5132 134.843Z" fill="#263238"/>
<path d="M99.9201 134.356C99.9201 134.356 99.8897 134.417 99.8593 134.478C99.7986 134.538 99.7378 134.569 99.7378 134.569C99.7378 134.569 99.7682 134.508 99.7986 134.447C99.8593 134.387 99.9201 134.356 99.9201 134.356Z" fill="#263238"/>
<path d="M100.47 134.145C100.47 134.176 100.41 134.176 100.318 134.206C100.227 134.237 100.197 134.267 100.167 134.267C100.167 134.267 100.197 134.176 100.288 134.145C100.41 134.085 100.47 134.115 100.47 134.145Z" fill="#263238"/>
<path d="M100.85 134.022C100.85 134.053 100.82 134.053 100.789 134.083C100.759 134.113 100.698 134.113 100.698 134.083C100.698 134.053 100.729 134.053 100.759 134.022C100.789 134.022 100.85 134.022 100.85 134.022Z" fill="#263238"/>
<path d="M122.521 132.717L121.67 130.044L116.688 131.593L117.903 135.513L118.207 135.421C119.604 135.057 125.316 133.507 126.136 132.961C127.078 132.353 122.521 132.717 122.521 132.717Z" fill="#81A8DC"/>
<path d="M119.684 134.937C119.472 134.542 119.137 134.238 118.712 134.087C118.287 133.935 117.831 133.935 117.436 134.087L117.861 135.484L119.684 134.937Z" fill="#81A8DC"/>
<path d="M124.763 132.629C124.763 132.629 126.373 132.598 126.282 132.902C126.161 133.206 120.479 134.999 117.897 135.545L117.867 135.424L124.551 133.388C124.52 133.388 124.49 132.72 124.763 132.629Z" fill="#81A8DC"/>
<path d="M117.766 135.423C117.766 135.423 117.797 135.423 117.858 135.392C117.918 135.362 118.009 135.362 118.101 135.332C118.344 135.271 118.647 135.18 119.012 135.089C119.802 134.876 120.865 134.572 122.02 134.208C123.205 133.843 124.238 133.478 124.997 133.235C125.362 133.114 125.635 132.992 125.878 132.901C125.969 132.871 126.06 132.84 126.121 132.81C126.182 132.78 126.212 132.78 126.212 132.78C126.212 132.78 126.182 132.78 126.121 132.81C126.06 132.84 125.969 132.871 125.878 132.901C125.635 132.992 125.331 133.083 124.967 133.205C124.207 133.448 123.144 133.813 121.989 134.177C120.804 134.542 119.741 134.846 118.982 135.089C118.617 135.18 118.313 135.271 118.07 135.362C117.979 135.392 117.888 135.423 117.827 135.423C117.797 135.423 117.766 135.423 117.766 135.423Z" fill="#263238"/>
<path d="M124.556 133.479C124.586 133.479 124.526 133.266 124.586 132.993C124.647 132.719 124.799 132.567 124.799 132.537C124.799 132.537 124.617 132.689 124.526 132.962C124.465 133.266 124.526 133.479 124.556 133.479Z" fill="#263238"/>
<path d="M122.86 133.173C122.89 133.173 122.921 133.081 122.951 132.93C122.981 132.778 123.012 132.687 122.981 132.687C122.951 132.687 122.921 132.778 122.89 132.93C122.86 133.051 122.829 133.173 122.86 133.173Z" fill="#263238"/>
<path d="M122.38 133.081C122.38 133.081 122.471 133.021 122.532 132.899C122.593 132.808 122.623 132.717 122.623 132.687C122.623 132.687 122.532 132.747 122.471 132.869C122.41 132.99 122.38 133.081 122.38 133.081Z" fill="#263238"/>
<path d="M121.98 132.717C121.98 132.747 122.102 132.717 122.253 132.656C122.405 132.626 122.496 132.565 122.496 132.534C122.496 132.504 122.375 132.534 122.223 132.595C122.102 132.626 121.98 132.686 121.98 132.717Z" fill="#263238"/>
<path d="M121.785 132.415C121.785 132.445 121.937 132.445 122.089 132.415C122.271 132.385 122.393 132.293 122.362 132.293C122.362 132.263 122.21 132.324 122.059 132.354C121.907 132.385 121.785 132.385 121.785 132.415Z" fill="#263238"/>
<path d="M122.876 132.687C122.876 132.687 122.998 132.656 123.211 132.596C123.302 132.565 123.423 132.504 123.514 132.413C123.575 132.383 123.636 132.322 123.697 132.261C123.727 132.231 123.758 132.201 123.758 132.14C123.758 132.079 123.727 132.049 123.666 132.018C123.302 131.958 123.059 132.231 122.998 132.413C122.968 132.504 122.968 132.596 122.968 132.656C122.968 132.717 122.968 132.748 122.998 132.748C122.998 132.748 122.968 132.626 123.059 132.413C123.089 132.322 123.18 132.231 123.271 132.14C123.363 132.079 123.545 132.018 123.666 132.049C123.727 132.079 123.727 132.14 123.697 132.201C123.666 132.261 123.606 132.292 123.545 132.322C123.423 132.413 123.332 132.474 123.241 132.505C122.998 132.656 122.876 132.687 122.876 132.687Z" fill="#263238"/>
<path d="M122.967 132.687C122.967 132.687 122.997 132.596 122.937 132.444C122.906 132.384 122.845 132.292 122.785 132.232C122.694 132.171 122.602 132.11 122.481 132.141C122.42 132.171 122.39 132.262 122.42 132.323C122.451 132.384 122.481 132.414 122.511 132.444C122.572 132.505 122.663 132.566 122.724 132.596C122.845 132.687 122.937 132.687 122.967 132.687C122.937 132.687 122.845 132.657 122.724 132.566C122.663 132.535 122.602 132.475 122.542 132.414C122.481 132.353 122.42 132.262 122.481 132.201C122.572 132.171 122.663 132.232 122.724 132.262C122.785 132.323 122.845 132.384 122.876 132.444C122.937 132.596 122.937 132.687 122.967 132.687Z" fill="#263238"/>
<path d="M117.436 134.024C117.436 134.024 117.588 133.963 117.801 133.933C118.044 133.903 118.378 133.872 118.712 134.024C119.046 134.146 119.289 134.389 119.441 134.571C119.593 134.753 119.623 134.905 119.654 134.905C119.654 134.905 119.654 134.875 119.623 134.814C119.593 134.753 119.563 134.662 119.472 134.571C119.35 134.358 119.077 134.115 118.742 133.994C118.378 133.872 118.044 133.872 117.801 133.933C117.679 133.963 117.588 133.994 117.527 134.024C117.466 134.024 117.436 134.024 117.436 134.024Z" fill="#263238"/>
<path d="M117.325 131.807C117.295 131.807 117.446 132.263 117.598 132.84C117.781 133.417 117.933 133.873 117.933 133.873C117.963 133.873 117.811 133.417 117.659 132.84C117.507 132.263 117.355 131.807 117.325 131.807Z" fill="#263238"/>
<path d="M120.143 134.238C120.143 134.268 120.477 134.208 120.903 134.086C121.298 133.964 121.632 133.813 121.601 133.813C121.601 133.782 121.267 133.904 120.872 134.025C120.477 134.147 120.143 134.208 120.143 134.238Z" fill="#263238"/>
<path d="M119.176 134.541C119.176 134.571 119.237 134.602 119.267 134.663C119.328 134.723 119.359 134.784 119.389 134.784C119.419 134.784 119.389 134.693 119.328 134.632C119.267 134.541 119.176 134.541 119.176 134.541Z" fill="#263238"/>
<path d="M118.661 134.208C118.661 134.238 118.691 134.269 118.782 134.299C118.843 134.329 118.904 134.36 118.934 134.329C118.934 134.299 118.904 134.269 118.813 134.238C118.752 134.208 118.691 134.178 118.661 134.208Z" fill="#263238"/>
<path d="M118.093 134.147C118.093 134.177 118.153 134.147 118.245 134.147C118.336 134.147 118.396 134.177 118.396 134.147C118.396 134.147 118.336 134.086 118.245 134.086C118.153 134.086 118.062 134.147 118.093 134.147Z" fill="#263238"/>
<path d="M117.662 134.176C117.662 134.206 117.692 134.206 117.753 134.206C117.814 134.206 117.844 134.206 117.844 134.176C117.844 134.146 117.814 134.146 117.753 134.146C117.723 134.146 117.662 134.146 117.662 134.176Z" fill="#263238"/>
<path d="M92.2222 78.6686L94.6527 132.96L102.795 133.142L101.458 87.6918L116.223 133.659L122.877 131.836L108.02 78.6686" fill="#263238"/>
<path d="M115.884 133.355L116.249 134.084L123.297 132.049L122.872 130.864L115.884 133.355Z" fill="#455A64"/>
<path d="M122.063 130.589C122.093 130.589 122.154 130.65 122.215 130.771C122.245 130.893 122.245 131.014 122.215 131.014C122.184 131.014 122.124 130.954 122.063 130.832C122.032 130.711 122.032 130.589 122.063 130.589Z" fill="#455A64"/>
<path d="M121.546 128.828C121.576 128.828 121.668 129.01 121.759 129.253C121.819 129.496 121.85 129.709 121.819 129.709C121.789 129.709 121.698 129.527 121.607 129.283C121.516 129.04 121.516 128.828 121.546 128.828Z" fill="#455A64"/>
<path d="M121.028 127.064C121.058 127.064 121.149 127.246 121.24 127.49C121.301 127.733 121.332 127.945 121.301 127.945C121.271 127.945 121.18 127.763 121.088 127.52C120.997 127.277 120.967 127.064 121.028 127.064Z" fill="#455A64"/>
<path d="M120.487 125.3C120.517 125.3 120.608 125.483 120.699 125.726C120.76 125.969 120.79 126.181 120.76 126.181C120.73 126.181 120.638 125.999 120.547 125.756C120.487 125.513 120.456 125.3 120.487 125.3Z" fill="#455A64"/>
<path d="M119.97 123.54C120 123.54 120.092 123.722 120.183 123.965C120.244 124.208 120.274 124.421 120.244 124.421C120.213 124.421 120.122 124.238 120.031 123.995C119.94 123.752 119.909 123.54 119.97 123.54Z" fill="#455A64"/>
<path d="M119.414 121.779C119.445 121.779 119.536 121.961 119.627 122.204C119.688 122.447 119.718 122.66 119.688 122.66C119.657 122.66 119.566 122.477 119.475 122.234C119.414 121.991 119.384 121.779 119.414 121.779Z" fill="#455A64"/>
<path d="M118.899 120.015C118.929 120.015 119.021 120.198 119.112 120.441C119.172 120.684 119.203 120.896 119.172 120.896C119.142 120.896 119.051 120.714 118.96 120.471C118.869 120.228 118.869 120.015 118.899 120.015Z" fill="#455A64"/>
<path d="M118.387 118.255C118.417 118.255 118.508 118.437 118.599 118.68C118.66 118.923 118.69 119.136 118.66 119.136C118.63 119.136 118.539 118.953 118.447 118.71C118.356 118.467 118.326 118.255 118.387 118.255Z" fill="#455A64"/>
<path d="M117.838 116.491C117.868 116.491 117.959 116.674 118.051 116.917C118.111 117.16 118.142 117.372 118.111 117.372C118.081 117.372 117.99 117.19 117.899 116.947C117.838 116.704 117.807 116.491 117.838 116.491Z" fill="#455A64"/>
<path d="M117.322 114.731C117.352 114.731 117.443 114.913 117.534 115.156C117.595 115.399 117.625 115.612 117.595 115.612C117.565 115.612 117.474 115.429 117.382 115.186C117.291 114.943 117.261 114.731 117.322 114.731Z" fill="#455A64"/>
<path d="M116.773 112.969C116.804 112.969 116.895 113.152 116.986 113.395C117.047 113.638 117.077 113.85 117.047 113.85C117.016 113.85 116.925 113.668 116.834 113.425C116.773 113.182 116.743 112.969 116.773 112.969Z" fill="#455A64"/>
<path d="M116.261 111.206C116.291 111.206 116.382 111.388 116.474 111.631C116.534 111.874 116.565 112.087 116.534 112.087C116.504 112.087 116.413 111.904 116.322 111.661C116.23 111.418 116.23 111.206 116.261 111.206Z" fill="#455A64"/>
<path d="M115.745 109.442C115.776 109.442 115.867 109.624 115.958 109.867C116.019 110.11 116.049 110.323 116.019 110.323C115.989 110.323 115.897 110.141 115.806 109.898C115.715 109.655 115.685 109.442 115.745 109.442Z" fill="#455A64"/>
<path d="M115.194 107.681C115.224 107.681 115.315 107.863 115.406 108.106C115.467 108.349 115.497 108.562 115.467 108.562C115.437 108.562 115.345 108.38 115.254 108.137C115.194 107.893 115.163 107.681 115.194 107.681Z" fill="#455A64"/>
<path d="M114.681 105.918C114.711 105.918 114.802 106.101 114.893 106.344C114.954 106.587 114.984 106.799 114.954 106.799C114.924 106.799 114.832 106.617 114.741 106.374C114.65 106.131 114.62 105.918 114.681 105.918Z" fill="#455A64"/>
<path d="M114.132 104.157C114.162 104.157 114.254 104.339 114.345 104.582C114.405 104.825 114.436 105.038 114.405 105.038C114.375 105.038 114.284 104.856 114.193 104.613C114.132 104.37 114.102 104.157 114.132 104.157Z" fill="#455A64"/>
<path d="M113.613 102.396C113.644 102.396 113.735 102.578 113.826 102.821C113.887 103.065 113.917 103.277 113.887 103.277C113.857 103.277 113.765 103.095 113.674 102.852C113.613 102.609 113.583 102.396 113.613 102.396Z" fill="#455A64"/>
<path d="M113.098 100.633C113.128 100.633 113.219 100.815 113.31 101.058C113.371 101.301 113.401 101.514 113.371 101.514C113.341 101.514 113.249 101.331 113.158 101.088C113.067 100.845 113.037 100.633 113.098 100.633Z" fill="#455A64"/>
<path d="M112.553 98.8717C112.583 98.8717 112.674 99.054 112.766 99.297C112.826 99.5401 112.857 99.7528 112.826 99.7528C112.796 99.7528 112.705 99.5705 112.614 99.3274C112.553 99.0844 112.523 98.8717 112.553 98.8717Z" fill="#455A64"/>
<path d="M112.033 97.111C112.064 97.111 112.155 97.2932 112.246 97.5363C112.307 97.7793 112.337 97.992 112.307 97.992C112.276 97.992 112.185 97.8097 112.094 97.5667C112.003 97.3236 112.003 97.111 112.033 97.111Z" fill="#455A64"/>
<path d="M111.488 95.3472C111.518 95.3472 111.609 95.5295 111.7 95.7725C111.761 96.0156 111.791 96.2282 111.761 96.2282C111.731 96.2282 111.639 96.0459 111.548 95.8029C111.488 95.5598 111.457 95.3472 111.488 95.3472Z" fill="#455A64"/>
<path d="M110.972 93.5836C111.003 93.5836 111.094 93.7659 111.185 94.009C111.246 94.252 111.276 94.4647 111.246 94.4647C111.215 94.4647 111.124 94.2824 111.033 94.0393C110.972 93.7963 110.942 93.5836 110.972 93.5836Z" fill="#455A64"/>
<path d="M110.453 91.8223C110.483 91.8223 110.575 92.0046 110.666 92.2476C110.726 92.4907 110.757 92.7033 110.726 92.7033C110.696 92.7033 110.605 92.521 110.514 92.278C110.423 92.0349 110.392 91.8223 110.453 91.8223Z" fill="#455A64"/>
<path d="M109.911 90.0598C109.942 90.0598 110.033 90.2421 110.124 90.4852C110.185 90.7282 110.215 90.9409 110.185 90.9409C110.154 90.9409 110.063 90.7586 109.972 90.5155C109.911 90.2725 109.881 90.0598 109.911 90.0598Z" fill="#455A64"/>
<path d="M109.392 88.2692C109.423 88.2692 109.514 88.4515 109.605 88.6945C109.666 88.9375 109.696 89.1502 109.666 89.1502C109.635 89.1502 109.544 88.9679 109.453 88.7249C109.362 88.5122 109.362 88.2995 109.392 88.2692Z" fill="#455A64"/>
<path d="M108.877 86.5054C108.907 86.5054 108.998 86.6877 109.089 86.9307C109.15 87.1738 109.18 87.3864 109.15 87.3864C109.12 87.3864 109.028 87.2041 108.937 86.9611C108.846 86.7484 108.816 86.5358 108.877 86.5054Z" fill="#455A64"/>
<path d="M108.331 84.7418C108.362 84.7418 108.453 84.9241 108.544 85.1672C108.605 85.4102 108.635 85.6229 108.605 85.6229C108.574 85.6229 108.483 85.4406 108.392 85.1975C108.331 84.9849 108.301 84.7722 108.331 84.7418Z" fill="#455A64"/>
<path d="M107.809 82.9811C107.839 82.9811 107.93 83.1634 108.022 83.4064C108.082 83.6495 108.113 83.8621 108.082 83.8621C108.052 83.8621 107.961 83.6798 107.87 83.4368C107.779 83.2241 107.748 83.0115 107.809 82.9811Z" fill="#455A64"/>
<path d="M107.267 81.2197C107.297 81.2197 107.388 81.402 107.479 81.6451C107.54 81.8881 107.571 82.1008 107.54 82.1008C107.51 82.1008 107.419 81.9185 107.328 81.6754C107.267 81.4628 107.236 81.2501 107.267 81.2197Z" fill="#455A64"/>
<path d="M106.874 79.9137C106.905 79.9137 106.965 79.9745 107.026 80.096C107.057 80.2175 107.057 80.339 107.026 80.339C106.996 80.339 106.935 80.2783 106.874 80.1567C106.844 80.0352 106.844 79.9441 106.874 79.9137Z" fill="#455A64"/>
<path d="M101.397 132.687C101.428 132.687 101.489 132.778 101.489 132.899C101.489 133.021 101.458 133.142 101.428 133.142C101.397 133.142 101.337 133.051 101.337 132.93C101.337 132.778 101.367 132.687 101.397 132.687Z" fill="#455A64"/>
<path d="M101.336 130.865C101.366 130.865 101.427 131.077 101.427 131.32C101.427 131.564 101.397 131.776 101.366 131.776C101.336 131.776 101.275 131.564 101.275 131.32C101.245 131.077 101.275 130.895 101.336 130.865Z" fill="#455A64"/>
<path d="M101.271 129.068C101.302 129.068 101.363 129.281 101.363 129.524C101.363 129.767 101.332 129.98 101.302 129.98C101.271 129.98 101.211 129.767 101.211 129.524C101.211 129.281 101.241 129.068 101.271 129.068Z" fill="#455A64"/>
<path d="M101.213 127.249C101.243 127.249 101.304 127.462 101.304 127.705C101.304 127.948 101.273 128.161 101.243 128.161C101.213 128.161 101.152 127.948 101.152 127.705C101.152 127.462 101.182 127.249 101.213 127.249Z" fill="#455A64"/>
<path d="M101.185 125.453C101.215 125.453 101.276 125.666 101.276 125.909C101.276 126.152 101.246 126.365 101.215 126.365C101.185 126.365 101.124 126.152 101.124 125.909C101.124 125.666 101.155 125.453 101.185 125.453Z" fill="#455A64"/>
<path d="M101.125 123.634C101.156 123.634 101.216 123.846 101.216 124.09C101.216 124.333 101.186 124.545 101.156 124.545C101.125 124.545 101.064 124.333 101.064 124.09C101.064 123.846 101.095 123.634 101.125 123.634Z" fill="#455A64"/>
<path d="M101.093 121.838C101.123 121.838 101.184 122.051 101.184 122.294C101.184 122.537 101.154 122.749 101.123 122.749C101.093 122.749 101.032 122.537 101.032 122.294C101.002 122.02 101.032 121.838 101.093 121.838Z" fill="#455A64"/>
<path d="M101 120.018C101.031 120.018 101.092 120.231 101.092 120.474C101.092 120.717 101.061 120.93 101.031 120.93C101 120.93 100.94 120.717 100.94 120.474C100.94 120.231 100.97 120.018 101 120.018Z" fill="#455A64"/>
<path d="M100.942 118.223C100.972 118.223 101.033 118.435 101.033 118.678C101.033 118.921 101.003 119.134 100.972 119.134C100.942 119.134 100.881 118.921 100.881 118.678C100.851 118.405 100.881 118.223 100.942 118.223Z" fill="#455A64"/>
<path d="M100.88 116.403C100.91 116.403 100.971 116.616 100.971 116.859C100.971 117.102 100.941 117.314 100.91 117.314C100.88 117.314 100.819 117.102 100.819 116.859C100.789 116.616 100.819 116.403 100.88 116.403Z" fill="#455A64"/>
<path d="M100.82 114.607C100.851 114.607 100.912 114.82 100.912 115.063C100.912 115.306 100.881 115.519 100.851 115.519C100.82 115.519 100.76 115.306 100.76 115.063C100.729 114.79 100.76 114.607 100.82 114.607Z" fill="#455A64"/>
<path d="M100.757 112.788C100.788 112.788 100.848 113.001 100.848 113.244C100.848 113.487 100.818 113.7 100.788 113.7C100.757 113.7 100.697 113.487 100.697 113.244C100.697 113.001 100.727 112.788 100.757 112.788Z" fill="#455A64"/>
<path d="M100.726 110.966C100.756 110.966 100.817 111.178 100.817 111.422C100.817 111.665 100.787 111.877 100.756 111.877C100.726 111.877 100.665 111.665 100.665 111.422C100.635 111.178 100.696 110.966 100.726 110.966Z" fill="#455A64"/>
<path d="M100.695 109.17C100.726 109.17 100.786 109.383 100.786 109.626C100.786 109.869 100.756 110.081 100.726 110.081C100.695 110.081 100.635 109.869 100.635 109.626C100.604 109.383 100.665 109.17 100.695 109.17Z" fill="#455A64"/>
<path d="M100.666 107.348C100.697 107.348 100.758 107.56 100.758 107.803C100.758 108.046 100.727 108.259 100.697 108.259C100.666 108.259 100.606 108.046 100.606 107.803C100.606 107.56 100.636 107.348 100.666 107.348Z" fill="#455A64"/>
<path d="M100.669 105.555C100.699 105.555 100.76 105.767 100.76 106.01C100.76 106.253 100.73 106.466 100.669 106.466C100.608 106.466 100.578 106.253 100.578 106.01C100.578 105.737 100.608 105.555 100.669 105.555Z" fill="#455A64"/>
<path d="M100.669 103.732C100.699 103.732 100.76 103.945 100.76 104.188C100.76 104.431 100.73 104.644 100.669 104.644C100.639 104.644 100.578 104.431 100.578 104.188C100.578 103.945 100.608 103.732 100.669 103.732Z" fill="#455A64"/>
<path d="M100.669 101.939C100.699 101.939 100.76 102.152 100.76 102.395C100.76 102.638 100.73 102.851 100.669 102.851C100.608 102.851 100.578 102.638 100.578 102.395C100.578 102.122 100.608 101.939 100.669 101.939Z" fill="#455A64"/>
<path d="M100.667 100.117C100.697 100.117 100.758 100.33 100.728 100.573C100.728 100.816 100.697 101.029 100.637 101.029C100.606 101.029 100.546 100.816 100.576 100.573C100.606 100.33 100.637 100.117 100.667 100.117Z" fill="#455A64"/>
<path d="M100.69 98.2949C100.721 98.2949 100.782 98.5076 100.751 98.7506C100.751 98.9937 100.721 99.2064 100.66 99.2064C100.63 99.2064 100.569 98.9937 100.599 98.7506C100.599 98.5076 100.66 98.2949 100.69 98.2949Z" fill="#455A64"/>
<path d="M100.727 96.5023C100.758 96.5023 100.788 96.715 100.788 96.958C100.788 97.2011 100.758 97.4138 100.697 97.4138C100.667 97.4138 100.636 97.2011 100.636 96.958C100.636 96.715 100.697 96.5023 100.727 96.5023Z" fill="#455A64"/>
<path d="M100.763 94.6793C100.793 94.6793 100.824 94.892 100.824 95.135C100.824 95.3781 100.763 95.5908 100.733 95.5908C100.702 95.5908 100.672 95.3781 100.672 95.135C100.702 94.892 100.733 94.6793 100.763 94.6793Z" fill="#455A64"/>
<path d="M100.849 92.8868C100.88 92.8868 100.91 93.0995 100.91 93.3426C100.91 93.5856 100.849 93.7983 100.819 93.7983C100.788 93.7983 100.758 93.5856 100.758 93.3426C100.758 93.0691 100.788 92.8868 100.849 92.8868Z" fill="#455A64"/>
<path d="M100.939 91.064C100.97 91.064 101 91.2766 101 91.5197C100.97 91.7627 100.939 91.9754 100.879 91.9754C100.848 91.9754 100.818 91.7627 100.818 91.5197C100.848 91.2766 100.909 91.064 100.939 91.064Z" fill="#455A64"/>
<path d="M101.123 89.2711C101.153 89.2711 101.183 89.4838 101.153 89.7268C101.123 89.9699 101.062 90.1826 101.031 90.1826C101.001 90.1826 100.971 89.9699 101.001 89.7268C101.001 89.4534 101.062 89.2711 101.123 89.2711Z" fill="#455A64"/>
<path d="M101.274 87.9344C101.304 87.9344 101.335 88.0559 101.335 88.1775C101.304 88.299 101.274 88.3901 101.213 88.3901C101.183 88.3901 101.152 88.2686 101.152 88.1471C101.183 88.0256 101.243 87.904 101.274 87.9344Z" fill="#455A64"/>
<path d="M94.4355 133.233L103.064 133.355L103.003 131.927L94.4355 131.988V133.233Z" fill="#455A64"/>
<path d="M100.089 79.3665C100.089 79.3665 100.12 79.488 100.15 79.7007C100.18 79.9133 100.211 80.2171 100.241 80.6121C100.302 81.3716 100.363 82.435 100.454 83.6198C100.484 84.1971 100.515 84.7743 100.545 85.2604C100.575 85.7769 100.575 86.2326 100.697 86.5668C100.818 86.9314 101.061 87.144 101.244 87.2352C101.426 87.3263 101.548 87.2959 101.548 87.3263C101.548 87.3263 101.517 87.3263 101.456 87.3263C101.396 87.3263 101.304 87.3263 101.213 87.2656C101.001 87.2048 100.727 86.9618 100.575 86.5972C100.423 86.2326 100.423 85.7465 100.363 85.2604C100.332 84.7439 100.302 84.1971 100.241 83.6198C100.18 82.435 100.12 81.3716 100.089 80.6121C100.059 80.2171 100.059 79.9133 100.059 79.7007C100.089 79.488 100.089 79.3665 100.089 79.3665Z" fill="#455A64"/>
<path d="M100.943 80.0959C100.943 80.1263 100.882 80.1567 100.882 80.3086C100.882 80.3693 100.882 80.4605 100.943 80.4909C101.003 80.5516 101.064 80.5516 101.155 80.5213C101.246 80.4909 101.277 80.4301 101.277 80.339C101.277 80.2782 101.246 80.2174 101.186 80.1567C101.094 80.0655 101.003 80.0959 101.003 80.0655C101.003 80.0655 101.094 79.9744 101.277 80.0655C101.337 80.0959 101.429 80.1871 101.429 80.339C101.429 80.4605 101.337 80.6124 101.216 80.6732C101.094 80.7339 100.912 80.7035 100.851 80.582C100.76 80.4909 100.76 80.3693 100.791 80.2782C100.791 80.0959 100.943 80.0655 100.943 80.0959Z" fill="#455A64"/>
<path d="M108.598 81.3711C108.598 81.3711 108.355 81.523 107.929 81.6142C107.504 81.7053 106.835 81.7053 106.197 81.4319C105.559 81.1584 105.104 80.642 104.891 80.2774C104.648 79.8824 104.618 79.609 104.618 79.609C104.648 79.609 104.739 79.8521 104.982 80.2166C105.225 80.5812 105.651 81.0369 106.258 81.3104C106.866 81.5838 107.474 81.6142 107.899 81.523C108.355 81.4623 108.598 81.3407 108.598 81.3711Z" fill="#455A64"/>
<path d="M95.0502 79.3683C95.0805 79.3683 95.1109 79.581 95.0198 79.9455C94.9286 80.3101 94.716 80.7962 94.2906 81.1608C93.8653 81.5254 93.3488 81.7076 92.9842 81.738C92.6196 81.7684 92.407 81.7076 92.407 81.6773C92.407 81.6469 92.6196 81.6773 92.9842 81.6165C93.3184 81.5557 93.8045 81.4038 94.1995 81.0393C94.5944 80.6747 94.8375 80.2493 94.9286 79.9151C95.0198 79.581 95.0198 79.3683 95.0502 79.3683Z" fill="#455A64"/>
<path d="M93.8386 55.7624C93.8386 55.7624 85.7268 59.1955 85.4534 59.074C85.2407 58.9525 85.0281 52.3901 85.0281 52.3901H80.9874C80.9874 52.3901 80.2278 62.0817 82.6583 63.6312C85.9699 65.7579 94.0513 61.3222 94.0513 61.3222L93.8386 55.7624Z" fill="#FFBE9D"/>
<path d="M66.7363 44.0639L65.916 47.6793L69.8048 48.6211C69.8048 48.6211 71.415 48.9857 72.9948 51.2339C74.5747 53.5125 75.2127 54.5151 75.2127 54.5151L77.9166 41.1777L75 43.2437C74.4228 43.669 73.7847 43.9728 73.086 44.1551C72.2353 44.3981 71.1416 44.6716 70.5036 44.6412C69.0757 44.6108 66.7363 44.0639 66.7363 44.0639Z" fill="#263238"/>
<path d="M110.428 59.528L75.1855 54.5151L77.8895 41.1777L112.159 49.4414C112.919 49.6237 113.405 50.3529 113.284 51.1428L112.129 58.2823C112.008 59.1026 111.248 59.6495 110.428 59.528Z" fill="#81A8DC"/>
<path d="M63.5801 44.2162C63.489 44.1858 63.3674 44.277 63.3978 44.3985C63.489 44.915 63.7624 46.191 63.9751 46.7379C64.0662 46.9505 66.0106 47.1328 66.0106 47.1328L66.5575 44.7935L63.5801 44.2162Z" fill="#81A8DC"/>
<path d="M107.603 54.9399L108.15 52.7829L85.3947 48.1649L84.939 50.3524L107.603 54.9399Z" fill="#263238"/>
<path d="M103.201 54.882L98.1573 54.4871C98.1269 53.9098 98.1573 51.6312 98.1573 51.6312C98.1573 51.6312 96.061 51.2971 96.0306 49.2008C96.0002 47.1045 96.3648 42.3042 96.3648 42.3042C98.7953 41.2713 101.59 41.6055 103.687 43.2157L103.99 43.4587L103.201 54.882Z" fill="#FFBE9D"/>
<path d="M96.8917 45.891C97.0132 45.7695 97.0132 45.5872 96.9221 45.4657C96.8005 45.3442 96.6182 45.3442 96.4967 45.4353C96.3752 45.5569 96.3752 45.7391 96.4663 45.8607C96.5575 45.9822 96.7701 46.0126 96.8917 45.891Z" fill="#263238"/>
<path d="M96.3813 45.4033C96.4117 45.4337 96.6244 45.2818 96.8978 45.2818C97.1712 45.2818 97.3839 45.4337 97.4143 45.4033C97.4447 45.3729 97.3839 45.3122 97.2928 45.2514C97.2016 45.1906 97.0497 45.1299 96.8674 45.1299C96.6851 45.1299 96.5332 45.1906 96.4421 45.2818C96.4117 45.3426 96.3509 45.4033 96.3813 45.4033Z" fill="#263238"/>
<path d="M99.6793 45.6753C99.5274 45.7664 99.497 45.9487 99.5881 46.1006C99.6793 46.2525 99.8616 46.2829 100.013 46.1918C100.165 46.1006 100.196 45.9183 100.105 45.7664C100.013 45.6145 99.8312 45.5841 99.6793 45.6753Z" fill="#263238"/>
<path d="M99.4949 45.6753C99.5253 45.7057 99.7379 45.5538 100.011 45.5538C100.285 45.5538 100.497 45.7057 100.528 45.6753C100.558 45.6449 100.497 45.5841 100.406 45.5234C100.315 45.4626 100.163 45.4019 99.981 45.4019C99.7987 45.4019 99.6468 45.4626 99.5556 45.5538C99.5252 45.5841 99.4949 45.6449 99.4949 45.6753Z" fill="#263238"/>
<path d="M98.3371 48.0469C98.3371 48.0166 98.1548 47.9862 97.8813 47.9558C97.8206 47.9558 97.7598 47.9254 97.7294 47.895C97.7294 47.8343 97.7598 47.7735 97.7902 47.6824C97.851 47.5001 97.9421 47.2874 98.0333 47.1051C98.3371 46.2848 98.5801 45.5861 98.5194 45.5557C98.489 45.5253 98.1852 46.1937 97.8813 47.0444C97.8206 47.257 97.7294 47.4393 97.6687 47.6216C97.6383 47.7127 97.5775 47.8039 97.6383 47.9254C97.6687 47.9862 97.7294 48.0469 97.7598 48.0469C97.8206 48.0469 97.851 48.0469 97.8813 48.0773C98.1548 48.0773 98.3371 48.0773 98.3371 48.0469Z" fill="#263238"/>
<path d="M99.2805 48.3515C99.5843 48.1692 98.4602 48.7768 97.8525 48.7768C97.8525 48.7768 98.1867 49.3237 98.7944 49.0806C99.4324 48.868 99.2805 48.3515 99.2805 48.3515Z" fill="white"/>
<path d="M98.1558 51.5682C98.1558 51.5682 99.4925 51.6898 100.89 50.7783C100.89 50.7783 100.252 52.2974 98.1558 52.0847V51.5682Z" fill="#EB996E"/>
<path d="M104.023 45.4622C104.084 45.4622 105.572 45.3407 105.329 47.1028C105.086 48.8649 103.385 48.0446 103.385 47.9839C103.385 47.9535 104.023 45.4622 104.023 45.4622Z" fill="#FFBE9D"/>
<path d="M103.994 47.4681C103.994 47.4681 104.025 47.4985 104.085 47.5289C104.146 47.5593 104.207 47.5896 104.328 47.5593C104.511 47.5289 104.723 47.2555 104.784 46.9213C104.814 46.7694 104.814 46.6174 104.754 46.4655C104.723 46.3136 104.663 46.2225 104.541 46.1921C104.45 46.1617 104.389 46.1921 104.359 46.2529C104.328 46.3136 104.328 46.344 104.328 46.344C104.328 46.344 104.298 46.3136 104.328 46.2529C104.328 46.2225 104.359 46.1921 104.419 46.1617C104.48 46.1313 104.541 46.1313 104.602 46.1313C104.723 46.1617 104.845 46.3136 104.875 46.4655C104.936 46.6174 104.936 46.7997 104.906 46.982C104.845 47.3466 104.602 47.6504 104.359 47.6808C104.237 47.6808 104.146 47.6504 104.085 47.5896C103.994 47.4985 103.994 47.4681 103.994 47.4681Z" fill="#EB996E"/>
<path d="M96.3944 42.2421C96.9412 43.67 99.0072 44.2472 100.557 44.3384C99.8578 43.7308 100.283 43.8523 99.8578 43.3966C100.769 44.1865 102.349 45.0372 104.111 44.9764C104.354 44.2776 104.293 43.4573 103.929 42.8193C103.595 42.1509 102.957 41.6345 102.258 41.4218C101.772 41.2699 101.286 41.2699 100.8 41.1484C100.405 41.0572 100.01 40.9053 99.5844 40.8445C98.3692 40.6623 96.364 40.3281 96.3944 42.2421Z" fill="#263238"/>
<path d="M103.166 44.1868C103.257 44.3994 103.682 46.7692 103.682 46.7692L104.229 44.4906L103.166 44.1868Z" fill="#263238"/>
<path d="M118.141 73.5659C119.812 71.6519 119.812 68.7656 118.11 66.8516L109.998 57.6461L107.811 63.7224C107.963 63.8135 114.13 70.4366 114.13 70.4366L108.814 77.0597C107.993 78.0927 107.75 79.4598 108.176 80.6751L109.604 84.1385L113.492 82.4068L113.189 81.9511H110.272L110.09 81.2523L118.141 73.5659Z" fill="#FFBE9D"/>
<path d="M114.285 61.5635L109.151 56.3683C108.148 55.3354 106.994 54.5759 105.596 54.0594C104.928 53.8163 104.199 53.6644 103.379 53.634C101.586 54.1809 99.7936 54.1809 98.0011 53.634C97.272 53.7252 95.6314 53.9378 93.7781 54.8493L86.1221 57.9482L88.5829 64.7232L92.6844 63.3256L92.9275 69.7057L92.1072 79.2454L107.997 79.3973L107.784 70.7386V64.4801L110.093 66.7283L114.285 61.5635Z" fill="#455A64"/>
</svg>
