<svg width="150" height="158" viewBox="0 0 150 158" fill="none" xmlns="http://www.w3.org/2000/svg">
<path d="M27.2083 29.2086L24.6919 29.2222L25.2946 142.439L27.811 142.425L27.2083 29.2086Z" fill="#E0E0E0"/>
<path d="M33.2508 29.1764L30.7344 29.1899L31.3371 142.407L33.8534 142.393L33.2508 29.1764Z" fill="#E0E0E0"/>
<path d="M86.1922 28.8907L83.6758 28.9043L84.2784 142.121L86.7948 142.107L86.1922 28.8907Z" fill="#E0E0E0"/>
<path d="M92.2593 28.8642L89.7429 28.8777L90.3428 142.094L92.8592 142.081L92.2593 28.8642Z" fill="#E0E0E0"/>
<path d="M92.2735 28.8424L24.6772 29.2046L24.6912 31.8007L92.2875 31.4386L92.2735 28.8424Z" fill="#E0E0E0"/>
<path d="M92.4059 52.111L24.8096 52.4731L24.8136 53.233L92.4099 52.8708L92.4059 52.111Z" fill="#E0E0E0"/>
<path d="M92.5323 74.0234L24.936 74.3855L24.9401 75.1453L92.5364 74.7832L92.5323 74.0234Z" fill="#E0E0E0"/>
<path d="M92.6207 95.9325L25.0244 96.2947L25.0285 97.0545L92.6248 96.6924L92.6207 95.9325Z" fill="#E0E0E0"/>
<path d="M92.7472 117.839L25.1509 118.201L25.1549 118.961L92.7512 118.599L92.7472 117.839Z" fill="#E0E0E0"/>
<path d="M64.4974 105.195L52.5132 105.26L52.5817 118.05L64.566 117.986L64.4974 105.195Z" fill="#EBEBEB"/>
<path d="M76.4152 105.134L64.4309 105.198L64.4995 117.988L76.4838 117.924L76.4152 105.134Z" fill="#F5F5F5"/>
<path d="M52.5473 108.744C60.5054 108.807 68.4949 108.744 76.453 108.617C76.5788 108.617 76.5788 108.427 76.453 108.427C68.4949 108.396 60.5054 108.396 52.5473 108.554C52.453 108.586 52.453 108.744 52.5473 108.744Z" fill="#E0E0E0"/>
<path d="M61.0493 57.0514L52.2734 57.0984L52.3236 66.4698L61.0995 66.4228L61.0493 57.0514Z" fill="#EBEBEB"/>
<path d="M69.7593 57.0192L60.9834 57.0662L61.0336 66.4376L69.8095 66.3906L69.7593 57.0192Z" fill="#F5F5F5"/>
<path d="M52.3119 59.6989C58.131 59.7622 63.9816 59.6989 69.8007 59.6039C69.9266 59.6039 69.9266 59.414 69.8007 59.414C63.9816 59.3823 58.131 59.414 52.3119 59.5089C52.1861 59.5406 52.1861 59.6989 52.3119 59.6989Z" fill="#E0E0E0"/>
<path d="M62.7474 66.2759L46.7998 66.3613L46.8407 73.9914L62.7883 73.906L62.7474 66.2759Z" fill="#EBEBEB"/>
<path d="M78.6038 66.179L62.6562 66.2644L62.6971 73.8945L78.6447 73.8091L78.6038 66.179Z" fill="#F5F5F5"/>
<path d="M46.8243 68.4691C57.4246 68.5958 68.0249 68.4691 78.6251 68.3108C78.7509 68.3108 78.7509 68.1209 78.6251 68.1209C68.0249 68.0576 57.4246 68.0575 46.8243 68.3108C46.6985 68.3108 46.6985 68.4691 46.8243 68.4691Z" fill="#E0E0E0"/>
<path d="M51.214 36.6421L47.2192 36.6636L47.3027 52.367L51.2975 52.3455L51.214 36.6421Z" fill="#EBEBEB"/>
<path d="M47.1681 40.9143L43.1733 40.9358L43.2341 52.3651L47.2289 52.3436L47.1681 40.9143Z" fill="#E0E0E0"/>
<path d="M57.5488 39.546L51.3208 39.5796L51.3886 52.307L57.6166 52.2734L57.5488 39.546Z" fill="#E0E0E0"/>
<path d="M59.405 39.5631L57.4233 39.5737L57.491 52.3011L59.4726 52.2904L59.405 39.5631Z" fill="#EBEBEB"/>
<path d="M61.3957 42.4759L59.4141 42.4866L59.4662 52.2696L61.4479 52.2589L61.3957 42.4759Z" fill="#E0E0E0"/>
<path d="M50.3913 82.6371L46.6953 81.1116L41.146 94.7323L44.842 96.2579L50.3913 82.6371Z" fill="#E0E0E0"/>
<path d="M53.8651 80.5227L49.8704 80.5442L49.9539 96.2476L53.9486 96.2261L53.8651 80.5227Z" fill="#EBEBEB"/>
<path d="M62.1392 83.3939L55.9111 83.4275L55.9789 96.1549L62.2069 96.1213L62.1392 83.3939Z" fill="#E0E0E0"/>
<path d="M55.8992 78.7239L54.5466 78.7312L54.64 96.176L55.9925 96.1686L55.8992 78.7239Z" fill="#EBEBEB"/>
<path d="M54.555 81.4499L53.863 81.4536L53.9415 96.1756L54.6335 96.1719L54.555 81.4499Z" fill="#F5F5F5"/>
<path d="M62.2541 95.5037L62.2578 96.2002L76.8843 96.1212L76.8806 95.4247L62.2541 95.5037Z" fill="#F5F5F5"/>
<path d="M78.1363 91.3218L62.1887 91.4072L62.2106 95.4914L78.1582 95.406L78.1363 91.3218Z" fill="#EBEBEB"/>
<path d="M74.9598 87.2459L62.1577 87.3149L62.1795 91.3991L74.9815 91.3301L74.9598 87.2459Z" fill="#E0E0E0"/>
<path d="M142.191 142.112C142.191 142.143 111.896 142.207 74.5562 142.207C37.1931 142.207 6.92139 142.175 6.92139 142.112C6.92139 142.08 37.1931 142.017 74.5562 142.017C111.919 142.048 142.191 142.08 142.191 142.112Z" fill="#263238"/>
<path d="M132.573 82.3035H90.3904V89.7636H132.573V82.3035Z" fill="#455A64"/>
<path d="M96.4257 77.6687H128.249V76.1361H96.4257V77.6687Z" fill="#263238"/>
<path d="M133.13 77.6642L139.119 55.186H114.299L108.869 77.6642H133.13Z" fill="#263238"/>
<path d="M110.333 75.9747H132.564L137.741 56.2041H115.409L110.333 75.9747Z" fill="#E0E0E0"/>
<path d="M89.3972 81.3318H88.1184V142.149H89.3972V81.3318Z" fill="#455A64"/>
<path d="M90.6706 81.4929H89.3918V142.109H90.6706V81.4929Z" fill="#263238"/>
<path d="M133.618 81.3318H132.339V142.149H133.618V81.3318Z" fill="#455A64"/>
<path d="M134.894 81.4929H133.615V142.109H134.894V81.4929Z" fill="#263238"/>
<path d="M145.042 77.7927H77.429V82.7804H145.042V77.7927Z" fill="#455A64"/>
<path d="M112.647 86.3172C112.647 86.8401 112.208 87.2825 111.688 87.2825C111.169 87.2825 110.729 86.8401 110.729 86.3172C110.729 85.7943 111.169 85.3518 111.688 85.3518C112.208 85.392 112.647 85.7943 112.647 86.3172Z" fill="#263238"/>
<path d="M56.7595 103.878L48.035 68.0576C47.4263 65.4844 49.3335 62.9929 51.9712 62.9929H72.6261C74.4522 62.9929 76.0753 64.2591 76.5623 66.0562L85.7332 101.673C86.3825 104.246 84.4753 106.737 81.8376 106.778L60.7363 106.982C58.8697 107.023 57.2059 105.716 56.7595 103.878Z" fill="#81A8DC"/>
<path d="M52.0995 62.9929C49.2995 62.9929 47.2705 65.607 47.9198 68.3435L57.253 106.982H64.1921L52.0995 62.9929Z" fill="#3E75BE"/>
<path d="M91.2181 107.021H70.6849C68.5342 107.021 66.7893 105.265 66.7893 103.1V99.7509C66.7893 97.5861 68.5342 95.8298 70.6849 95.8298H91.2181C93.3688 95.8298 95.1137 97.5861 95.1137 99.7509V103.1C95.1137 105.265 93.3688 107.021 91.2181 107.021Z" fill="#81A8DC"/>
<g opacity="0.4">
<path opacity="0.4" d="M70.9273 106.749L68.4114 95.5576H61.31L52.3014 62.7188C49.5014 62.7188 47.4724 65.3328 48.1217 68.0694L57.455 106.708H57.7796H70.9273V106.749Z" fill="#0F0118"/>
</g>
<path d="M87.4923 95.8313C87.4923 95.8721 81.6488 95.9538 74.4257 95.9538C67.2026 95.9538 61.3591 95.913 61.3591 95.8313C61.3591 95.7904 67.2026 95.7087 74.4257 95.7087C81.6488 95.7087 87.4923 95.7904 87.4923 95.8313Z" fill="#E0E0E0"/>
<path d="M92.3598 110.164H59.2064C58.3137 110.164 57.5833 109.429 57.5833 108.53C57.5833 107.631 58.3137 106.896 59.2064 106.896H92.4004C93.2931 106.896 94.0236 107.631 94.0236 108.53C93.983 109.429 93.2526 110.164 92.3598 110.164Z" fill="#263238"/>
<path d="M61.5114 110.167L56.0332 142.108H57.5346L64.7172 110.167H61.5114Z" fill="#263238"/>
<path d="M74.3805 110.167L68.5776 142.108H70.0791L77.6268 110.167H74.3805Z" fill="#263238"/>
<path d="M88.6237 110.167L95.1164 142.108H93.615L85.418 110.167H88.6237Z" fill="#263238"/>
<path d="M39.7039 76.0974C39.7039 76.0974 43.4264 84.3007 43.6802 84.6413C43.9058 84.9535 53.1051 90.2126 53.1051 90.2126L51.9752 85.3164L47.9103 82.2002L43.5674 73.5144L39.7039 76.0974Z" fill="#FFBE9D"/>
<path d="M28.5023 56.5709C28.5587 56.7412 28.5023 56.9399 28.3895 57.0534C28.2485 57.167 28.0511 57.1954 27.9101 57.1386C27.5999 56.9967 27.5435 56.5993 27.5999 56.2587C27.6281 55.9181 27.7409 55.5774 27.5717 55.2652C27.4589 55.0381 27.2333 54.8962 27.0359 54.7259C26.6975 54.4136 26.5283 53.9595 26.5847 53.5337C26.6411 53.0796 26.9513 52.6822 27.3743 52.5402C27.7973 52.3983 28.3331 52.5119 28.6433 52.1712C28.8689 51.9158 28.8689 51.5468 29.0381 51.2629C29.2919 50.8088 29.8842 50.7236 30.3918 50.752C30.8994 50.7804 31.407 50.9223 31.9146 50.7804C32.3094 50.6668 32.6478 50.3546 33.0144 50.1559C33.8323 49.7301 34.9039 49.8721 35.5807 50.5249C36.2575 51.1494 36.4549 52.228 36.0883 53.0796C35.9473 53.3918 35.7217 53.6756 35.4397 53.8176" fill="#263238"/>
<path d="M29.0108 65.2511L33.8049 64.8537C33.8331 64.286 33.8049 62.1004 33.8049 62.1004C33.8049 62.1004 35.8072 61.7881 35.8354 59.7728C35.8636 57.7575 35.5252 53.1591 35.5252 53.1591C33.2127 52.1656 30.5619 52.5062 28.5596 54.039L28.2776 54.2661L29.0108 65.2511Z" fill="#FFBE9D"/>
<path d="M34.8224 56.5896C34.7096 56.4761 34.6814 56.3058 34.7942 56.1922C34.907 56.0787 35.0762 56.0503 35.189 56.1638C35.3018 56.2774 35.33 56.4477 35.2172 56.5612C35.1326 56.6748 34.9352 56.7031 34.8224 56.5896Z" fill="#263238"/>
<path d="M35.5284 56.1672C35.5002 56.1955 35.3028 56.0536 35.0208 56.0536C34.7388 56.0536 34.5414 56.1955 34.5132 56.1672C34.485 56.1388 34.5414 56.082 34.626 56.0252C34.7106 55.9685 34.8516 55.8833 35.0208 55.8833C35.19 55.8833 35.331 55.9401 35.4156 56.0252C35.5002 56.1104 35.5284 56.1672 35.5284 56.1672Z" fill="#263238"/>
<path d="M32.1692 56.4285C32.3102 56.5137 32.3384 56.684 32.2538 56.8259C32.1692 56.9678 32 56.9962 31.859 56.9111C31.718 56.8259 31.6898 56.6556 31.7744 56.5137C31.859 56.3717 32.0282 56.3434 32.1692 56.4285Z" fill="#263238"/>
<path d="M32.5353 56.4233C32.5071 56.4516 32.3097 56.3097 32.0276 56.3097C31.7456 56.3097 31.5482 56.4516 31.52 56.4233C31.4918 56.3949 31.5482 56.3381 31.6328 56.2813C31.7174 56.2246 31.8584 56.1394 32.0276 56.1394C32.1969 56.1394 32.3379 56.1962 32.4225 56.2813C32.5071 56.3381 32.5635 56.3949 32.5353 56.4233Z" fill="#263238"/>
<path d="M33.6406 58.6953C33.6406 58.6669 33.8098 58.6385 34.0918 58.6101C34.1764 58.6101 34.2328 58.5817 34.2328 58.5534C34.2328 58.4966 34.2046 58.4398 34.1764 58.3547C34.0918 58.1844 34.0354 57.9857 33.9508 57.787C33.6406 56.9922 33.4432 56.3393 33.4714 56.311C33.4996 56.2826 33.7816 56.9354 34.0918 57.7302C34.1764 57.9289 34.2328 58.0992 34.2892 58.2979C34.3174 58.3831 34.3738 58.4682 34.3174 58.6101C34.2892 58.6669 34.2328 58.7237 34.2046 58.7237C34.1482 58.7521 34.12 58.7521 34.0918 58.7521C33.8098 58.7237 33.6406 58.7237 33.6406 58.6953Z" fill="#263238"/>
<path d="M32.7359 59.0085C33.1025 59.1505 33.5255 59.3208 34.0895 59.4059C34.0895 59.4059 33.7793 59.9169 33.1871 59.7182C32.5949 59.4911 32.7359 59.0085 32.7359 59.0085Z" fill="white"/>
<path d="M33.801 62.1032C33.801 62.1032 32.532 62.2168 31.2065 61.3652C31.2065 61.3652 31.827 62.8129 33.801 62.6142V62.1032Z" fill="#EB996E"/>
<path d="M35.527 53.7056C35.527 53.7056 34.3708 54.3869 32.7352 53.7056C31.6635 53.2515 30.4509 53.1096 30.1971 53.3366C29.9433 53.5637 29.9715 54.6423 28.9563 55.0397C28.9563 55.0397 29.1819 57.0834 28.364 57.0551C27.5462 57.0551 27.8282 53.8476 27.8282 53.8476L29.7459 52.7406L31.8891 52.1729L33.9478 52.3148L35.5552 52.627V53.7056H35.527Z" fill="#263238"/>
<path d="M28.4668 56.3736C28.4386 56.3452 27.085 55.9762 27.1414 57.3387C27.1978 58.7012 28.5514 58.3889 28.5514 58.3321C28.5514 58.3038 28.4668 56.3736 28.4668 56.3736Z" fill="#FFBE9D"/>
<path d="M28.1316 57.8492C28.1316 57.8492 28.1034 57.8776 28.0752 57.8776C28.047 57.906 27.9624 57.906 27.906 57.8776C27.765 57.8208 27.624 57.5937 27.624 57.3667C27.624 57.2531 27.6522 57.1112 27.6804 57.026C27.7086 56.9125 27.7932 56.8557 27.8496 56.8273C27.9342 56.799 27.9624 56.8557 27.9906 56.8841C28.0188 56.9125 27.9906 56.9409 28.0188 56.9409C28.0188 56.9409 28.047 56.9125 28.047 56.8557C28.047 56.8273 28.0188 56.799 27.9906 56.7706C27.9624 56.7422 27.906 56.7422 27.8496 56.7422C27.7368 56.7422 27.6522 56.8557 27.5958 56.9693C27.5394 57.0828 27.5112 57.2247 27.5394 57.3667C27.5676 57.6505 27.7086 57.906 27.906 57.9344C27.9906 57.9627 28.0752 57.9344 28.1316 57.8776V57.8492Z" fill="#EB996E"/>
<path d="M27.5488 52.1433C27.5206 52.1149 27.7462 52.0014 28.0282 52.0865C28.3102 52.1717 28.423 52.3704 28.3948 52.3988C28.3666 52.4272 28.1974 52.2852 27.9718 52.2285C27.7744 52.1433 27.577 52.1717 27.5488 52.1433Z" fill="#263238"/>
<path d="M28.338 51.2615C28.3944 51.2615 28.3662 51.5453 28.4508 51.8859C28.5072 52.2266 28.6764 52.4536 28.6482 52.482C28.62 52.5104 28.3944 52.2833 28.3098 51.9143C28.2252 51.5453 28.3098 51.2615 28.338 51.2615Z" fill="#263238"/>
<path d="M34.1721 55.7447C34.1157 55.6879 34.3695 55.4608 34.7643 55.4324C35.1592 55.4041 35.4412 55.6027 35.3848 55.6879C35.3566 55.7731 35.0746 55.7163 34.7643 55.7447C34.4823 55.7447 34.2285 55.8014 34.1721 55.7447Z" fill="#263238"/>
<path d="M31.1213 55.4622C31.0649 55.4054 31.3188 55.1784 31.7136 55.15C32.1084 55.1216 32.3904 55.3203 32.334 55.4054C32.3058 55.4906 32.0238 55.4338 31.7136 55.4622C31.4316 55.4906 31.1495 55.5474 31.1213 55.4622Z" fill="#263238"/>
<path d="M19.8499 140.251L19.3705 142.267C19.3705 142.267 16.0992 146.525 15.1121 146.326C14.4635 146.184 15.2531 145.077 16.494 141.841L16.7478 140.507L19.8499 140.251Z" fill="#D4B9E6"/>
<path d="M14.9678 145.669C14.9678 145.669 14.996 145.754 15.137 145.84C15.278 145.925 15.5318 145.925 15.7574 145.754C16.2086 145.414 16.7726 144.846 17.393 144.193C17.9853 143.569 18.4929 142.944 18.8595 142.49C19.0287 142.292 19.1697 142.093 19.2825 141.951C19.3107 141.894 19.3671 141.837 19.3953 141.809C19.4235 141.781 19.4235 141.752 19.4517 141.752C19.4517 141.752 19.4517 141.781 19.4235 141.809C19.3953 141.866 19.3671 141.894 19.3107 141.951C19.2261 142.093 19.0851 142.263 18.9159 142.49C18.5775 142.944 18.0699 143.569 17.4494 144.222C16.829 144.846 16.265 145.414 15.8138 145.754C15.701 145.84 15.56 145.896 15.4472 145.896C15.3344 145.896 15.2216 145.868 15.1652 145.84C15.0806 145.811 15.0524 145.754 15.0242 145.698C14.9678 145.698 14.9678 145.669 14.9678 145.669Z" fill="#263238"/>
<path d="M15.4478 144.311C15.4478 144.311 15.5606 144.283 15.7298 144.283C15.899 144.283 16.1246 144.368 16.3502 144.51C16.5758 144.652 16.7168 144.822 16.8014 144.993C16.8578 145.135 16.886 145.248 16.886 145.248C16.886 145.248 16.8578 145.135 16.7732 144.993C16.6886 144.851 16.5476 144.68 16.322 144.538C16.1246 144.396 15.899 144.34 15.7298 144.311C15.5324 144.283 15.4478 144.311 15.4478 144.311Z" fill="#263238"/>
<path d="M18.5224 143.291C18.5224 143.291 18.4942 143.263 18.4942 143.206C18.466 143.149 18.4378 143.036 18.4378 142.922C18.4096 142.695 18.4096 142.326 18.5788 142.014C18.748 141.673 19.03 141.474 19.2274 141.361C19.3402 141.304 19.4248 141.276 19.5094 141.276C19.5658 141.276 19.6222 141.276 19.6222 141.276C19.6222 141.276 19.4812 141.304 19.2556 141.418C19.0582 141.531 18.8044 141.73 18.6352 142.042C18.466 142.354 18.4378 142.695 18.466 142.922C18.4942 143.149 18.5224 143.291 18.5224 143.291Z" fill="#263238"/>
<path d="M19.656 140.589C19.6842 140.589 19.5996 140.873 19.5432 141.242C19.4868 141.611 19.4022 141.866 19.374 141.866C19.374 141.866 19.4304 141.582 19.4868 141.213C19.5432 140.844 19.6278 140.56 19.656 140.589Z" fill="#263238"/>
<path d="M16.4409 142.097C16.4409 142.069 16.6383 142.04 16.8639 142.097C17.0895 142.154 17.2587 142.268 17.2305 142.268C17.2305 142.296 17.0613 142.182 16.8357 142.154C16.6383 142.097 16.4409 142.126 16.4409 142.097Z" fill="#263238"/>
<path d="M16.3818 142.435C16.3818 142.407 16.551 142.379 16.7484 142.435C16.9459 142.492 17.0587 142.606 17.0587 142.606C17.0587 142.634 16.9176 142.521 16.7484 142.492C16.5228 142.435 16.3818 142.464 16.3818 142.435Z" fill="#263238"/>
<path d="M16.1299 142.866C16.1299 142.866 16.2991 142.78 16.4965 142.809C16.6939 142.866 16.8067 143.007 16.8067 143.007C16.8067 143.007 16.6657 142.894 16.4965 142.866C16.2709 142.837 16.1299 142.894 16.1299 142.866Z" fill="#263238"/>
<path d="M16.6699 141.953C16.6699 141.953 16.8109 141.924 17.0647 141.811C17.1775 141.754 17.3185 141.697 17.4595 141.612C17.5441 141.584 17.6005 141.527 17.6851 141.47C17.7416 141.413 17.8262 141.357 17.8262 141.271C17.8262 141.186 17.7134 141.158 17.6569 141.158C17.5723 141.186 17.5159 141.243 17.4595 141.3C17.3467 141.413 17.2339 141.527 17.1493 141.612C16.9801 141.811 16.8955 141.924 16.8955 141.924C16.8955 141.924 16.9237 141.896 16.9519 141.839C16.9801 141.782 17.0647 141.697 17.1211 141.612C17.2057 141.527 17.2903 141.413 17.4313 141.271C17.4877 141.215 17.5441 141.158 17.6569 141.13C17.7416 141.101 17.8826 141.158 17.9108 141.271C17.9108 141.385 17.8262 141.47 17.7416 141.527C17.6569 141.584 17.6005 141.612 17.5159 141.669C17.3749 141.754 17.2339 141.811 17.1211 141.839C17.0083 141.868 16.8955 141.896 16.8391 141.924C16.7263 141.953 16.6699 141.953 16.6699 141.953Z" fill="#263238"/>
<path d="M16.8293 141.924C16.8293 141.924 16.8011 141.782 16.7729 141.555C16.7447 141.441 16.7165 141.299 16.6601 141.186C16.6319 141.129 16.5755 141.044 16.5473 140.987C16.4909 140.93 16.4345 140.874 16.3499 140.93C16.2935 140.959 16.2935 141.044 16.2935 141.129C16.2935 141.214 16.3217 141.271 16.3499 141.356C16.4063 141.498 16.4909 141.612 16.5755 141.697C16.7165 141.81 16.8293 141.896 16.8293 141.924C16.8293 141.924 16.8011 141.924 16.7447 141.867C16.6883 141.839 16.6319 141.782 16.5473 141.697C16.4627 141.612 16.3781 141.498 16.3217 141.356C16.2935 141.271 16.2653 141.214 16.2371 141.129C16.2371 141.044 16.2371 140.93 16.3217 140.874C16.4345 140.817 16.5191 140.902 16.5755 140.959C16.6319 141.016 16.6601 141.101 16.7165 141.158C16.7729 141.299 16.8011 141.441 16.8293 141.555C16.8575 141.668 16.8575 141.754 16.8575 141.839C16.8293 141.867 16.8293 141.924 16.8293 141.924Z" fill="#263238"/>
<g opacity="0.4">
<path opacity="0.4" d="M19.3727 142.24L19.5983 141.275C19.5983 141.275 18.8087 141.417 18.5831 142.013C18.3856 142.609 18.4138 143.035 18.4138 143.035L16.6654 144.909C16.6654 144.909 16.2424 144.057 15.4528 144.256C15.4528 144.256 14.8324 145.618 14.8606 145.987C14.8888 146.356 15.2836 146.3 15.4246 146.214C15.481 146.186 16.2424 145.76 16.9756 144.965C17.9062 144.057 18.9215 142.837 19.3727 142.24Z" fill="black"/>
</g>
<path d="M36.0583 141.249L36.0865 138.581L31.095 138.524L31.0386 142.441L31.3488 142.47C32.7306 142.555 38.3426 142.839 39.2732 142.583C40.2884 142.271 36.0583 141.249 36.0583 141.249Z" fill="#D4B9E6"/>
<g opacity="0.4">
<g opacity="0.4">
<g opacity="0.4">
<path opacity="0.4" d="M32.8434 142.409C32.787 141.983 32.5614 141.586 32.223 141.33C31.8846 141.075 31.4898 140.933 31.0668 140.961L31.0386 142.352L32.8434 142.409Z" fill="black"/>
</g>
</g>
</g>
<g opacity="0.4">
<path opacity="0.4" d="M38.116 141.814C38.116 141.814 39.5824 142.268 39.4132 142.495C39.2158 142.75 33.5475 142.665 31.0376 142.41V142.296L37.6648 142.438C37.6648 142.467 37.834 141.842 38.116 141.814Z" fill="black"/>
</g>
<path d="M30.9509 142.326C30.9509 142.326 30.9791 142.326 31.0355 142.326C31.1201 142.326 31.1765 142.326 31.2893 142.354C31.5431 142.354 31.8252 142.382 32.1918 142.411C32.9532 142.439 34.0248 142.496 35.181 142.496C36.3373 142.524 37.4089 142.496 38.1703 142.496C38.5369 142.496 38.8189 142.468 39.0728 142.468C39.1574 142.468 39.242 142.468 39.3266 142.468C39.383 142.468 39.4112 142.468 39.4112 142.468C39.4112 142.468 39.383 142.468 39.3266 142.468C39.242 142.468 39.1856 142.468 39.0728 142.468C38.8189 142.468 38.5369 142.468 38.1703 142.468C37.4089 142.468 36.3373 142.468 35.181 142.468C34.0248 142.439 32.9532 142.411 32.1918 142.382C31.8252 142.382 31.5431 142.354 31.2893 142.354C31.2047 142.354 31.1201 142.354 31.0355 142.354C30.9791 142.326 30.9509 142.326 30.9509 142.326Z" fill="#263238"/>
<path d="M37.6659 142.544C37.6941 142.544 37.6941 142.317 37.8351 142.118C37.9761 141.891 38.1453 141.777 38.1453 141.777C38.1453 141.749 37.9197 141.863 37.7787 142.09C37.6377 142.317 37.6659 142.544 37.6659 142.544Z" fill="#263238"/>
<path d="M36.2046 141.783C36.2046 141.783 36.2892 141.698 36.3738 141.585C36.4584 141.471 36.4866 141.358 36.4866 141.358C36.4866 141.358 36.402 141.443 36.3174 141.556C36.261 141.67 36.2046 141.755 36.2046 141.783Z" fill="#263238"/>
<path d="M35.7949 141.562C35.7949 141.562 35.8795 141.534 35.9641 141.449C36.0487 141.363 36.1051 141.307 36.1051 141.278C36.1051 141.278 36.0205 141.307 35.9359 141.392C35.8513 141.477 35.7949 141.534 35.7949 141.562Z" fill="#263238"/>
<path d="M35.5603 141.077C35.5603 141.106 35.6731 141.106 35.8141 141.106C35.9551 141.106 36.0679 141.106 36.0679 141.077C36.0679 141.049 35.9551 141.049 35.8141 141.049C35.7013 141.049 35.5603 141.049 35.5603 141.077Z" fill="#263238"/>
<path d="M35.4622 140.728C35.4622 140.756 35.575 140.813 35.7442 140.813C35.9134 140.842 36.0544 140.785 36.0544 140.785C36.0544 140.756 35.9134 140.785 35.7724 140.756C35.6032 140.756 35.4904 140.728 35.4622 140.728Z" fill="#263238"/>
<path d="M36.4028 141.334C36.4028 141.334 36.5156 141.362 36.713 141.334C36.8258 141.334 36.9386 141.306 37.0515 141.249C37.1079 141.22 37.1925 141.22 37.2489 141.164C37.2771 141.135 37.3053 141.107 37.3335 141.078C37.3335 141.022 37.3335 140.965 37.2771 140.937C36.9668 140.766 36.6566 140.937 36.5438 141.107C36.4874 141.192 36.4592 141.277 36.431 141.334C36.431 141.391 36.431 141.419 36.431 141.419C36.431 141.419 36.4592 141.306 36.572 141.135C36.6284 141.05 36.7412 140.993 36.854 140.965C36.9668 140.937 37.1361 140.937 37.2489 140.993C37.3053 141.022 37.2771 141.078 37.2207 141.135C37.1643 141.164 37.1079 141.192 37.0515 141.22C36.9386 141.249 36.8258 141.277 36.713 141.306C36.5156 141.334 36.4028 141.334 36.4028 141.334Z" fill="#263238"/>
<path d="M36.4794 141.352C36.4794 141.352 36.5358 141.267 36.5076 141.125C36.5076 141.04 36.4794 140.983 36.423 140.898C36.3666 140.813 36.282 140.728 36.1692 140.728C36.0846 140.728 36.0564 140.813 36.0564 140.87C36.0564 140.927 36.0846 140.983 36.1128 141.012C36.1692 141.097 36.2256 141.154 36.2538 141.211C36.3666 141.296 36.423 141.352 36.4794 141.352C36.4512 141.352 36.3948 141.296 36.3102 141.182C36.2538 141.125 36.2256 141.069 36.1692 140.983C36.1128 140.927 36.0846 140.785 36.1692 140.785C36.2538 140.785 36.3384 140.87 36.3666 140.927C36.423 140.983 36.4512 141.069 36.4512 141.125C36.4794 141.267 36.4512 141.352 36.4794 141.352Z" fill="#263238"/>
<path d="M31.0671 140.932C31.0671 140.932 31.2081 140.932 31.4337 140.96C31.6594 140.989 31.9696 141.074 32.2234 141.301C32.4772 141.528 32.6464 141.812 32.7028 142.011C32.7874 142.238 32.7874 142.38 32.7874 142.38C32.7874 142.38 32.7874 142.351 32.7874 142.266C32.7874 142.209 32.7592 142.096 32.731 141.982C32.6746 141.755 32.5054 141.471 32.2234 141.216C31.9414 140.989 31.6312 140.904 31.3773 140.875C31.2645 140.875 31.1799 140.875 31.0953 140.875C31.1235 140.932 31.0671 140.932 31.0671 140.932Z" fill="#263238"/>
<path d="M31.6331 138.86C31.6047 138.86 31.6047 139.314 31.5763 139.881C31.548 140.449 31.5763 140.903 31.5763 140.903C31.6047 140.903 31.6047 140.449 31.6331 139.881C31.6331 139.314 31.6331 138.86 31.6331 138.86Z" fill="#263238"/>
<path d="M33.4751 141.926C33.4751 141.954 33.7853 142.011 34.2083 142.011C34.6031 142.011 34.9415 141.983 34.9415 141.954C34.9415 141.926 34.6031 141.954 34.2083 141.954C33.8135 141.954 33.4751 141.926 33.4751 141.926Z" fill="#263238"/>
<path d="M32.5098 141.924C32.5098 141.924 32.538 141.981 32.5662 142.066C32.5944 142.151 32.6226 142.208 32.6226 142.208C32.6508 142.208 32.6508 142.123 32.6226 142.038C32.5662 141.953 32.5098 141.896 32.5098 141.924Z" fill="#263238"/>
<path d="M32.1296 141.44C32.1296 141.44 32.1578 141.496 32.186 141.553C32.2424 141.61 32.2988 141.638 32.2988 141.638C32.2988 141.638 32.2706 141.582 32.2424 141.525C32.186 141.468 32.1296 141.44 32.1296 141.44Z" fill="#263238"/>
<path d="M31.5901 141.244C31.5901 141.272 31.6465 141.272 31.7311 141.3C31.8157 141.329 31.8439 141.357 31.8721 141.357C31.8721 141.357 31.8439 141.272 31.7593 141.244C31.6747 141.187 31.5901 141.215 31.5901 141.244Z" fill="#263238"/>
<path d="M31.2268 141.132C31.2268 141.16 31.255 141.16 31.2832 141.189C31.3114 141.217 31.3678 141.217 31.3678 141.189C31.3678 141.16 31.3396 141.16 31.3114 141.132C31.2832 141.132 31.2268 141.132 31.2268 141.132Z" fill="#263238"/>
<path d="M39.443 88.0798L37.1306 140.109L29.3754 140.251L30.6444 96.7089L21.9304 140.592H14.5417L24.412 88.0798" fill="#263238"/>
<path d="M22.3252 139.881L22.1278 140.648L14.5417 140.761L14.6545 139.569L22.3252 139.881Z" fill="#455A64"/>
<path d="M16.4084 139.85C16.4366 139.85 16.4648 139.963 16.4366 140.077C16.4084 140.19 16.3802 140.276 16.3238 140.276C16.2674 140.276 16.2674 140.162 16.2956 140.049C16.3238 139.935 16.3802 139.85 16.4084 139.85Z" fill="#455A64"/>
<path d="M16.6885 138.148C16.7167 138.148 16.7167 138.347 16.6885 138.574C16.6603 138.801 16.5757 139 16.5475 139C16.5193 139 16.5193 138.801 16.5475 138.574C16.5757 138.319 16.6603 138.148 16.6885 138.148Z" fill="#455A64"/>
<path d="M16.97 136.444C16.9982 136.444 16.9982 136.643 16.97 136.87C16.9418 137.097 16.8572 137.296 16.829 137.296C16.8008 137.296 16.8008 137.097 16.829 136.87C16.8854 136.615 16.9418 136.444 16.97 136.444Z" fill="#455A64"/>
<path d="M17.2513 134.744C17.2795 134.744 17.2795 134.943 17.2513 135.17C17.2231 135.397 17.1385 135.596 17.1103 135.596C17.0821 135.596 17.0821 135.397 17.1103 135.17C17.1667 134.914 17.2231 134.744 17.2513 134.744Z" fill="#455A64"/>
<path d="M17.5345 133.04C17.5627 133.04 17.5627 133.239 17.5345 133.466C17.5063 133.693 17.4217 133.892 17.3935 133.892C17.3653 133.892 17.3653 133.693 17.3935 133.466C17.4499 133.211 17.5063 133.04 17.5345 133.04Z" fill="#455A64"/>
<path d="M17.8492 131.334C17.8774 131.334 17.8774 131.533 17.8492 131.76C17.821 131.987 17.7364 132.186 17.7082 132.186C17.68 132.186 17.68 131.987 17.7082 131.76C17.7364 131.505 17.7928 131.334 17.8492 131.334Z" fill="#455A64"/>
<path d="M18.1282 129.633C18.1564 129.633 18.1564 129.832 18.1282 130.059C18.1 130.286 18.0154 130.484 17.9872 130.484C17.959 130.484 17.959 130.286 17.9872 130.059C18.0154 129.803 18.0718 129.633 18.1282 129.633Z" fill="#455A64"/>
<path d="M18.4068 127.927C18.435 127.927 18.435 128.125 18.4068 128.353C18.3786 128.58 18.294 128.778 18.2658 128.778C18.2376 128.778 18.2376 128.58 18.2658 128.353C18.294 128.097 18.3786 127.927 18.4068 127.927Z" fill="#455A64"/>
<path d="M18.6915 126.222C18.7197 126.222 18.7197 126.421 18.6915 126.648C18.6633 126.875 18.5786 127.074 18.5504 127.074C18.5222 127.074 18.5222 126.875 18.5504 126.648C18.5786 126.392 18.6633 126.194 18.6915 126.222Z" fill="#455A64"/>
<path d="M18.9678 124.525C18.996 124.525 18.996 124.724 18.9678 124.951C18.9396 125.178 18.855 125.376 18.8268 125.376C18.7986 125.376 18.7986 125.178 18.8268 124.951C18.8832 124.695 18.9396 124.497 18.9678 124.525Z" fill="#455A64"/>
<path d="M19.283 122.819C19.3112 122.819 19.3112 123.018 19.283 123.245C19.2548 123.472 19.1702 123.67 19.142 123.67C19.1138 123.67 19.1138 123.472 19.142 123.245C19.1702 122.989 19.2266 122.79 19.283 122.819Z" fill="#455A64"/>
<path d="M19.5645 121.117C19.5927 121.117 19.5927 121.316 19.5645 121.543C19.5363 121.77 19.4517 121.969 19.4235 121.969C19.3953 121.969 19.3953 121.77 19.4235 121.543C19.4517 121.288 19.5363 121.089 19.5645 121.117Z" fill="#455A64"/>
<path d="M19.8728 119.411C19.901 119.411 19.901 119.61 19.8728 119.837C19.8446 120.064 19.76 120.263 19.7318 120.263C19.7036 120.263 19.7036 120.064 19.7318 119.837C19.76 119.582 19.8164 119.383 19.8728 119.411Z" fill="#455A64"/>
<path d="M20.1585 117.707C20.1867 117.707 20.1867 117.906 20.1585 118.133C20.1303 118.36 20.0457 118.559 20.0175 118.559C19.9893 118.559 19.9893 118.36 20.0175 118.133C20.0457 117.878 20.1303 117.679 20.1585 117.707Z" fill="#455A64"/>
<path d="M20.4642 116.009C20.4924 116.009 20.4924 116.208 20.4642 116.435C20.436 116.662 20.3514 116.861 20.3232 116.861C20.295 116.861 20.295 116.662 20.3232 116.435C20.3514 116.179 20.4078 115.981 20.4642 116.009Z" fill="#455A64"/>
<path d="M20.7498 114.306C20.778 114.306 20.778 114.505 20.7498 114.732C20.7216 114.959 20.637 115.157 20.6088 115.157C20.5806 115.157 20.5806 114.959 20.6088 114.732C20.637 114.476 20.7216 114.278 20.7498 114.306Z" fill="#455A64"/>
<path d="M21.0569 112.6C21.0851 112.6 21.0851 112.799 21.0569 113.026C21.0287 113.253 20.9441 113.452 20.9159 113.452C20.8877 113.452 20.8877 113.253 20.9159 113.026C20.9441 112.77 21.0005 112.6 21.0569 112.6Z" fill="#455A64"/>
<path d="M21.3714 110.896C21.3996 110.896 21.3996 111.094 21.3714 111.322C21.3432 111.549 21.2586 111.747 21.2304 111.747C21.2022 111.747 21.2022 111.549 21.2304 111.322C21.2586 111.066 21.315 110.896 21.3714 110.896Z" fill="#455A64"/>
<path d="M21.6504 109.198C21.6786 109.198 21.6786 109.396 21.6504 109.623C21.594 109.85 21.5376 110.049 21.5094 110.049C21.4812 110.049 21.4812 109.85 21.5094 109.623C21.5658 109.368 21.6222 109.198 21.6504 109.198Z" fill="#455A64"/>
<path d="M21.9605 107.492C21.9887 107.492 21.9887 107.691 21.9605 107.918C21.9041 108.145 21.8477 108.343 21.8195 108.343C21.7913 108.343 21.7913 108.145 21.8195 107.918C21.8759 107.662 21.9323 107.492 21.9605 107.492Z" fill="#455A64"/>
<path d="M22.2686 105.791C22.2968 105.791 22.2968 105.989 22.2686 106.216C22.2122 106.443 22.1558 106.642 22.1276 106.614C22.0994 106.585 22.0994 106.415 22.1276 106.188C22.184 105.961 22.2404 105.791 22.2686 105.791Z" fill="#455A64"/>
<path d="M22.6082 104.084C22.6364 104.084 22.6364 104.283 22.6082 104.51C22.5518 104.737 22.4954 104.936 22.4672 104.907C22.439 104.907 22.439 104.708 22.4672 104.481C22.4954 104.254 22.5518 104.084 22.6082 104.084Z" fill="#455A64"/>
<path d="M22.92 102.383C22.9482 102.383 22.9482 102.582 22.92 102.809C22.8636 103.036 22.8072 103.235 22.779 103.206C22.7508 103.206 22.7508 103.008 22.779 102.781C22.8072 102.582 22.8636 102.383 22.92 102.383Z" fill="#455A64"/>
<path d="M23.2303 100.709C23.2585 100.709 23.2585 100.907 23.2303 101.134C23.1739 101.361 23.1175 101.56 23.0893 101.532C23.0611 101.532 23.0611 101.333 23.0893 101.106C23.1175 100.879 23.2021 100.68 23.2303 100.709Z" fill="#455A64"/>
<path d="M23.5684 99.0054C23.5966 99.0054 23.5966 99.2041 23.5684 99.4311C23.512 99.6582 23.4556 99.8569 23.4274 99.8285C23.3992 99.8285 23.3992 99.6298 23.4274 99.4028C23.4556 99.1757 23.512 99.0054 23.5684 99.0054Z" fill="#455A64"/>
<path d="M23.8821 97.2996C23.9103 97.2996 23.9103 97.4983 23.8821 97.7253C23.8257 97.9524 23.7693 98.1511 23.7411 98.1227C23.7129 98.1227 23.7129 97.924 23.7411 97.697C23.7693 97.4699 23.8539 97.2996 23.8821 97.2996Z" fill="#455A64"/>
<path d="M24.2177 95.6011C24.2459 95.6011 24.2459 95.7998 24.2177 96.0268C24.1613 96.2539 24.1049 96.4526 24.0485 96.4242C24.0203 96.4242 24.0203 96.2255 24.0485 95.9985C24.1049 95.7714 24.1895 95.6011 24.2177 95.6011Z" fill="#455A64"/>
<path d="M24.5583 93.9239C24.5865 93.9239 24.5865 94.1225 24.5583 94.3496C24.5019 94.5767 24.4455 94.7754 24.3891 94.747C24.3609 94.747 24.3609 94.5483 24.3891 94.3212C24.4455 94.0942 24.5301 93.8955 24.5583 93.9239Z" fill="#455A64"/>
<path d="M24.8925 92.2205C24.9207 92.2205 24.9207 92.4192 24.8925 92.6462C24.8361 92.8733 24.7797 93.072 24.7233 93.0436C24.6951 93.0436 24.6951 92.8449 24.7233 92.6178C24.7797 92.3908 24.8643 92.2205 24.8925 92.2205Z" fill="#455A64"/>
<path d="M25.2362 90.5164C25.2644 90.5164 25.2644 90.7151 25.208 90.9421C25.1516 91.1692 25.0952 91.3679 25.0388 91.3395C25.0106 91.3395 25.0106 91.1408 25.067 90.9137C25.1234 90.6867 25.208 90.5164 25.2362 90.5164Z" fill="#455A64"/>
<path d="M25.4836 89.2686C25.5118 89.2686 25.54 89.3822 25.5118 89.4957C25.4836 89.6092 25.4272 89.6944 25.399 89.6944C25.3708 89.6944 25.3426 89.5809 25.3708 89.4673C25.399 89.3254 25.4554 89.2402 25.4836 89.2686Z" fill="#455A64"/>
<path d="M30.6964 139.852C30.7246 139.852 30.7528 139.937 30.7528 140.079C30.7528 140.192 30.6964 140.277 30.6682 140.277C30.64 140.277 30.6118 140.192 30.6118 140.05C30.6118 139.937 30.6682 139.852 30.6964 139.852Z" fill="#455A64"/>
<path d="M30.7853 138.121C30.8135 138.121 30.8417 138.32 30.8417 138.547C30.8417 138.774 30.7853 138.973 30.7571 138.973C30.7289 138.973 30.7007 138.774 30.7007 138.547C30.7007 138.32 30.7289 138.121 30.7853 138.121Z" fill="#455A64"/>
<path d="M30.8449 136.388C30.8731 136.388 30.9013 136.587 30.9013 136.814C30.9013 137.041 30.8449 137.239 30.8167 137.239C30.7885 137.239 30.7603 137.041 30.7603 136.814C30.7603 136.558 30.7885 136.388 30.8449 136.388Z" fill="#455A64"/>
<path d="M30.87 134.658C30.8982 134.658 30.9264 134.857 30.9264 135.084C30.9264 135.311 30.87 135.51 30.8418 135.51C30.8136 135.51 30.7854 135.311 30.7854 135.084C30.7854 134.829 30.8418 134.658 30.87 134.658Z" fill="#455A64"/>
<path d="M30.9252 132.899C30.9534 132.899 30.9816 133.097 30.9816 133.324C30.9816 133.552 30.9252 133.75 30.897 133.75C30.8688 133.75 30.8406 133.552 30.8406 133.324C30.8406 133.097 30.8688 132.899 30.9252 132.899Z" fill="#455A64"/>
<path d="M30.9545 131.166C30.9827 131.166 31.0109 131.364 31.0109 131.592C31.0109 131.819 30.9545 132.017 30.9263 132.017C30.8981 132.017 30.8699 131.819 30.8699 131.592C30.8699 131.364 30.9263 131.166 30.9545 131.166Z" fill="#455A64"/>
<path d="M31.0106 129.432C31.0388 129.432 31.067 129.631 31.067 129.858C31.067 130.085 31.0106 130.284 30.9824 130.284C30.9542 130.284 30.926 130.085 30.926 129.858C30.926 129.631 30.9824 129.432 31.0106 129.432Z" fill="#455A64"/>
<path d="M31.0914 127.705C31.1196 127.705 31.1478 127.904 31.1478 128.131C31.1478 128.358 31.0914 128.557 31.0632 128.557C31.035 128.557 31.0068 128.358 31.0068 128.131C31.0068 127.904 31.035 127.705 31.0914 127.705Z" fill="#455A64"/>
<path d="M31.1486 125.975C31.1768 125.975 31.205 126.174 31.205 126.401C31.205 126.628 31.1486 126.827 31.1204 126.827C31.0922 126.827 31.064 126.628 31.064 126.401C31.064 126.174 31.1204 125.975 31.1486 125.975Z" fill="#455A64"/>
<path d="M31.2069 124.24C31.2351 124.24 31.2633 124.439 31.2633 124.666C31.2633 124.893 31.2069 125.092 31.1787 125.092C31.1505 125.092 31.1223 124.893 31.1223 124.666C31.1223 124.439 31.1787 124.24 31.2069 124.24Z" fill="#455A64"/>
<path d="M31.2658 122.509C31.294 122.509 31.3222 122.707 31.3222 122.934C31.3222 123.161 31.2658 123.36 31.2376 123.36C31.2094 123.36 31.1812 123.161 31.1812 122.934C31.1812 122.679 31.2376 122.509 31.2658 122.509Z" fill="#455A64"/>
<path d="M31.3229 120.776C31.3511 120.776 31.3793 120.975 31.3793 121.202C31.3793 121.429 31.3229 121.628 31.2947 121.628C31.2665 121.628 31.2383 121.429 31.2383 121.202C31.2383 120.946 31.2665 120.748 31.3229 120.776Z" fill="#455A64"/>
<path d="M31.3473 119.017C31.3755 119.017 31.4037 119.215 31.4037 119.442C31.4037 119.669 31.3755 119.868 31.3191 119.868C31.2627 119.868 31.2627 119.669 31.2627 119.442C31.2627 119.215 31.3191 119.017 31.3473 119.017Z" fill="#455A64"/>
<path d="M31.3803 117.283C31.4085 117.283 31.4367 117.482 31.4367 117.709C31.4367 117.936 31.4085 118.135 31.3521 118.135C31.3239 118.135 31.2957 117.936 31.2957 117.709C31.2957 117.482 31.3521 117.283 31.3803 117.283Z" fill="#455A64"/>
<path d="M31.4045 115.553C31.4327 115.553 31.4891 115.751 31.4609 115.979C31.4609 116.206 31.4327 116.404 31.3763 116.404C31.3481 116.404 31.2917 116.206 31.3199 115.979C31.3199 115.751 31.3481 115.553 31.4045 115.553Z" fill="#455A64"/>
<path d="M31.4061 113.823C31.4343 113.823 31.4907 114.022 31.4907 114.249C31.4907 114.476 31.4625 114.675 31.4061 114.675C31.3779 114.675 31.3215 114.476 31.3215 114.249C31.3497 114.022 31.3779 113.823 31.4061 113.823Z" fill="#455A64"/>
<path d="M31.4059 112.09C31.4341 112.09 31.4905 112.289 31.4905 112.516C31.4905 112.743 31.4623 112.942 31.4059 112.942C31.3777 112.942 31.3213 112.743 31.3213 112.516C31.3495 112.289 31.3777 112.09 31.4059 112.09Z" fill="#455A64"/>
<path d="M31.4059 110.357C31.4341 110.357 31.4905 110.556 31.4905 110.783C31.4905 111.01 31.4623 111.208 31.4059 111.208C31.3777 111.208 31.3213 111.01 31.3213 110.783C31.3495 110.556 31.3777 110.357 31.4059 110.357Z" fill="#455A64"/>
<path d="M31.4061 108.627C31.4343 108.627 31.4907 108.825 31.4907 109.052C31.4907 109.28 31.4625 109.478 31.4343 109.478C31.4061 109.478 31.3497 109.28 31.3497 109.052C31.3215 108.797 31.3497 108.627 31.4061 108.627Z" fill="#455A64"/>
<path d="M31.3736 106.867C31.4018 106.867 31.4582 107.066 31.4582 107.293C31.4582 107.52 31.43 107.719 31.4018 107.719C31.3736 107.719 31.3172 107.52 31.3172 107.293C31.289 107.066 31.3172 106.867 31.3736 106.867Z" fill="#455A64"/>
<path d="M31.3502 105.137C31.3784 105.137 31.4348 105.336 31.4348 105.563C31.4348 105.79 31.4066 105.989 31.3784 105.989C31.3502 105.989 31.2938 105.79 31.2938 105.563C31.2656 105.336 31.2938 105.137 31.3502 105.137Z" fill="#455A64"/>
<path d="M31.2939 103.407C31.3222 103.407 31.3786 103.606 31.3786 103.833C31.3786 104.06 31.3504 104.259 31.3222 104.259C31.294 104.259 31.2375 104.06 31.2375 103.833C31.2375 103.606 31.2657 103.407 31.2939 103.407Z" fill="#455A64"/>
<path d="M31.238 101.674C31.2662 101.674 31.3226 101.873 31.3226 102.1C31.3226 102.327 31.2944 102.526 31.2662 102.526C31.238 102.526 31.1816 102.327 31.1816 102.1C31.1816 101.873 31.2098 101.674 31.238 101.674Z" fill="#455A64"/>
<path d="M31.1523 99.9409C31.1805 99.9409 31.237 100.14 31.2652 100.367C31.2934 100.594 31.2652 100.792 31.2087 100.792C31.1805 100.792 31.1241 100.594 31.0959 100.367C31.0959 100.14 31.0959 99.9409 31.1523 99.9409Z" fill="#455A64"/>
<path d="M30.9847 98.2104C31.0129 98.2104 31.0693 98.4091 31.0975 98.6362C31.1257 98.8633 31.0975 99.062 31.0693 99.062C31.0411 99.062 30.9847 98.8633 30.9565 98.6362C30.9283 98.4091 30.9565 98.2104 30.9847 98.2104Z" fill="#455A64"/>
<path d="M30.8159 96.9336C30.8441 96.9336 30.9005 97.0187 30.9287 97.1323C30.9569 97.2458 30.9287 97.3594 30.8723 97.3594C30.8441 97.3594 30.7877 97.2742 30.7595 97.1607C30.7595 97.0471 30.7877 96.9336 30.8159 96.9336Z" fill="#455A64"/>
<path d="M37.3295 140.365L29.123 140.479L29.1794 139.116L37.3295 139.145V140.365Z" fill="#455A64"/>
<path d="M31.9476 88.73C31.9476 88.73 31.9476 88.8435 31.9476 89.0422C31.9476 89.2693 31.9194 89.5815 31.9194 89.9221C31.8912 90.6602 31.8348 91.682 31.7502 92.789C31.722 93.3567 31.6656 93.896 31.6374 94.3786C31.6092 94.8611 31.581 95.3153 31.44 95.6843C31.299 96.0533 31.0452 96.252 30.8478 96.3371C30.735 96.3655 30.6786 96.3939 30.6222 96.3939C30.5658 96.3939 30.5376 96.3939 30.5376 96.3939C30.5376 96.3655 30.6504 96.3939 30.8478 96.3088C31.017 96.2236 31.2708 96.0249 31.3836 95.6843C31.4964 95.3437 31.4964 94.9179 31.5246 94.407C31.5528 93.9244 31.581 93.3851 31.6092 92.8174C31.6656 91.682 31.7502 90.6885 31.8066 89.9505C31.8348 89.6099 31.863 89.3261 31.8912 89.0706C31.9194 88.8435 31.9476 88.73 31.9476 88.73Z" fill="#455A64"/>
<path d="M31.1568 89.413C31.1568 89.3846 31.2978 89.413 31.326 89.5833C31.3542 89.6684 31.3542 89.782 31.2696 89.8671C31.185 89.9807 31.044 89.9807 30.903 89.9523C30.7902 89.8955 30.6774 89.782 30.7056 89.64C30.7056 89.5265 30.7902 89.4413 30.8748 89.3846C31.0158 89.2994 31.1286 89.3562 31.1286 89.3846C31.1286 89.413 31.044 89.3846 30.9312 89.4697C30.8748 89.4981 30.8466 89.5833 30.8466 89.64C30.8466 89.6968 30.903 89.782 30.9876 89.8103C31.0722 89.8387 31.1568 89.8387 31.185 89.782C31.2414 89.7252 31.2414 89.6684 31.2414 89.6117C31.2132 89.4981 31.1568 89.4413 31.1568 89.413Z" fill="#455A64"/>
<path d="M23.8489 90.6621C23.8489 90.6338 24.1027 90.7473 24.4975 90.8041C24.8923 90.8608 25.4845 90.8325 26.0767 90.577C26.6408 90.3215 27.0638 89.8958 27.2894 89.5267C27.515 89.1861 27.5996 88.9307 27.6278 88.9307C27.656 88.9307 27.5996 89.2145 27.374 89.5835C27.1484 89.9525 26.7536 90.4351 26.1331 90.6905C25.5127 90.9744 24.8923 90.9744 24.4693 90.8892C24.0745 90.8325 23.8489 90.6621 23.8489 90.6621Z" fill="#455A64"/>
<path d="M36.7675 88.73C36.7957 88.73 36.7957 88.9571 36.9085 89.2693C36.9931 89.5815 37.2187 90.0073 37.6135 90.3479C38.0083 90.6885 38.4313 90.8305 38.7697 90.8872C39.1081 90.944 39.3055 90.9156 39.3055 90.944C39.3055 90.9724 39.1081 91.0292 38.7415 91.0008C38.4031 90.9724 37.8955 90.8305 37.5007 90.4615C37.1059 90.0925 36.8803 89.6383 36.7957 89.2977C36.7111 88.9571 36.7393 88.73 36.7675 88.73Z" fill="#455A64"/>
<path d="M41.1143 89.9237L24.4194 88.7883L24.6168 80.4999V74.5107L22.7556 77.2641L17.7922 72.0696L23.3478 66.7049C24.3066 65.7114 25.4064 65.0018 26.7319 64.5192C27.3805 64.2921 28.0573 64.1502 28.8469 64.1218C30.539 64.6611 32.2592 64.6611 33.9513 64.1218C34.1487 64.1502 34.4589 64.1786 34.7973 64.207C37.0252 64.4624 39.0838 65.4843 40.6913 67.0455L46.0212 74.8229L40.0145 77.9737L39.3094 75.561C39.2812 75.5326 41.1425 88.2774 41.1143 89.9237Z" fill="#455A64"/>
<path d="M24.445 74.8223C24.4168 74.7939 24.6424 74.3682 24.9808 73.8288C25.3192 73.3179 25.6012 72.8921 25.6294 72.9205C25.6576 72.9489 25.432 73.3747 25.0936 73.914C24.7834 74.4249 24.4732 74.8507 24.445 74.8223Z" fill="#263238"/>
<path d="M91.2251 65.2974L137.068 38.7567L127.37 22.0883L81.5684 48.6145L80.9586 59.9085L91.2251 65.2974Z" fill="#6499DF"/>
<path d="M91.2859 63.5187L136.064 37.2567L126.365 20.5883L81.6148 46.7941L81.0049 58.088L91.2859 63.5187Z" fill="#255492"/>
<path d="M94.5796 46.7089L95.1611 53.2843L94.3996 53.7009L89.21 49.6565L90.0107 49.2084L94.2846 52.501L93.8261 47.0545L94.5796 46.7089Z" fill="white"/>
<path d="M100.621 48.583L97.8031 50.1315L97.9407 51.7655L97.1792 52.182L96.6763 45.5437L97.4377 45.1271L102.737 49.1481L101.936 49.5961L100.621 48.583ZM99.9951 48.116L97.4669 46.1374L97.7107 49.3658L99.9951 48.116Z" fill="white"/>
<path d="M101.556 46.3487C100.697 44.7763 101.258 42.9702 102.891 42.1136C103.691 41.6656 104.562 41.5491 105.353 41.8192L105.124 42.5842C104.505 42.3698 103.854 42.4394 103.281 42.7695C102.064 43.4219 101.662 44.7784 102.318 45.9321C102.935 47.1173 104.322 47.4913 105.499 46.8705C106.072 46.5403 106.481 46.0834 106.663 45.4209L107.423 45.6515C107.225 46.456 106.682 47.1493 105.882 47.5974C104.218 48.4145 102.415 47.9211 101.556 46.3487Z" fill="white"/>
<path d="M111.398 42.657L108.58 44.2055L108.717 45.8394L107.956 46.256L107.453 39.6177L108.214 39.2011L113.514 43.2221L112.713 43.6701L111.398 42.657ZM110.772 42.19L108.243 40.2113L108.487 43.4397L110.772 42.19Z" fill="white"/>
<path d="M115.905 34.9705L118.771 40.2961L118.159 40.6578L112.801 38.4282L114.964 42.379L114.202 42.7956L111.336 37.47L111.949 37.1083L117.276 39.2984L115.113 35.3476L115.905 34.9705Z" fill="white"/>
<path d="M118.931 34.1644L117.102 35.1784L116.75 34.491L121.131 32.0779L121.482 32.7653L119.653 33.7793L122.168 38.4175L121.406 38.8341L118.931 34.1644Z" fill="white"/>
<path d="M15.7925 90.9431L16.1309 91.7379C16.1309 91.7379 16.2437 92.2488 16.6385 93.1004C16.7513 93.3275 16.8923 93.5261 17.0615 93.6965C17.2589 93.8952 17.5409 94.1506 17.7665 94.2642C18.0204 94.3777 17.9922 94.7467 17.7383 94.7751C17.4845 94.8319 16.8077 94.5196 16.2437 93.8384C15.6797 93.1571 15.7079 94.548 15.7079 95.0589C15.7079 95.5699 15.6233 97.131 15.4823 97.273C15.2567 97.4433 15.0311 97.2446 15.0311 96.7336C15.0311 96.2227 14.9747 94.6899 14.6927 94.7183C14.4389 94.7183 14.4671 97.3297 14.4671 97.3297C14.4671 97.3297 14.5517 97.869 14.2415 97.8974C13.6774 97.9542 13.8466 95.1725 13.8748 94.917C13.903 94.7467 13.5928 94.7467 13.5928 94.9454C13.5928 95.1441 13.6774 97.5284 13.1134 97.5852C12.6904 97.6136 13.2262 95.3144 12.9442 94.8319C12.6622 94.3493 12.7186 96.6201 12.2956 96.6485C12.1546 96.6485 12.0136 96.6485 12.1828 95.3144C12.352 93.9803 13.3672 90.4038 13.3672 90.4038L15.8489 90.9999" fill="#FFBE9D"/>
<path d="M21.9663 76.5513C21.9663 76.5513 18.4694 79.4749 18.2438 80.4684C18.0182 81.4619 16.3261 92.532 16.3261 92.532L12.9138 92.0211C12.9138 92.0211 13.083 78.2828 14.2957 76.9203C15.5083 75.5862 18.4694 72.4639 18.4694 72.4639L21.9663 76.5513Z" fill="#FFBE9D"/>
<path d="M14.5157 78.3997C14.5157 78.3997 14.4593 78.3713 14.4029 78.2862C14.3465 78.201 14.2901 78.0591 14.3183 77.8888C14.3183 77.7185 14.4311 77.4914 14.6285 77.3495C14.8259 77.2076 15.1361 77.1792 15.3617 77.3211C15.4745 77.3779 15.5873 77.4914 15.6155 77.6333C15.6437 77.7753 15.6437 77.9172 15.5873 78.0307C15.4745 78.2578 15.1643 78.3146 15.0233 78.201C14.8541 78.0875 14.8541 77.8888 14.9105 77.8036C14.9387 77.7185 15.0233 77.6901 15.0233 77.6901C15.0233 77.6901 14.9951 77.7185 14.9669 77.832C14.9387 77.9172 14.9669 78.0591 15.0797 78.1443C15.1925 78.2294 15.4181 78.1726 15.5027 78.0023C15.5591 77.9172 15.5591 77.8036 15.5309 77.6901C15.5027 77.5766 15.4181 77.4914 15.3335 77.4346C15.1361 77.3211 14.8823 77.3495 14.7131 77.463C14.5439 77.5766 14.4311 77.7469 14.4311 77.9172C14.3747 78.201 14.5439 78.3997 14.5157 78.3997Z" fill="#EB996E"/>
<path d="M15.5405 49.6883C16.1067 49.435 16.5471 48.8335 16.5471 48.137C16.5471 47.2188 15.8551 46.459 14.9743 46.459C14.0936 46.459 13.4016 47.2188 13.4016 48.137C13.4016 48.8652 13.8105 49.4667 14.4082 49.72C11.9861 50.0999 12.112 52.7277 12.112 52.7277L17.8053 52.7594C17.7738 52.7277 17.9311 50.0682 15.5405 49.6883Z" fill="#255392"/>
<path d="M12.8679 49.0239C12.8679 48.9922 12.9937 49.0239 13.2139 48.9605C13.4341 48.8972 13.7486 48.7706 14.0002 48.454C14.2519 48.1374 14.3777 47.6308 14.2204 47.1243C14.0632 46.6177 13.5599 46.2061 12.9308 46.2061C12.3331 46.1744 11.7984 46.586 11.6097 47.0926C11.421 47.5992 11.5468 48.1057 11.767 48.4223C11.9871 48.7389 12.3017 48.8972 12.5219 48.9605C12.7106 49.0239 12.8679 49.0239 12.8679 49.0239C12.8679 49.0239 12.8364 49.0239 12.7735 49.0239C12.7106 49.0239 12.6162 49.0239 12.4904 48.9922C12.2702 48.9289 11.9242 48.8022 11.6726 48.454C11.421 48.1057 11.2637 47.5675 11.4524 46.9976C11.6411 46.4594 12.2388 45.9845 12.8993 46.0161C13.5913 46.0161 14.1575 46.5227 14.3148 47.0609C14.5035 47.6308 14.3148 48.169 14.0632 48.4856C13.7801 48.8339 13.4341 48.9605 13.2139 48.9922C13.0881 49.0239 12.9937 49.0239 12.9308 49.0239C12.8993 49.0555 12.8679 49.0555 12.8679 49.0239Z" fill="#455A64"/>
<path d="M10.7959 50.3559C10.7645 50.3243 10.9847 49.9443 11.3307 49.5011C11.6767 49.0579 11.9598 48.7096 11.9912 48.7413C12.0227 48.7729 11.8025 49.1528 11.4565 49.5961C11.1419 50.0393 10.8274 50.3876 10.7959 50.3559Z" fill="#455A64"/>
<path d="M20.884 52.6967C20.884 52.6967 20.9154 52.76 21.0098 52.855C21.1042 52.9816 21.1985 53.1399 21.3558 53.3616C21.6704 53.8048 22.0793 54.438 22.6455 55.2612C22.6455 55.2928 22.6455 55.2928 22.6455 55.3245C22.6455 55.3245 22.6455 55.3245 22.614 55.3245C21.6389 55.3245 20.4436 55.3245 19.0282 55.3245H18.9967C18.9652 55.3245 18.9653 55.2928 18.9653 55.2928V55.2612L19.0596 55.3245C18.1789 56.116 17.0151 56.8125 15.5996 57.1608C14.9076 57.3191 14.1527 57.4141 13.3663 57.3507C12.5799 57.3191 11.7936 57.1608 11.0072 56.8442C10.2208 56.5276 9.49736 56.116 8.80536 55.5461C8.14481 54.9762 7.54717 54.2797 7.07535 53.4882C6.1317 51.9052 5.75425 49.9106 6.1317 47.9793C6.47771 46.1747 7.48426 44.56 8.80536 43.4519C10.1265 42.3438 11.7621 41.7106 13.3348 41.6473C14.9076 41.5206 16.4174 41.9322 17.6441 42.6288C18.8709 43.3253 19.8145 44.2751 20.4436 45.2882C21.0727 46.3013 21.4187 47.3461 21.5445 48.2959C21.576 48.4226 21.576 48.5175 21.6074 48.6442C21.6074 48.7708 21.6075 48.8658 21.6389 48.9925C21.6389 49.2141 21.6704 49.4357 21.6704 49.6257C21.6704 50.0372 21.6074 50.4172 21.576 50.7338C21.4816 51.3986 21.2929 51.8735 21.1671 52.2218C21.1042 52.3801 21.0413 52.5067 21.0098 52.6017C20.9154 52.665 20.884 52.6967 20.884 52.6967C20.884 52.6967 20.884 52.665 20.9154 52.57C20.9469 52.4751 21.0098 52.3484 21.0413 52.1901C21.1671 51.8735 21.3244 51.367 21.4187 50.7021C21.4816 50.3855 21.5131 50.0056 21.5131 49.594C21.5131 49.404 21.4816 49.1824 21.4816 48.9608C21.4816 48.8658 21.4816 48.7392 21.4502 48.6442C21.4187 48.5175 21.4187 48.4226 21.3873 48.2959C21.23 47.3778 20.9154 46.333 20.2863 45.3515C19.6572 44.3384 18.7136 43.4203 17.5183 42.7237C16.323 42.0589 14.8447 41.679 13.3034 41.7739C11.7621 41.8689 10.1894 42.4705 8.86827 43.5469C7.57863 44.6233 6.63498 46.2064 6.25752 47.9793C5.88006 49.8789 6.25753 51.8419 7.16972 53.3616C7.61008 54.1531 8.20772 54.8179 8.86827 55.3878C9.52882 55.926 10.2523 56.3693 11.0072 56.6542C11.7621 56.9708 12.5485 57.1291 13.3034 57.1608C14.0583 57.2241 14.8132 57.1608 15.5052 57.0025C16.8892 56.6859 18.0531 55.9893 18.9338 55.2295C18.9652 55.1978 18.9967 55.1978 18.9967 55.2295C19.0282 55.2612 19.0282 55.2612 18.9967 55.2928L18.9023 55.2295C18.9967 55.1978 19.0282 55.1978 19.0596 55.1978H19.1854C19.2798 55.1978 19.3742 55.1978 19.4371 55.1978C19.5943 55.1978 19.7831 55.1978 19.9403 55.1978C20.2549 55.1978 20.5694 55.1978 20.884 55.1978C21.4816 55.1978 22.0478 55.1978 22.5196 55.2295L22.4882 55.2928C21.9534 54.4697 21.5131 53.8048 21.23 53.3616C21.1042 53.1399 20.9783 52.9816 20.9154 52.855C20.9154 52.76 20.884 52.6967 20.884 52.6967Z" fill="#263238"/>
</svg>
